<?xml version="1.0" encoding="utf-8"?>
<!-- Generator: Adobe Illustrator 17.0.0, SVG Export Plug-In . SVG Version: 6.00 Build 0)  -->
<!DOCTYPE svg PUBLIC "-//W3C//DTD SVG 1.1//EN" "http://www.w3.org/Graphics/SVG/1.1/DTD/svg11.dtd">
<svg version="1.1" id="Слой_1" xmlns="http://www.w3.org/2000/svg" xmlns:xlink="http://www.w3.org/1999/xlink" x="0px" y="0px"
	 width="100px" height="100px" viewBox="0 0 100 100" enable-background="new 0 0 100 100" xml:space="preserve">
<g opacity="0.6">
	<path fill="#DC121F" d="M53.958,13.875c-11.222,0-20.352,9.13-20.352,20.351c0,11.222,9.13,20.352,20.352,20.352
		s20.352-9.129,20.352-20.352C74.309,23.005,65.179,13.875,53.958,13.875L53.958,13.875z M65.046,40.974l-4.342,4.341l-6.747-6.746
		l-6.747,6.746l-4.342-4.341l6.747-6.747l-6.747-6.747l4.342-4.341l6.747,6.747l6.747-6.747l4.342,4.341l-6.747,6.747L65.046,40.974
		z M65.046,40.974"/>
	<g>
		<g>
			<path d="M33.52,76.032c-1.834-0.883-3.381-2.102-4.592-3.562l-6.905,15.272c-0.314,0.695,0.036,1.218,0.203,1.411
				c0.165,0.193,0.629,0.619,1.363,0.415l5.026-1.399c0.573-0.16,1.152-0.236,1.723-0.236c2.409,0,4.675,1.363,5.768,3.623
				l2.27,4.698c0.332,0.687,0.953,0.755,1.212,0.75c0.254-0.003,0.879-0.086,1.193-0.78L51.765,71.93
				c-1.207,0.348-2.35,0.97-3.323,1.869C44.309,77.619,38.591,78.474,33.52,76.032z"/>
			<path d="M79.995,72.471c-1.211,1.46-2.758,2.679-4.592,3.562c-5.07,2.442-10.788,1.586-14.922-2.234
				c-0.973-0.899-2.116-1.521-3.323-1.869l10.983,24.294c0.314,0.695,0.939,0.777,1.193,0.78c0.259,0.005,0.88-0.063,1.212-0.75
				l2.27-4.698c1.091-2.26,3.359-3.623,5.768-3.623c0.572,0,1.15,0.076,1.723,0.236l5.026,1.399
				c0.735,0.205,1.199-0.222,1.363-0.415c0.167-0.193,0.517-0.716,0.203-1.411L79.995,72.471z"/>
			<path d="M54.462,60.539c-15.03,0-27.258-12.229-27.258-27.259c0-11.798,7.548-21.84,18.058-25.626l-4.575-4.659
				c-3.088,1.7-6.8,2.238-10.375,1.144c-3.994-1.223-7.243,0.63-8.951,2.771c-1.708,2.142-2.792,5.722-0.71,9.344
				c3.463,6.027,1.684,13.822-4.051,17.75c-3.448,2.361-4.025,6.055-3.415,8.726c0.609,2.67,2.732,5.749,6.862,6.38
				c6.87,1.05,11.856,7.302,11.351,14.234c-0.304,4.167,2.225,6.922,4.693,8.111c2.468,1.188,6.2,1.449,9.268-1.388
				c2.551-2.358,5.828-3.538,9.102-3.538c3.277,0,6.55,1.179,9.102,3.538c3.069,2.836,6.8,2.576,9.268,1.388
				c2.468-1.189,4.998-3.943,4.693-8.111c-0.445-6.123,3.398-11.702,9.037-13.647l-6.641-6.759
				C76.011,53.208,66.088,60.539,54.462,60.539z"/>
		</g>
	</g>
</g>
</svg>
