<?xml version="1.0" encoding="utf-8"?>
<!-- Generator: Adobe Illustrator 17.0.0, SVG Export Plug-In . SVG Version: 6.00 Build 0)  -->
<!DOCTYPE svg PUBLIC "-//W3C//DTD SVG 1.1//EN" "http://www.w3.org/Graphics/SVG/1.1/DTD/svg11.dtd">
<svg version="1.1" id="Слой_1" xmlns="http://www.w3.org/2000/svg" xmlns:xlink="http://www.w3.org/1999/xlink" x="0px" y="0px"
	 width="100px" height="100px" viewBox="0 0 100 100" enable-background="new 0 0 100 100" xml:space="preserve">
<g opacity="0.6">
	<path fill="#622181" d="M80.492,79.184l6.163-4.466c0.564,0.357,1.225,0.567,1.94,0.567c2.012,0,3.643-1.633,3.643-3.648
		c0-2.013-1.631-3.643-3.643-3.643c-2.012,0-3.645,1.63-3.645,3.643c0,0.151,0.014,0.299,0.031,0.452l-4.489,3.249v-10.14l6.208-4.5
		c0.558,0.338,1.2,0.536,1.895,0.536c2.01,0,3.643-1.633,3.643-3.643c0-2.012-1.633-3.648-3.643-3.648
		c-2.012,0-3.645,1.636-3.645,3.648c0,0.168,0.014,0.338,0.039,0.503l-4.497,3.257V45.963h-3.55v8.122l-4.522-3.271
		c0.042-0.221,0.064-0.441,0.064-0.675c0-2.01-1.633-3.643-3.645-3.643c-2.013,0-3.643,1.633-3.643,3.643
		c0,2.012,1.63,3.645,3.643,3.645c0.636,0,1.233-0.161,1.753-0.447l6.35,4.595v10.14l-4.514-3.268
		c0.034-0.198,0.056-0.404,0.056-0.611c0-2.018-1.633-3.649-3.645-3.649c-2.013,0-3.643,1.631-3.643,3.649
		c0,2.009,1.63,3.642,3.643,3.642c0.656,0,1.27-0.176,1.8-0.477l6.303,4.561v10.816l-4.511-3.268c0.031-0.199,0.053-0.397,0.053-0.6
		c0-2.013-1.636-3.646-3.645-3.646c-2.013,0-3.643,1.633-3.643,3.646c0,2.012,1.63,3.645,3.643,3.645
		c0.661,0,1.278-0.181,1.811-0.485l6.292,4.552V97.41h3.55v-3.57l6.149-4.452c0.564,0.357,1.23,0.569,1.954,0.569
		c2.01,0,3.643-1.63,3.643-3.642c0-2.013-1.633-3.643-3.643-3.643c-2.012,0-3.645,1.63-3.645,3.643c0,0.145,0.011,0.29,0.025,0.432
		l-4.483,3.249V79.184z M80.492,79.184"/>
	<g>
		<path d="M24.841,71.073c-1.478-0.711-2.725-1.694-3.701-2.871l-5.565,12.31c-0.254,0.56,0.029,0.982,0.163,1.138
			c0.133,0.155,0.508,0.499,1.099,0.334l4.052-1.128c0.462-0.128,0.928-0.19,1.388-0.19c1.942,0,3.769,1.099,4.649,2.92l1.83,3.787
			c0.267,0.553,0.768,0.609,0.977,0.605c0.204-0.003,0.708-0.069,0.961-0.63l8.852-19.582c-0.973,0.28-1.894,0.781-2.678,1.506
			C33.537,72.352,28.928,73.042,24.841,71.073z"/>
		<path d="M58.601,71.073c-4.088,1.968-8.696,1.279-12.028-1.8c-0.784-0.725-1.706-1.226-2.678-1.506l8.852,19.582
			c0.254,0.561,0.757,0.627,0.962,0.63c0.209,0.004,0.71-0.051,0.977-0.605l1.83-3.787c0.269-0.557,0.636-1.028,1.062-1.428
			l3.071-12.448C60.019,70.218,59.366,70.706,58.601,71.073z"/>
		<path d="M56.528,67.383c0.615-0.295,1.225-0.726,1.781-1.259c-1.641-2.7-2.592-5.823-2.592-9.161c0-1.307,0.152-2.58,0.425-3.812
			c-3.864,3.374-8.901,5.435-14.421,5.435c-12.115,0-21.972-9.856-21.972-21.971s9.856-21.972,21.972-21.972
			c12.115,0,21.971,9.857,21.971,21.972c0,2.153-0.324,4.23-0.905,6.199c3.025-2.4,6.792-3.923,10.95-4.216
			c-0.402-0.503-0.885-0.981-1.497-1.401c-4.622-3.165-6.057-9.449-3.265-14.306c1.677-2.92,0.805-5.806-0.572-7.531
			c-1.378-1.726-3.996-3.219-7.216-2.234c-5.355,1.641-11.164-1.156-13.221-6.367c-1.236-3.133-4.036-4.249-6.244-4.249
			c-2.209,0-5.009,1.116-6.246,4.249c-2.057,5.21-7.864,8.007-13.22,6.367c-3.22-0.985-5.839,0.508-7.216,2.234
			c-1.377,1.726-2.25,4.611-0.572,7.531c2.791,4.857,1.357,11.141-3.265,14.306c-2.779,1.903-3.244,4.881-2.752,7.034
			c0.492,2.153,2.202,4.634,5.531,5.143c5.539,0.846,9.557,5.885,9.15,11.472c-0.245,3.359,1.794,5.58,3.783,6.538
			c1.989,0.958,4.997,1.168,7.47-1.118c2.057-1.901,4.698-2.851,7.338-2.851c2.64,0,5.279,0.95,7.337,2.851
			C51.532,68.551,54.539,68.341,56.528,67.383z"/>
		<path d="M41.721,18.739c-9.856,0-17.875,8.019-17.875,17.875c0,9.856,8.019,17.875,17.875,17.875
			c9.857,0,17.875-8.019,17.875-17.875C59.596,26.758,51.578,18.739,41.721,18.739z M50.882,34.881l-11.125,8.125
			c-0.354,0.258-0.777,0.394-1.209,0.394c-0.111,0-0.223-0.009-0.334-0.027c-0.542-0.089-1.026-0.393-1.342-0.844l-3.327-4.738
			c-0.651-0.926-0.427-2.204,0.499-2.854c0.926-0.65,2.203-0.427,2.853,0.499l2.128,3.031l9.44-6.895
			c0.914-0.667,2.195-0.468,2.863,0.446C51.994,32.932,51.795,34.214,50.882,34.881z"/>
	</g>
</g>
</svg>
