<?xml version="1.0" encoding="utf-8"?>
<!-- Generator: Adobe Illustrator 17.0.0, SVG Export Plug-In . SVG Version: 6.00 Build 0)  -->
<!DOCTYPE svg PUBLIC "-//W3C//DTD SVG 1.1//EN" "http://www.w3.org/Graphics/SVG/1.1/DTD/svg11.dtd">
<svg version="1.1" id="Слой_1" xmlns="http://www.w3.org/2000/svg" xmlns:xlink="http://www.w3.org/1999/xlink" x="0px" y="0px"
	 width="100px" height="100px" viewBox="0 0 100 100" enable-background="new 0 0 100 100" xml:space="preserve">
<g opacity="0.6">
	<g>
		<path fill="#009036" d="M96.402,90.362c-0.154-10.474-1.427-13.458-11.167-15.347c0,0-1.371,1.878-4.567,1.878
			c-3.196,0-4.567-1.878-4.567-1.878c-9.633,1.869-10.984,4.809-11.162,15.007c-0.014,0.833-0.021,0.876-0.024,0.779
			c0.001,0.181,0.001,0.517,0.001,1.101c0,0,2.319,5.024,15.751,5.024c13.432,0,15.751-5.024,15.751-5.024
			c0-0.375,0.001-0.636,0.001-0.814C96.417,91.148,96.412,91.031,96.402,90.362L96.402,90.362z"/>
		<path fill="#009036" d="M80.667,73.869c4.606,0,8.34-4.874,8.34-10.886c0-6.012-1.226-10.886-8.34-10.886
			c-7.114,0-8.34,4.874-8.34,10.886C72.327,68.995,76.061,73.869,80.667,73.869L80.667,73.869z"/>
		<path fill="#009036" d="M80.667,73.869"/>
	</g>
	<g>
		<path d="M23.458,79.263c-1.631-0.785-3.006-1.869-4.083-3.167l-6.139,13.58c-0.28,0.618,0.032,1.083,0.179,1.255
			c0.146,0.172,0.56,0.551,1.212,0.369l4.47-1.244c0.509-0.142,1.024-0.21,1.531-0.21c2.142,0,4.158,1.212,5.129,3.221l2.019,4.178
			c0.295,0.611,0.848,0.671,1.078,0.667c0.225-0.003,0.781-0.076,1.06-0.694l9.766-21.602c-1.073,0.309-2.089,0.862-2.955,1.662
			C33.052,80.673,27.968,81.434,23.458,79.263z"/>
		<path d="M55.74,89.201c0-0.756-0.001-1.19-0.002-1.425c0.003,0.125,0.012,0.069,0.03-1.009c0.043-2.41,0.138-4.5,0.337-6.332
			c-3.124,0.175-6.213-0.888-8.671-3.159c-0.865-0.8-1.882-1.353-2.955-1.662l9.766,21.602c0.28,0.618,0.835,0.691,1.061,0.694
			c0.23,0.004,0.783-0.056,1.078-0.667l2.019-4.178c0.156-0.324,0.379-0.591,0.586-0.872C56.436,90.66,55.74,89.201,55.74,89.201z"
			/>
		<path d="M62.515,69.656c0.076-0.53,0.117-1.081,0.074-1.677c-0.224-3.073,0.767-5.993,2.572-8.267
			c-0.008-0.22-0.05-0.427-0.05-0.649c0-7.943,1.619-14.382,11.018-14.382c0.803,0,1.474,0.109,2.167,0.2
			c-0.504-1.098-1.31-2.143-2.549-2.992c-5.099-3.492-6.682-10.424-3.602-15.783c1.85-3.221,0.888-6.404-0.631-8.309
			c-1.52-1.904-4.408-3.551-7.96-2.464c-5.908,1.81-12.316-1.275-14.585-7.024c-1.364-3.455-4.453-4.687-6.888-4.687
			c-2.437,0-5.526,1.231-6.89,4.687c-2.269,5.749-8.675,8.834-14.584,7.024c-3.552-1.087-6.442,0.56-7.96,2.464
			c-1.519,1.905-2.482,5.088-0.631,8.309c3.079,5.358,1.497,12.291-3.602,15.783c-3.066,2.099-3.579,5.384-3.036,7.759
			c0.542,2.375,2.43,5.112,6.102,5.673c6.11,0.933,10.543,6.493,10.094,12.656c-0.27,3.706,1.979,6.155,4.174,7.212
			c2.195,1.056,5.512,1.288,8.24-1.234c2.27-2.097,5.182-3.146,8.095-3.146s5.824,1.049,8.094,3.146
			c2.226,2.057,4.834,2.269,6.914,1.708C58.051,72.899,59.704,71.033,62.515,69.656z M42.081,65.486
			c-13.365,0-24.239-10.874-24.239-24.239s10.873-24.238,24.239-24.238c13.365,0,24.238,10.873,24.238,24.238
			S55.446,65.486,42.081,65.486z"/>
		<path d="M42.08,21.528c-10.873,0-19.719,8.846-19.719,19.719c0,10.873,8.846,19.72,19.719,19.72c10.874,0,19.72-8.847,19.72-19.72
			C61.8,30.374,52.954,21.528,42.08,21.528z M52.186,39.335l-12.273,8.964c-0.39,0.285-0.857,0.435-1.333,0.435
			c-0.122,0-0.246-0.01-0.369-0.03c-0.598-0.099-1.131-0.434-1.481-0.931l-3.67-5.227c-0.718-1.021-0.471-2.431,0.55-3.148
			c1.021-0.717,2.431-0.471,3.148,0.55l2.348,3.343l10.413-7.606c1.009-0.736,2.422-0.516,3.158,0.492
			C53.413,37.186,53.194,38.599,52.186,39.335z"/>
	</g>
</g>
</svg>
