<?xml version="1.0" encoding="utf-8"?>
<!-- Generator: Adobe Illustrator 17.0.0, SVG Export Plug-In . SVG Version: 6.00 Build 0)  -->
<!DOCTYPE svg PUBLIC "-//W3C//DTD SVG 1.1//EN" "http://www.w3.org/Graphics/SVG/1.1/DTD/svg11.dtd">
<svg version="1.1" id="Слой_1" xmlns="http://www.w3.org/2000/svg" xmlns:xlink="http://www.w3.org/1999/xlink" x="0px" y="0px"
	 width="100px" height="100px" viewBox="0 0 100 100" enable-background="new 0 0 100 100" xml:space="preserve">
<g opacity="0.6">
	<g>
		<path d="M18.898,74.445c-1.411-0.68-2.602-1.617-3.533-2.741l-5.313,11.752c-0.242,0.535,0.028,0.937,0.155,1.086
			c0.127,0.149,0.485,0.477,1.049,0.319l3.869-1.076c0.441-0.123,0.886-0.182,1.325-0.182c1.854,0,3.598,1.049,4.438,2.788
			l1.747,3.615c0.255,0.528,0.734,0.581,0.933,0.577c0.195-0.003,0.676-0.066,0.918-0.601l8.451-18.695
			c-0.929,0.268-1.808,0.746-2.557,1.438C27.2,75.666,22.8,76.324,18.898,74.445z"/>
		<path d="M46.834,83.046c0-0.654-0.001-1.03-0.002-1.233c0.003,0.108,0.01,0.06,0.026-0.873c0.037-2.085,0.119-3.894,0.291-5.48
			c-2.704,0.152-5.377-0.768-7.504-2.734c-0.749-0.692-1.628-1.171-2.557-1.438l8.451,18.695c0.242,0.535,0.723,0.598,0.918,0.601
			c0.199,0.004,0.678-0.049,0.933-0.577l1.747-3.615c0.135-0.28,0.328-0.512,0.507-0.755C47.436,84.308,46.834,83.046,46.834,83.046
			z"/>
		<path d="M52.697,66.132c0.066-0.459,0.101-0.935,0.064-1.451c-0.194-2.659,0.663-5.186,2.226-7.154
			c-0.007-0.19-0.043-0.369-0.043-0.561c0-6.874,1.401-12.446,9.535-12.446c0.695,0,1.275,0.094,1.876,0.173
			c-0.436-0.95-1.134-1.855-2.206-2.589c-4.413-3.022-5.782-9.021-3.117-13.658c1.601-2.788,0.768-5.542-0.546-7.191
			c-1.315-1.648-3.815-3.073-6.889-2.132c-5.113,1.567-10.658-1.103-12.622-6.078c-1.18-2.99-3.853-4.056-5.961-4.056
			c-2.109,0-4.782,1.066-5.963,4.056c-1.963,4.975-7.508,7.645-12.621,6.078c-3.074-0.941-5.575,0.485-6.889,2.132
			c-1.314,1.649-2.148,4.403-0.546,7.191c2.665,4.637,1.296,10.636-3.117,13.658C3.224,43.92,2.78,46.763,3.25,48.818
			s2.103,4.424,5.281,4.91c5.288,0.807,9.124,5.619,8.735,10.953c-0.234,3.207,1.713,5.326,3.612,6.241
			c1.899,0.914,4.77,1.115,7.131-1.068c1.964-1.814,4.485-2.722,7.005-2.722c2.521,0,5.04,0.907,7.004,2.722
			c1.926,1.78,4.183,1.963,5.983,1.478C48.834,68.938,50.264,67.323,52.697,66.132z M35.014,62.523
			c-11.566,0-20.976-9.41-20.976-20.976s9.409-20.975,20.976-20.975c11.566,0,20.975,9.409,20.975,20.975
			S46.58,62.523,35.014,62.523z"/>
		<path d="M35.013,24.482c-9.409,0-17.065,7.655-17.065,17.065c0,9.41,7.655,17.065,17.065,17.065
			c9.41,0,17.065-7.656,17.065-17.065C52.078,32.138,44.423,24.482,35.013,24.482z M43.759,39.892L33.138,47.65
			c-0.338,0.246-0.742,0.376-1.154,0.376c-0.106,0-0.213-0.008-0.319-0.026c-0.517-0.086-0.979-0.376-1.281-0.805l-3.176-4.524
			c-0.621-0.884-0.408-2.104,0.476-2.724c0.884-0.621,2.104-0.408,2.724,0.476l2.032,2.893l9.012-6.582
			c0.873-0.637,2.096-0.447,2.733,0.425C44.821,38.032,44.631,39.256,43.759,39.892z"/>
	</g>
	<g>
		<g>
			<g>
				<path fill="#DA9D00" d="M97.167,86.856l-0.012-6.014c-0.048-1.78-0.397-3.018-2.213-4.161c-2.418-1.515-5.124-2.827-5.124-2.827
					l-2.153,6.808l-1.251-3.573c2.201-3.078-0.156-3.235-0.578-3.235h-0.024c-0.421,0-2.778,0.157-0.577,3.235l-1.251,3.56
					l-2.153-6.807c0,0-0.769,0.373-1.852,0.95c-0.252-0.204-0.529-0.409-0.842-0.601c-3.007-1.889-6.362-3.524-6.362-3.524
					l-2.67,8.456l-1.563-4.439c2.742-3.825-0.193-4.017-0.722-4.029h-0.024c-0.529,0-3.464,0.192-0.722,4.029l-1.564,4.439
					l-2.67-8.456c0,0-2.771,1.355-5.534,3.019v13.17H97.167z"/>
			</g>
			<g>
				<path fill="#DA9D00" d="M97.167,86.856l-0.012-6.014c-0.048-1.78-0.397-3.018-2.213-4.161c-2.418-1.515-5.124-2.827-5.124-2.827
					l-2.153,6.808l-1.251-3.573c2.201-3.078-0.156-3.235-0.578-3.235h-0.024c-0.421,0-2.778,0.157-0.577,3.235l-1.251,3.56
					l-2.153-6.807c0,0-0.769,0.373-1.852,0.95c-0.252-0.204-0.529-0.409-0.842-0.601c-3.007-1.889-6.362-3.524-6.362-3.524
					l-2.67,8.456l-1.563-4.439c2.742-3.825-0.193-4.017-0.722-4.029h-0.024c-0.529,0-3.464,0.192-0.722,4.029l-1.564,4.439
					l-2.67-8.456c0,0-3.039,0.736-5.534,2.654c-1.421,1.092-3.277,2.542-3.243,6.189c0.044,4.768,0,7.346,0,7.346H97.167z"/>
			</g>
		</g>
		<path fill="#DA9D00" d="M67.765,68.906h0.096c7.71-0.084,6.591-10.38,6.591-10.38c-0.313-6.88-6.074-6.82-6.639-6.796
			c-0.565-0.024-6.315-0.085-6.639,6.796C61.174,58.538,60.055,68.834,67.765,68.906L67.765,68.906z M67.765,68.906"/>
		<path fill="#DA9D00" d="M85.648,72.403h0.072c6.194-0.06,5.304-8.347,5.304-8.347c-0.253-5.533-4.883-5.485-5.34-5.472
			c-0.457-0.024-5.088-0.061-5.34,5.472C80.345,64.067,79.443,72.343,85.648,72.403L85.648,72.403z M85.648,72.403"/>
	</g>
</g>
</svg>
