<?xml version="1.0" encoding="utf-8"?>
<!-- Generator: Adobe Illustrator 17.0.0, SVG Export Plug-In . SVG Version: 6.00 Build 0)  -->
<!DOCTYPE svg PUBLIC "-//W3C//DTD SVG 1.1//EN" "http://www.w3.org/Graphics/SVG/1.1/DTD/svg11.dtd">
<svg version="1.1" id="Слой_1" xmlns="http://www.w3.org/2000/svg" xmlns:xlink="http://www.w3.org/1999/xlink" x="0px" y="0px"
	 width="100px" height="100px" viewBox="0 0 100 100" enable-background="new 0 0 100 100" xml:space="preserve">
<g opacity="0.6">
	<g>
		<path fill="#214594" d="M66.302,45.893c0.572,0,1.036-0.464,1.036-1.036v-4.142c0-0.572-0.464-1.036-1.036-1.036h-1.139
			c-1.288-0.005-2.44-0.801-2.899-2.005c-0.11-0.288-0.229-0.574-0.356-0.855c-0.532-1.175-0.285-2.557,0.621-3.475l0.811-0.811
			c0.404-0.405,0.404-1.06,0-1.464l-2.927-2.927c-0.406-0.401-1.059-0.401-1.465,0l-0.811,0.81c-0.918,0.908-2.3,1.154-3.476,0.621
			c-0.281-0.128-0.566-0.246-0.856-0.356c-1.2-0.461-1.995-1.611-2.001-2.896v-1.139c0-0.572-0.464-1.036-1.036-1.036h-4.142
			c-0.572,0-1.036,0.464-1.036,1.036v1.139c-0.005,1.288-0.801,2.44-2.005,2.899c-0.288,0.11-0.574,0.229-0.855,0.356
			c-1.175,0.533-2.558,0.286-3.475-0.621l-0.811-0.811c-0.405-0.404-1.06-0.404-1.464,0l-2.927,2.924
			c-0.194,0.194-0.303,0.458-0.303,0.733c0,0.275,0.109,0.538,0.303,0.733l0.81,0.81c0.907,0.918,1.154,2.3,0.621,3.475
			c-0.128,0.281-0.246,0.567-0.356,0.857c-0.46,1.201-1.61,1.997-2.896,2.003h-1.139c-0.572,0-1.036,0.464-1.036,1.036v4.142
			c0,0.572,0.464,1.036,1.036,1.036h1.139c1.288,0.005,2.44,0.801,2.899,2.005c0.11,0.288,0.229,0.574,0.356,0.855
			c0.532,1.175,0.285,2.557-0.621,3.475l-0.811,0.811c-0.404,0.405-0.404,1.06,0,1.464l2.927,2.927
			c0.194,0.194,0.458,0.303,0.733,0.303c0.275,0,0.538-0.109,0.733-0.303l0.811-0.81c0.918-0.906,2.3-1.153,3.476-0.621
			c0.281,0.128,0.566,0.247,0.856,0.356c1.2,0.461,1.995,1.611,2.001,2.896v1.139c0,0.572,0.464,1.036,1.036,1.036h4.142
			c0.572,0,1.036-0.464,1.036-1.036v-1.139c0.005-1.288,0.801-2.44,2.005-2.899c0.288-0.11,0.574-0.229,0.855-0.356
			c1.175-0.533,2.558-0.286,3.475,0.621l0.811,0.811c0.405,0.404,1.06,0.404,1.464,0l2.927-2.927
			c0.194-0.194,0.303-0.458,0.303-0.733c0-0.275-0.109-0.538-0.303-0.733l-0.81-0.811c-0.907-0.918-1.154-2.3-0.621-3.476
			c0.128-0.281,0.247-0.566,0.356-0.856c0.461-1.2,1.611-1.995,2.896-2.001H66.302z M58.01,42.961c0,0.187-0.015,0.373-0.029,0.56
			c-0.015,0.207-0.041,0.404-0.07,0.604c-0.22,1.51-0.751,2.959-1.559,4.254c-0.154,0.25-0.34,0.479-0.555,0.68
			c-0.795,0.754-1.688,1.399-2.654,1.917h-0.006c-0.175,0.093-0.348,0.172-0.518,0.251c-0.134,0.062-0.267,0.126-0.404,0.183
			c-0.137,0.056-0.291,0.103-0.436,0.159c-0.145,0.056-0.283,0.104-0.428,0.144c-0.187,0.055-0.368,0.104-0.55,0.142
			c-0.103,0.023-0.198,0.049-0.299,0.068c-0.26,0.052-0.518,0.09-0.767,0.117c-0.033,0-0.066,0.01-0.104,0.014
			c-0.31,0.031-0.621,0.051-0.914,0.051c-0.168,0-0.318-0.024-0.479-0.032c-0.243-0.011-0.484-0.017-0.725-0.048
			c-0.365-0.049-0.728-0.118-1.085-0.207c-0.018,0-0.035-0.006-0.052-0.01c-4.117-1.062-6.994-4.775-6.996-9.027
			s2.872-7.967,6.989-9.032c0.331-0.08,0.666-0.143,1.004-0.188c0.117-0.016,0.235-0.03,0.352-0.043
			c0.222-0.023,0.444-0.035,0.665-0.041c0.103,0,0.207-0.019,0.311-0.019c2.002,0,3.95,0.65,5.551,1.851l0.17,0.126
			c0.13,0.103,0.259,0.209,0.384,0.317c0.104,0.091,0.207,0.187,0.31,0.283c0.085,0.081,0.17,0.159,0.251,0.243
			c0.154,0.157,0.301,0.32,0.444,0.489c0.031,0.036,0.065,0.071,0.095,0.109c0.351,0.424,0.662,0.878,0.932,1.358
			c0.014,0.024,0.022,0.05,0.035,0.073c0.171,0.314,0.324,0.638,0.457,0.969c0.058,0.142,0.104,0.285,0.157,0.429
			c0.073,0.207,0.138,0.417,0.196,0.631c0.046,0.168,0.094,0.335,0.129,0.504c0.055,0.258,0.095,0.518,0.127,0.786
			c0.03,0.247,0.048,0.494,0.058,0.743c0.006,0.136,0.021,0.271,0.021,0.414C58.018,42.846,58.011,42.902,58.01,42.961L58.01,42.961
			z M58.01,42.961"/>
		<path d="M74.61,24.211c0.041,0.104,0.074,0.207,0.112,0.304C74.684,24.414,74.651,24.312,74.61,24.211L74.61,24.211z
			 M74.61,24.211"/>
		<path d="M74.722,34.134c-0.038,0.104-0.07,0.207-0.112,0.304C74.651,34.338,74.684,34.235,74.722,34.134L74.722,34.134z
			 M74.722,34.134"/>
		<path d="M74.043,23.008c0.071,0.133,0.13,0.274,0.198,0.414C74.172,23.276,74.114,23.137,74.043,23.008L74.043,23.008z
			 M74.043,23.008"/>
		<path d="M75.096,33.021c-0.016,0.053-0.026,0.104-0.042,0.159C75.07,33.127,75.08,33.075,75.096,33.021L75.096,33.021z
			 M75.096,33.021"/>
		<path d="M65.857,16.389c0.052,0.016,0.104,0.026,0.159,0.042C65.962,16.415,65.91,16.404,65.857,16.389L65.857,16.389z
			 M65.857,16.389"/>
		<path d="M57.046,16.874c0.104-0.041,0.207-0.074,0.304-0.112C57.249,16.801,57.147,16.833,57.046,16.874L57.046,16.874z
			 M57.046,16.874"/>
		<path d="M75.054,25.469c0.015,0.052,0.026,0.104,0.042,0.159C75.08,25.575,75.07,25.522,75.054,25.469L75.054,25.469z
			 M75.054,25.469"/>
		<path d="M68.072,17.244c0.137,0.067,0.277,0.126,0.414,0.198C68.347,17.371,68.208,17.312,68.072,17.244L68.072,17.244z
			 M68.072,17.244"/>
		<path d="M69.162,17.844c0.154,0.094,0.31,0.181,0.463,0.281C69.474,18.024,69.317,17.934,69.162,17.844L69.162,17.844z
			 M69.162,17.844"/>
		<path d="M70.276,18.603c0.137,0.104,0.281,0.201,0.414,0.31C70.556,18.803,70.414,18.708,70.276,18.603L70.276,18.603z
			 M70.276,18.603"/>
		<path d="M72.572,20.794c0.103,0.133,0.207,0.277,0.311,0.414C72.777,21.07,72.682,20.929,72.572,20.794L72.572,20.794z
			 M72.572,20.794"/>
		<path d="M66.969,16.763c0.104,0.038,0.207,0.07,0.304,0.112C67.173,16.833,67.071,16.801,66.969,16.763L66.969,16.763z
			 M66.969,16.763"/>
		<path d="M73.36,21.86c0.104,0.15,0.187,0.311,0.281,0.463C73.551,22.168,73.461,22.011,73.36,21.86L73.36,21.86z M73.36,21.86"/>
		<path d="M58.304,16.43c0.052-0.015,0.104-0.026,0.159-0.042C58.41,16.404,58.357,16.415,58.304,16.43L58.304,16.43z M58.304,16.43
			"/>
		<path d="M53.629,18.912c0.133-0.109,0.276-0.207,0.414-0.311C53.905,18.708,53.764,18.803,53.629,18.912L53.629,18.912z
			 M53.629,18.912"/>
		<path d="M72.881,37.442c-0.104,0.137-0.2,0.28-0.31,0.414C72.682,37.721,72.777,37.579,72.881,37.442L72.881,37.442z
			 M72.881,37.442"/>
		<path d="M54.695,18.125c0.149-0.104,0.311-0.187,0.461-0.28C55.002,17.934,54.846,18.024,54.695,18.125L54.695,18.125z
			 M54.695,18.125"/>
		<path d="M55.843,17.442c0.133-0.071,0.274-0.13,0.414-0.198C56.111,17.312,55.972,17.371,55.843,17.442L55.843,17.442z
			 M55.843,17.442"/>
		<path d="M74.24,35.237c-0.067,0.137-0.126,0.277-0.198,0.414C74.114,35.512,74.172,35.373,74.24,35.237L74.24,35.237z
			 M74.24,35.237"/>
		<path d="M73.64,36.329c-0.093,0.153-0.18,0.311-0.28,0.461C73.461,36.639,73.551,36.482,73.64,36.329L73.64,36.329z M73.64,36.329
			"/>
		<path d="M87.013,25.183h-3.257c-1.325,0.005-2.505-0.838-2.93-2.093c-0.292-0.87-0.644-1.718-1.055-2.538
			c-0.592-1.188-0.356-2.621,0.584-3.558l2.309-2.313c0.404-0.404,0.404-1.059,0-1.463l-4.395-4.395
			c-0.405-0.405-1.06-0.405-1.464,0l-2.313,2.309c-0.937,0.939-2.369,1.175-3.557,0.585c-0.821-0.412-1.669-0.764-2.539-1.056
			c-1.255-0.425-2.098-1.605-2.093-2.931V4.472c0-0.572-0.464-1.036-1.036-1.036h-6.213c-0.572,0-1.036,0.464-1.036,1.036v3.257
			c0.005,1.325-0.838,2.504-2.093,2.93c-0.87,0.292-1.718,0.644-2.538,1.055c-1.188,0.593-2.622,0.358-3.558-0.584l-2.313-2.308
			c-0.405-0.405-1.06-0.405-1.464,0l-4.394,4.394c-0.405,0.405-0.405,1.06,0,1.464l7.387,7.396h1.781
			c0.521-0.823,1.13-1.587,1.816-2.278c0.314-0.314,0.644-0.612,0.988-0.893c0.134-0.11,0.276-0.207,0.414-0.31
			c0.215-0.164,0.428-0.33,0.652-0.48c0.151-0.103,0.31-0.186,0.461-0.28c0.226-0.137,0.448-0.279,0.683-0.402
			c0.134-0.072,0.274-0.13,0.414-0.198c0.263-0.129,0.526-0.258,0.798-0.37c0.104-0.041,0.207-0.073,0.304-0.112
			c0.311-0.12,0.63-0.236,0.954-0.332c0.053-0.016,0.103-0.026,0.158-0.042c2.414-0.701,4.979-0.701,7.394,0
			c0.053,0.016,0.103,0.026,0.158,0.042c0.324,0.096,0.64,0.212,0.954,0.332c0.104,0.038,0.207,0.07,0.304,0.112
			c0.272,0.112,0.535,0.241,0.798,0.37c0.137,0.067,0.276,0.126,0.414,0.198c0.234,0.124,0.456,0.264,0.681,0.402
			c0.154,0.094,0.31,0.18,0.463,0.281c0.225,0.15,0.437,0.311,0.652,0.479c0.138,0.103,0.28,0.2,0.414,0.31
			c0.688,0.563,1.319,1.193,1.881,1.881c0.11,0.134,0.207,0.277,0.31,0.414c0.163,0.214,0.329,0.427,0.479,0.652
			c0.103,0.151,0.186,0.31,0.281,0.463c0.138,0.224,0.278,0.446,0.402,0.681c0.072,0.134,0.13,0.273,0.198,0.414
			c0.129,0.263,0.258,0.526,0.37,0.798c0.041,0.104,0.073,0.207,0.112,0.304c0.12,0.31,0.236,0.629,0.332,0.954
			c0.016,0.053,0.026,0.104,0.042,0.158c0.701,2.415,0.701,4.98,0,7.394c-0.016,0.053-0.026,0.104-0.042,0.158
			c-0.096,0.324-0.207,0.64-0.332,0.954c-0.038,0.103-0.07,0.207-0.112,0.304c-0.112,0.272-0.241,0.536-0.37,0.798
			c-0.067,0.137-0.126,0.276-0.198,0.414c-0.124,0.234-0.265,0.457-0.402,0.683c-0.094,0.153-0.18,0.311-0.28,0.461
			c-0.15,0.224-0.311,0.437-0.48,0.652c-0.103,0.137-0.199,0.279-0.31,0.414c-0.281,0.344-0.58,0.674-0.893,0.988
			c-0.692,0.686-1.456,1.295-2.278,1.816c0,0.02,0.005,0.037,0.005,0.056v1.725l7.391,7.387c0.404,0.404,1.059,0.404,1.463,0
			l4.395-4.394c0.405-0.405,0.405-1.06,0-1.464l-2.309-2.313c-0.94-0.937-1.176-2.369-0.585-3.557
			c0.412-0.821,0.764-1.669,1.056-2.539c0.425-1.255,1.605-2.098,2.931-2.093h3.257c0.572,0,1.036-0.464,1.036-1.036v-6.213
			C88.048,25.646,87.585,25.183,87.013,25.183L87.013,25.183z M87.013,25.183"/>
		<path d="M67.273,16.874c0.271,0.111,0.534,0.241,0.798,0.37C67.809,17.115,67.545,16.986,67.273,16.874L67.273,16.874z
			 M67.273,16.874"/>
		<path d="M68.482,17.442c0.232,0.123,0.456,0.264,0.681,0.402C68.937,17.706,68.716,17.566,68.482,17.442L68.482,17.442z
			 M68.482,17.442"/>
		<path d="M57.351,16.763c0.31-0.12,0.632-0.237,0.954-0.333C57.98,16.527,57.665,16.642,57.351,16.763L57.351,16.763z
			 M57.351,16.763"/>
		<path d="M66.015,16.43c0.322,0.096,0.638,0.212,0.954,0.333C66.655,16.642,66.339,16.527,66.015,16.43L66.015,16.43z
			 M66.015,16.43"/>
		<path d="M55.155,17.845c0.226-0.138,0.45-0.28,0.683-0.403C55.604,17.566,55.381,17.707,55.155,17.845L55.155,17.845z
			 M55.155,17.845"/>
		<path d="M54.042,18.604c0.215-0.164,0.43-0.33,0.652-0.479C54.47,18.275,54.258,18.44,54.042,18.604L54.042,18.604z
			 M54.042,18.604"/>
		<path d="M56.248,17.244c0.264-0.128,0.528-0.259,0.798-0.37C56.775,16.986,56.511,17.115,56.248,17.244L56.248,17.244z
			 M56.248,17.244"/>
		<path d="M52.641,19.806c0.316-0.318,0.648-0.614,0.988-0.894C53.285,19.193,52.955,19.492,52.641,19.806L52.641,19.806z
			 M52.641,19.806"/>
		<path d="M73.36,36.79c-0.149,0.223-0.31,0.437-0.479,0.652C73.045,37.227,73.21,37.014,73.36,36.79L73.36,36.79z M73.36,36.79"/>
		<path d="M74.61,34.438c-0.111,0.271-0.241,0.534-0.37,0.798C74.37,34.974,74.498,34.71,74.61,34.438L74.61,34.438z M74.61,34.438"
			/>
		<path d="M74.043,35.642c-0.123,0.232-0.265,0.457-0.403,0.682C73.778,36.103,73.918,35.881,74.043,35.642L74.043,35.642z
			 M74.043,35.642"/>
		<path d="M69.625,18.125c0.223,0.149,0.436,0.31,0.651,0.478C70.062,18.44,69.849,18.275,69.625,18.125L69.625,18.125z
			 M69.625,18.125"/>
		<path d="M75.096,33.021c0.701-2.414,0.701-4.979,0-7.393C75.781,28.045,75.781,30.605,75.096,33.021L75.096,33.021z
			 M75.096,33.021"/>
		<path d="M65.857,16.389c-2.414-0.701-4.979-0.701-7.393,0C60.88,15.704,63.44,15.704,65.857,16.389L65.857,16.389z M65.857,16.389
			"/>
		<path d="M72.572,37.855c-0.28,0.34-0.576,0.672-0.894,0.988C71.993,38.529,72.291,38.2,72.572,37.855L72.572,37.855z
			 M72.572,37.855"/>
		<path d="M71.678,19.806c0.318,0.316,0.614,0.648,0.894,0.988C72.291,20.45,71.993,20.12,71.678,19.806L71.678,19.806z
			 M71.678,19.806"/>
		<path d="M72.882,21.208c0.163,0.215,0.329,0.429,0.478,0.651C73.21,21.635,73.045,21.423,72.882,21.208L72.882,21.208z
			 M72.882,21.208"/>
		<path d="M70.69,18.912c0.34,0.28,0.672,0.576,0.988,0.894C71.364,19.492,71.035,19.193,70.69,18.912L70.69,18.912z M70.69,18.912"
			/>
		<path d="M74.722,24.516c0.12,0.31,0.237,0.632,0.333,0.954C74.958,25.145,74.842,24.83,74.722,24.516L74.722,24.516z
			 M74.722,24.516"/>
		<path d="M73.641,22.322c0.138,0.225,0.279,0.449,0.402,0.681C73.918,22.769,73.779,22.547,73.641,22.322L73.641,22.322z
			 M73.641,22.322"/>
		<path d="M75.054,33.18c-0.096,0.322-0.207,0.638-0.333,0.954C74.842,33.82,74.958,33.504,75.054,33.18L75.054,33.18z
			 M75.054,33.18"/>
		<path d="M74.24,23.413c0.128,0.264,0.259,0.528,0.37,0.798C74.498,23.94,74.37,23.676,74.24,23.413L74.24,23.413z M74.24,23.413"
			/>
	</g>
	<g>
		<path d="M30.183,79.722c-1.562-0.752-2.879-1.79-3.911-3.033l-5.881,13.007c-0.267,0.592,0.031,1.037,0.173,1.202
			c0.14,0.164,0.535,0.527,1.161,0.353l4.281-1.192c0.488-0.136,0.981-0.201,1.468-0.201c2.052,0,3.982,1.161,4.912,3.085
			l1.933,4.001c0.283,0.585,0.812,0.643,1.032,0.639c0.217-0.003,0.748-0.073,1.016-0.665l9.353-20.69
			c-1.028,0.296-2.001,0.826-2.83,1.591C39.371,81.073,34.501,81.802,30.183,79.722z"/>
		<path d="M69.763,76.689c-1.031,1.243-2.349,2.281-3.911,3.033c-4.318,2.08-9.188,1.351-12.708-1.903
			c-0.829-0.766-1.802-1.295-2.83-1.591l9.353,20.69c0.267,0.592,0.8,0.662,1.016,0.665c0.22,0.004,0.749-0.054,1.032-0.639
			l1.933-4.001c0.93-1.924,2.861-3.085,4.912-3.085c0.487,0,0.979,0.065,1.468,0.201l4.281,1.192
			c0.626,0.174,1.021-0.189,1.161-0.353c0.142-0.164,0.44-0.61,0.173-1.202L69.763,76.689z"/>
		<path d="M48.018,66.528c-12.801,0-23.214-10.415-23.214-23.215c0-10.048,6.428-18.6,15.379-21.825l-3.897-3.968
			c-2.63,1.448-5.791,1.906-8.836,0.974c-3.401-1.041-6.169,0.536-7.623,2.36c-1.455,1.825-2.378,4.873-0.604,7.958
			c2.949,5.133,1.434,11.772-3.45,15.116c-2.936,2.01-3.428,5.157-2.908,7.432c0.518,2.274,2.327,4.896,5.844,5.433
			c5.851,0.894,10.097,6.219,9.667,12.122c-0.259,3.549,1.895,5.895,3.997,6.908c2.102,1.012,5.28,1.234,7.893-1.182
			c2.173-2.009,4.963-3.013,7.752-3.013c2.79,0,5.578,1.004,7.752,3.013c2.614,2.415,5.791,2.194,7.893,1.182
			c2.102-1.013,4.256-3.358,3.997-6.908c-0.379-5.215,2.894-9.966,7.696-11.622L69.7,51.536
			C66.37,60.284,57.92,66.528,48.018,66.528z"/>
	</g>
</g>
</svg>
