<?xml version="1.0" encoding="utf-8"?>
<!-- Generator: Adobe Illustrator 17.0.0, SVG Export Plug-In . SVG Version: 6.00 Build 0)  -->
<!DOCTYPE svg PUBLIC "-//W3C//DTD SVG 1.1//EN" "http://www.w3.org/Graphics/SVG/1.1/DTD/svg11.dtd">
<svg version="1.1" id="Слой_1" xmlns="http://www.w3.org/2000/svg" xmlns:xlink="http://www.w3.org/1999/xlink" x="0px" y="0px"
	 width="100px" height="100px" viewBox="0 0 100 100" enable-background="new 0 0 100 100" xml:space="preserve">
<g opacity="0.6">
	<path fill="#DC121F" d="M78.938,49.153c-8.165,0-14.814,6.648-14.814,14.814c0,4.213,1.789,8.005,4.622,10.701l-4.539,18.209
		c-0.278,1.12,0.124,2.305,1.025,3.034c0.901,0.723,2.145,0.847,3.176,0.338l10.53-5.268l10.524,5.268
		c0.421,0.201,0.877,0.308,1.327,0.308c0.658,0,1.315-0.219,1.855-0.646c0.901-0.729,1.304-1.908,1.025-3.034L89.13,74.668
		c2.832-2.696,4.622-6.488,4.622-10.701C93.752,55.802,87.103,49.153,78.938,49.153z M78.938,72.855c-4.9,0-8.888-3.988-8.888-8.888
		s3.988-8.888,8.888-8.888s8.888,3.988,8.888,8.888S83.838,72.855,78.938,72.855z"/>
	<g>
		<path d="M23.385,74.846c-1.564-0.752-2.883-1.792-3.915-3.037l-5.887,13.022c-0.268,0.592,0.031,1.039,0.172,1.203
			c0.14,0.164,0.537,0.528,1.163,0.354l4.286-1.193c0.488-0.136,0.982-0.201,1.468-0.201c2.054,0,3.987,1.163,4.918,3.089
			l1.936,4.005c0.282,0.585,0.813,0.644,1.033,0.64c0.216-0.003,0.749-0.073,1.017-0.666l9.364-20.713
			c-1.029,0.296-2.003,0.826-2.833,1.593C32.584,76.198,27.709,76.928,23.385,74.846z"/>
		<path d="M59.097,74.846c-4.324,2.082-9.199,1.352-12.724-1.904c-0.83-0.767-1.804-1.297-2.833-1.593l9.364,20.713
			c0.268,0.593,0.801,0.663,1.018,0.666c0.221,0.004,0.751-0.054,1.033-0.64l1.936-4.005c0.284-0.589,0.672-1.087,1.123-1.511
			l3.248-13.168C60.596,73.941,59.906,74.457,59.097,74.846z"/>
		<path d="M56.904,70.942c0.65-0.312,1.296-0.768,1.884-1.332c-1.736-2.856-2.741-6.16-2.741-9.691c0-1.383,0.161-2.73,0.45-4.032
			c-4.087,3.569-9.415,5.749-15.254,5.749C28.426,61.636,18,51.21,18,38.395s10.426-23.242,23.242-23.242
			c12.815,0,23.241,10.427,23.241,23.242c0,2.278-0.343,4.475-0.958,6.557c3.2-2.538,7.185-4.149,11.583-4.46
			c-0.426-0.532-0.936-1.038-1.583-1.481c-4.89-3.348-6.407-9.995-3.454-15.133c1.774-3.089,0.851-6.141-0.605-7.967
			c-1.457-1.826-4.227-3.405-7.633-2.363c-5.665,1.735-11.809-1.223-13.985-6.735c-1.308-3.314-4.27-4.495-6.605-4.495
			c-2.336,0-5.298,1.181-6.607,4.495c-2.175,5.512-8.318,8.47-13.984,6.735c-3.406-1.042-6.177,0.537-7.633,2.363
			c-1.456,1.826-2.38,4.878-0.605,7.967c2.953,5.138,1.436,11.785-3.454,15.133c-2.94,2.013-3.432,5.163-2.912,7.44
			c0.52,2.277,2.33,4.902,5.851,5.441c5.859,0.895,10.109,6.225,9.678,12.135c-0.259,3.553,1.898,5.902,4.002,6.915
			c2.104,1.014,5.285,1.236,7.901-1.183c2.176-2.01,4.969-3.016,7.762-3.016s5.585,1.005,7.761,3.016
			C51.619,72.177,54.799,71.956,56.904,70.942z"/>
		<path d="M41.241,19.487c-10.426,0-18.908,8.482-18.908,18.908c0,10.426,8.482,18.908,18.908,18.908
			c10.427,0,18.909-8.482,18.909-18.908C60.149,27.969,51.667,19.487,41.241,19.487z M50.931,36.561l-11.768,8.595
			c-0.374,0.273-0.822,0.417-1.279,0.417c-0.117,0-0.236-0.009-0.354-0.029c-0.573-0.094-1.085-0.416-1.42-0.892l-3.519-5.012
			c-0.688-0.98-0.452-2.331,0.528-3.019c0.979-0.687,2.331-0.452,3.018,0.528l2.251,3.206l9.985-7.293
			c0.967-0.705,2.322-0.495,3.028,0.472C52.108,34.5,51.897,35.856,50.931,36.561z"/>
	</g>
</g>
</svg>
