<?xml version="1.0" encoding="utf-8"?>
<!-- Generator: Adobe Illustrator 17.0.0, SVG Export Plug-In . SVG Version: 6.00 Build 0)  -->
<!DOCTYPE svg PUBLIC "-//W3C//DTD SVG 1.1//EN" "http://www.w3.org/Graphics/SVG/1.1/DTD/svg11.dtd">
<svg version="1.1" id="Слой_1" xmlns="http://www.w3.org/2000/svg" xmlns:xlink="http://www.w3.org/1999/xlink" x="0px" y="0px"
	 width="100px" height="100px" viewBox="0 0 100 100" enable-background="new 0 0 100 100" xml:space="preserve">
<g opacity="0.6">
	<polygon points="60.944,9.031 60.944,29.343 81.256,29.343 	"/>
	<path fill="#DC121F" d="M17.78,44.578c-6.998,0-12.695,5.698-12.695,12.695c0,3.611,1.534,6.86,3.961,9.171l-3.89,15.605
		c-0.239,0.96,0.107,1.975,0.879,2.6c0.772,0.62,1.838,0.726,2.722,0.289l9.024-4.514l9.019,4.514
		c0.361,0.173,0.752,0.264,1.137,0.264c0.564,0,1.127-0.188,1.589-0.554c0.772-0.625,1.117-1.635,0.879-2.6l-3.89-15.605
		c2.427-2.311,3.961-5.561,3.961-9.171C30.475,50.275,24.778,44.578,17.78,44.578z M17.78,64.89c-4.2,0-7.617-3.418-7.617-7.617
		s3.418-7.617,7.617-7.617s7.617,3.418,7.617,7.617S21.98,64.89,17.78,64.89z"/>
	<g>
		<path d="M81.322,48.258l-0.056-1.642h-0.01V34.422H60.944c-2.797,0-5.079-2.28-5.079-5.079V9.031H25.398
			c-2.799,0-5.079,2.28-5.079,5.078v25.649c8.592,1.245,15.234,8.582,15.234,17.514c0,3.839-1.218,7.486-3.472,10.517l3.076,12.335
			h8.559l-0.006,0.022l10.609,0.039c3.883,6.298,10.819,10.508,18.751,10.508c12.166,0,22.012-9.855,22.012-22.03
			C95.081,59.43,89.365,51.526,81.322,48.258z M33.014,29.343c-1.401,0-2.538-1.137-2.538-2.538c0-1.402,1.137-2.539,2.538-2.539
			h15.236c1.401,0,2.539,1.137,2.539,2.539c0,1.401-1.138,2.538-2.539,2.538H33.014z M35.553,42.039
			c0-1.401,1.138-2.539,2.539-2.539H68.56c1.403,0,2.539,1.138,2.539,2.539s-1.137,2.539-2.539,2.539H38.092
			C36.691,44.578,35.553,43.44,35.553,42.039z M43.171,59.812c-1.401,0-2.539-1.137-2.539-2.539c0-1.401,1.138-2.538,2.539-2.538
			h7.459l-1.383,5.078H43.171z M73.07,84.374c-4.112,0-7.844-1.594-10.649-4.178c-3.099-2.874-5.061-6.965-5.061-11.532
			c0-8.668,7.036-15.692,15.71-15.692c3.044,0,5.866,0.883,8.272,2.369c4.449,2.764,7.432,7.696,7.432,13.324
			C88.773,77.343,81.737,84.374,73.07,84.374z"/>
		<path d="M82.582,64.676h-5.627v-5.608c0-1.254-1.039-2.301-2.294-2.301h-2.339c-1.255,0-2.241,1.047-2.241,2.301v5.608h-5.76
			c-1.255,0-2.241,0.994-2.241,2.248v2.343c0,1.251,0.986,2.28,2.241,2.28h5.76v5.792c0,1.254,0.997,2.291,2.241,2.291h2.339
			c1.255,0,2.294-1.036,2.294-2.291v-5.792h5.627c1.254,0,2.289-1.028,2.289-2.28v-2.343C84.871,65.669,83.836,64.676,82.582,64.676
			z"/>
	</g>
</g>
</svg>
