<?xml version="1.0" encoding="utf-8"?>
<!-- Generator: Adobe Illustrator 17.0.0, SVG Export Plug-In . SVG Version: 6.00 Build 0)  -->
<!DOCTYPE svg PUBLIC "-//W3C//DTD SVG 1.1//EN" "http://www.w3.org/Graphics/SVG/1.1/DTD/svg11.dtd">
<svg version="1.1" id="Слой_1" xmlns="http://www.w3.org/2000/svg" xmlns:xlink="http://www.w3.org/1999/xlink" x="0px" y="0px"
	 width="40px" height="40px" viewBox="0 0 40 40" enable-background="new 0 0 40 40" xml:space="preserve">
<g display="none">
	<defs>
		<rect id="SVGID_1_" x="7.227" y="7.766" width="25.545" height="24.468"/>
	</defs>
	<clipPath id="SVGID_2_" display="inline">
		<use xlink:href="#SVGID_1_"  overflow="visible"/>
	</clipPath>
	<path display="inline" clip-path="url(#SVGID_2_)" fill="#555555" d="M25.554,16.904l3.771,1.385l-3.134,8.546
		c-0.296,0.803-1.888,3.317-2.996,3.828l-0.268,0.735c-0.072,0.187-0.248,0.301-0.434,0.301c-0.053,0-0.105-0.009-0.158-0.028
		c-0.24-0.086-0.358-0.349-0.273-0.587l0.253-0.699c-0.564-1.089-0.143-4.267,0.105-4.937L25.554,16.904z M31.012,7.861
		c-1.036-0.378-2.25,0.406-2.6,1.357l-2.269,6.189l3.771,1.386l2.269-6.194C32.47,9.826,32.054,8.244,31.012,7.861L31.012,7.861z
		 M24.188,16.583c0.105,0.038,0.215,0.057,0.321,0.057c0.373,0,0.727-0.23,0.86-0.602l2.399-6.467
		c0.177-0.477-0.067-1.008-0.544-1.179c-0.478-0.177-1.004,0.066-1.181,0.54l-2.399,6.471
		C23.466,15.876,23.711,16.406,24.188,16.583L24.188,16.583z M20.327,28.712c-0.248-0.234-0.554-0.526-1.056-0.75
		c-0.411-0.182-0.812-0.192-1.105-0.196c-0.028,0-0.061-0.005-0.1-0.005c-0.181-0.502-0.554-0.817-1.108-0.937
		c-0.735-0.158-1.329,0.191-1.735,0.459c0.038-0.206,0.095-0.449,0.138-0.626c0.144-0.569,0.288-1.156,0.182-1.705
		c-0.086-0.436-0.454-0.755-0.899-0.789c-1.137-0.062-2.069,0.549-2.891,1.105c-0.86,0.582-1.414,0.931-1.964,0.735
		c-0.674-0.239-0.741-2.059-0.416-3.675c0.286-1.462,0.827-4.177,2.203-5.41c0.464-0.415,1.132-0.865,1.687-0.645
		c0.65,0.253,1.184,1.324,1.304,2.595c0.048,0.541,0.516,0.932,1.066,0.885c0.536-0.048,0.932-0.526,0.885-1.066
		c-0.196-2.075-1.171-3.7-2.537-4.234c-0.822-0.321-2.132-0.406-3.714,1.008c-1.72,1.544-2.355,4.157-2.819,6.485
		c-0.23,1.161-0.794,5.022,1.682,5.902c1.51,0.535,2.733-0.291,3.718-0.955c0.176-0.125,0.354-0.243,0.525-0.349
		c-0.162,0.712-0.262,1.467,0.168,2.107c0.636,0.965,1.539,1.066,2.682,0.316c0.043-0.028,0.095-0.062,0.143-0.095
		c0.105,0.225,0.291,0.469,0.63,0.631c0.411,0.206,0.822,0.214,1.123,0.219c0.13,0.005,0.306,0.01,0.358,0.034
		c0.182,0.081,0.292,0.176,0.502,0.377c0.158,0.153,0.325,0.306,0.541,0.469c0.176,0.128,0.382,0.196,0.582,0.196
		c0.297,0,0.593-0.138,0.784-0.392c0.325-0.436,0.239-1.047-0.196-1.371C20.547,28.922,20.437,28.812,20.327,28.712L20.327,28.712z
		 M20.327,28.712"/>
</g>
<g display="none">
	<g display="inline">
		<path fill="#555555" d="M28.308,17.216h-0.491v-2.297c0-4.249-3.372-7.799-7.587-7.874c-0.115-0.002-0.345-0.002-0.46,0
			c-4.215,0.076-7.587,3.625-7.587,7.874v2.297h-0.491c-0.756,0-1.373,0.781-1.373,1.745v11.523c0,0.963,0.617,1.751,1.373,1.751
			h16.615c0.756,0,1.373-0.788,1.373-1.751V18.961C29.681,17.997,29.064,17.216,28.308,17.216L28.308,17.216z M21.557,24.711v3.482
			c0,0.399-0.334,0.736-0.733,0.736h-1.647c-0.399,0-0.733-0.337-0.733-0.736v-3.482c-0.387-0.381-0.612-0.908-0.612-1.49
			c0-1.104,0.853-2.053,1.939-2.097c0.115-0.005,0.345-0.005,0.46,0c1.085,0.044,1.939,0.993,1.939,2.097
			C22.169,23.803,21.944,24.329,21.557,24.711L21.557,24.711z M24.581,17.216h-9.163v-2.297c0-2.531,2.057-4.624,4.581-4.624
			c2.524,0,4.581,2.093,4.581,4.624V17.216z M24.581,17.216"/>
	</g>
</g>
<g display="none">
	<rect x="13.362" y="14.552" display="inline" fill="#555555" width="3.264" height="15.778"/>
	<path display="inline" fill="#555555" d="M21.524,21.225v-6.673h-3.264V30.33h2.403c-0.808-1.146-1.284-2.543-1.284-4.05
		C19.378,24.298,20.202,22.506,21.524,21.225L21.524,21.225z M21.524,21.225"/>
	<path display="inline" fill="#555555" d="M26.42,19.238v-4.687h-3.264v5.491C24.132,19.529,25.243,19.238,26.42,19.238
		L26.42,19.238z M26.42,19.238"/>
	<path display="inline" fill="#555555" d="M27.508,9.655h-4.537V7.587h-6.161v2.067h-4.537v3.264h15.234V9.655z M18.443,9.22h2.896
		v0.435h-2.896V9.22z M18.443,9.22"/>
	<path display="inline" fill="#555555" d="M26.42,20.871c-2.983,0-5.41,2.427-5.41,5.41c0,2.983,2.427,5.41,5.41,5.41
		s5.41-2.427,5.41-5.41C31.83,23.297,29.403,20.871,26.42,20.871L26.42,20.871z M29.368,28.074l-1.154,1.154l-1.793-1.793
		l-1.793,1.793l-1.154-1.154l1.793-1.794l-1.793-1.793l1.154-1.154l1.793,1.793l1.793-1.793l1.154,1.154l-1.793,1.793L29.368,28.074
		z M29.368,28.074"/>
</g>
<g display="none">
	<path display="inline" fill="#555555" d="M36.8,19.608c-0.294-0.328-7.369-8.045-16.231-8.045S4.631,19.28,4.337,19.608
		c-0.328,0.367-0.328,0.921,0,1.288c0.294,0.328,7.369,8.045,16.231,8.045s15.937-7.717,16.231-8.045
		C37.128,20.53,37.128,19.975,36.8,19.608z M27.327,20.252c0,3.726-3.032,6.758-6.758,6.758s-6.758-3.032-6.758-6.758
		s3.032-6.758,6.758-6.758S27.327,16.526,27.327,20.252z"/>
	<path display="inline" fill="#555555" d="M21.534,18.321c0-0.971,0.482-1.826,1.216-2.351c-0.658-0.337-1.392-0.545-2.181-0.545
		c-2.662,0-4.827,2.166-4.827,4.827s2.166,4.827,4.827,4.827c2.383,0,4.355-1.74,4.745-4.014
		C23.369,21.692,21.534,20.222,21.534,18.321z"/>
</g>
<g display="none">
	<path display="inline" fill="none" stroke="#555555" stroke-width="2.2903" stroke-miterlimit="10" d="M25.006,36.768H6.791V1.723
		h27.771v25.022c-1.388-1.206-1.073-0.877-2.724-1.253c-1.886-0.429-4.681,0.208-6.012,1.575c-1.813,1.861-2.191,3.952-2.147,5.379
		C23.736,34.319,25.006,36.768,25.006,36.768z"/>
	<path display="inline" fill="#555555" d="M30.528,23.918c-4.631,0-8.385,3.604-8.385,8.05s3.754,8.05,8.385,8.05
		s8.385-3.604,8.385-8.05S35.159,23.918,30.528,23.918z M30.53,37.445c-1.434,0-2.736-0.556-3.715-1.457
		c-1.081-1.003-1.765-2.43-1.765-4.022c0-3.024,2.454-5.474,5.48-5.474c1.061,0,2.045,0.308,2.885,0.826
		c1.552,0.964,2.592,2.684,2.592,4.648C36.006,34.992,33.552,37.445,30.53,37.445z M33.704,30.74h-1.963v-1.956
		c0-0.437-0.362-0.802-0.8-0.802h-0.816c-0.437,0-0.781,0.365-0.781,0.802v1.956h-2.009c-0.437,0-0.781,0.347-0.781,0.784v0.817
		c0,0.437,0.344,0.795,0.781,0.795h2.009v2.02c0,0.437,0.348,0.799,0.781,0.799h0.816c0.437,0,0.8-0.361,0.8-0.799v-2.02h1.963
		c0.437,0,0.799-0.359,0.799-0.795v-0.817C34.502,31.086,34.141,30.74,33.704,30.74L33.704,30.74z M33.704,30.74"/>
	<rect x="10.536" y="11.802" display="inline" fill="#5C5C60" width="20.66" height="2.085"/>
	<rect x="10.536" y="16.699" display="inline" fill="#5C5C60" width="14.597" height="2.085"/>
	<g display="inline">
		<g>
			<g>
				<defs>
					<rect id="SVGID_3_" x="10.841" y="21" width="9.344" height="11.445"/>
				</defs>
				<clipPath id="SVGID_4_">
					<use xlink:href="#SVGID_3_"  overflow="visible"/>
				</clipPath>
			</g>
			<g>
				<path fill-rule="evenodd" clip-rule="evenodd" fill="#64656A" d="M19.829,25.911c0-0.401,0.502-0.923,0.308-1.548
					c-0.188-0.604-0.89-0.705-1.103-0.998c-0.237-0.326-0.137-1.044-0.661-1.434c-0.508-0.379-1.136-0.047-1.48-0.159
					c-0.384-0.125-0.723-0.763-1.378-0.771c-0.634-0.008-0.946,0.628-1.291,0.74c-0.381,0.124-1.031-0.193-1.567,0.186
					c-0.518,0.367-0.395,1.062-0.61,1.357c-0.239,0.328-0.95,0.454-1.159,1.071c-0.203,0.6,0.305,1.092,0.305,1.457
					c0,0.401-0.502,0.923-0.308,1.548c0.188,0.604,0.89,0.705,1.103,0.998c0.237,0.326,0.137,1.044,0.661,1.434
					c0.508,0.379,1.136,0.048,1.48,0.159c0.384,0.125,0.723,0.763,1.378,0.771c0.634,0.008,0.946-0.628,1.291-0.74
					c0.381-0.124,1.031,0.193,1.567-0.186c0.518-0.367,0.395-1.062,0.61-1.357c0.239-0.328,0.95-0.454,1.159-1.071
					C20.338,26.767,19.829,26.276,19.829,25.911L19.829,25.911z M15.512,29.722"/>
			</g>
		</g>
		<path fill="#5C5C60" d="M12.428,30.05l-1.942,3.073l1.846-0.16l1.23,1.878l1.448-3.558L12.428,30.05z"/>
		<path fill="#5C5C60" d="M18.661,30.05l1.942,3.073l-1.846-0.16l-1.23,1.878l-1.448-3.558L18.661,30.05z"/>
	</g>
	<g display="inline">
		<path fill="#5C5C60" d="M14.456,7.345l0.003,0.01c0.004,0.235-0.072,0.426-0.229,0.573c-0.157,0.147-0.369,0.221-0.637,0.221
			c-0.271,0-0.491-0.091-0.661-0.273s-0.254-0.415-0.254-0.699V6.734c0-0.283,0.084-0.516,0.251-0.699
			c0.167-0.183,0.385-0.275,0.653-0.275c0.274,0,0.49,0.072,0.648,0.216c0.158,0.144,0.235,0.338,0.23,0.581l-0.003,0.01h-0.375
			c0-0.156-0.042-0.278-0.127-0.365c-0.084-0.087-0.209-0.131-0.374-0.131c-0.158,0-0.284,0.063-0.377,0.188
			c-0.093,0.125-0.139,0.282-0.139,0.471v0.444c0,0.191,0.048,0.349,0.143,0.475c0.095,0.125,0.223,0.188,0.385,0.188
			c0.16,0,0.282-0.043,0.365-0.129c0.083-0.086,0.124-0.207,0.124-0.364H14.456z"/>
		<path fill="#5C5C60" d="M15.561,8.148c-0.244,0-0.439-0.08-0.584-0.24c-0.145-0.16-0.218-0.365-0.218-0.616V7.228
			c0-0.251,0.072-0.459,0.216-0.624c0.144-0.165,0.324-0.247,0.541-0.246c0.233,0,0.411,0.07,0.535,0.211
			c0.124,0.141,0.186,0.33,0.186,0.567v0.228h-1.076l-0.003,0.008c0.006,0.137,0.046,0.248,0.12,0.335s0.176,0.13,0.307,0.13
			c0.104,0,0.193-0.013,0.268-0.038c0.074-0.025,0.146-0.062,0.215-0.11l0.124,0.254C16.127,8,16.041,8.049,15.934,8.089
			C15.826,8.128,15.702,8.148,15.561,8.148z M15.516,6.669c-0.096,0-0.174,0.038-0.236,0.114c-0.062,0.076-0.1,0.172-0.115,0.289
			l0.003,0.008h0.684V7.04c0-0.109-0.028-0.199-0.084-0.268C15.713,6.703,15.629,6.669,15.516,6.669z"/>
		<path fill="#5C5C60" d="M17.448,6.739l-0.166-0.006c-0.075,0-0.138,0.016-0.189,0.048c-0.05,0.032-0.09,0.077-0.117,0.135v1.198
			h-0.387V6.39h0.354l0.025,0.25c0.044-0.088,0.1-0.157,0.168-0.207c0.069-0.05,0.147-0.075,0.237-0.075
			c0.023,0,0.045,0.002,0.065,0.006c0.02,0.004,0.039,0.008,0.056,0.014L17.448,6.739z"/>
		<path fill="#5C5C60" d="M18.32,5.971V6.39h0.309v0.287H18.32V7.63c0,0.071,0.015,0.122,0.046,0.152
			c0.031,0.03,0.072,0.045,0.123,0.045c0.021,0,0.042-0.002,0.062-0.006c0.02-0.004,0.039-0.009,0.057-0.015L18.65,8.09
			c-0.033,0.018-0.072,0.032-0.118,0.042c-0.046,0.01-0.093,0.015-0.142,0.015c-0.142,0-0.254-0.042-0.335-0.125
			c-0.081-0.083-0.121-0.214-0.121-0.393V6.677h-0.263V6.39h0.263V5.971H18.32z"/>
		<path fill="#5C5C60" d="M19.361,5.968h-0.387V5.628h0.387V5.968z M19.361,8.114h-0.387V6.39h0.387V8.114z"/>
		<path fill="#5C5C60" d="M19.92,8.114V6.677h-0.263V6.39h0.263V6.189c0-0.19,0.052-0.337,0.155-0.44s0.249-0.155,0.436-0.155
			c0.037,0,0.075,0.003,0.113,0.009c0.038,0.006,0.081,0.014,0.129,0.025l-0.04,0.3c-0.021-0.004-0.045-0.008-0.071-0.011
			c-0.026-0.003-0.054-0.005-0.084-0.005c-0.084,0-0.147,0.024-0.189,0.072c-0.042,0.048-0.063,0.116-0.063,0.206V6.39h0.351v0.287
			h-0.351v1.438H19.92z"/>
		<path fill="#5C5C60" d="M21.396,5.968h-0.387V5.628h0.387V5.968z M21.396,8.114h-0.387V6.39h0.387V8.114z"/>
		<path fill="#5C5C60" d="M22.556,7.837c0.095,0,0.174-0.028,0.239-0.083c0.065-0.056,0.097-0.125,0.097-0.209h0.351l0.003,0.01
			c0.005,0.161-0.06,0.301-0.197,0.418s-0.301,0.175-0.493,0.175c-0.254,0-0.449-0.082-0.584-0.245s-0.203-0.371-0.203-0.622V7.225
			c0-0.25,0.068-0.457,0.203-0.621s0.33-0.246,0.584-0.246c0.207,0,0.375,0.06,0.504,0.181s0.192,0.274,0.187,0.46l-0.003,0.01
			h-0.352c0-0.095-0.031-0.175-0.093-0.241c-0.062-0.066-0.143-0.099-0.243-0.099c-0.146,0-0.249,0.053-0.309,0.158
			c-0.061,0.106-0.091,0.238-0.091,0.397V7.28c0,0.162,0.03,0.296,0.091,0.4C22.307,7.785,22.411,7.837,22.556,7.837z"/>
		<path fill="#5C5C60" d="M24.624,8.114c-0.014-0.044-0.025-0.086-0.034-0.127s-0.015-0.083-0.018-0.124
			c-0.053,0.081-0.123,0.148-0.21,0.203c-0.087,0.055-0.184,0.082-0.291,0.082c-0.18,0-0.317-0.046-0.414-0.139
			c-0.096-0.092-0.144-0.219-0.144-0.381c0-0.167,0.066-0.297,0.198-0.39c0.132-0.093,0.317-0.139,0.556-0.139h0.301V6.948
			c0-0.09-0.027-0.161-0.08-0.212c-0.053-0.051-0.129-0.076-0.228-0.076c-0.088,0-0.158,0.021-0.21,0.064s-0.078,0.097-0.078,0.164
			H23.6l-0.002-0.01c-0.007-0.136,0.053-0.257,0.182-0.362c0.129-0.105,0.297-0.158,0.504-0.158c0.201,0,0.363,0.051,0.486,0.153
			c0.123,0.102,0.185,0.249,0.185,0.44v0.767c0,0.071,0.005,0.139,0.014,0.205c0.01,0.065,0.025,0.129,0.046,0.192H24.624z
			 M24.15,7.837c0.098,0,0.186-0.024,0.264-0.073c0.078-0.049,0.13-0.105,0.155-0.167V7.341h-0.308
			c-0.113,0-0.201,0.028-0.265,0.084c-0.064,0.056-0.096,0.121-0.096,0.197c0,0.066,0.022,0.118,0.065,0.157
			S24.07,7.837,24.15,7.837z"/>
		<path fill="#5C5C60" d="M25.853,5.971V6.39h0.309v0.287h-0.309V7.63c0,0.071,0.015,0.122,0.046,0.152
			c0.031,0.03,0.072,0.045,0.123,0.045c0.021,0,0.042-0.002,0.062-0.006c0.02-0.004,0.039-0.009,0.057-0.015l0.041,0.284
			c-0.033,0.018-0.072,0.032-0.118,0.042c-0.046,0.01-0.093,0.015-0.142,0.015c-0.142,0-0.254-0.042-0.335-0.125
			c-0.081-0.083-0.121-0.214-0.121-0.393V6.677h-0.263V6.39h0.263V5.971H25.853z"/>
		<path fill="#5C5C60" d="M27.189,8.148c-0.244,0-0.439-0.08-0.584-0.24c-0.145-0.16-0.218-0.365-0.218-0.616V7.228
			c0-0.251,0.072-0.459,0.216-0.624c0.144-0.165,0.324-0.247,0.541-0.246c0.233,0,0.411,0.07,0.535,0.211
			c0.124,0.141,0.186,0.33,0.186,0.567v0.228h-1.076l-0.003,0.008c0.006,0.137,0.046,0.248,0.12,0.335s0.176,0.13,0.307,0.13
			c0.104,0,0.193-0.013,0.268-0.038c0.074-0.025,0.146-0.062,0.215-0.11l0.124,0.254C27.756,8,27.67,8.049,27.562,8.089
			C27.455,8.128,27.331,8.148,27.189,8.148z M27.145,6.669c-0.096,0-0.174,0.038-0.236,0.114c-0.062,0.076-0.1,0.172-0.115,0.289
			l0.003,0.008h0.684V7.04c0-0.109-0.028-0.199-0.084-0.268C27.342,6.703,27.257,6.669,27.145,6.669z"/>
	</g>
</g>
<path display="none" fill="#555555" d="M20.623,7.864c-7.115,0-12.883,5.538-12.883,12.368S13.509,32.6,20.623,32.6
	s12.882-5.538,12.882-12.368S27.738,7.864,20.623,7.864z M20.626,28.646c-2.204,0-4.203-0.854-5.708-2.239
	c-1.661-1.54-2.712-3.733-2.712-6.179c0-4.646,3.77-8.41,8.42-8.41c1.631,0,3.142,0.473,4.432,1.27
	c2.384,1.481,3.983,4.124,3.983,7.141C29.04,24.878,25.27,28.646,20.626,28.646z M25.502,18.345h-3.015v-3.005
	c0-0.672-0.557-1.233-1.229-1.233h-1.254c-0.672,0-1.2,0.561-1.2,1.233v3.005h-3.087c-0.672,0-1.201,0.533-1.201,1.205v1.255
	c0,0.671,0.528,1.222,1.201,1.222h3.087v3.104c0,0.672,0.534,1.227,1.2,1.227h1.254c0.672,0,1.229-0.555,1.229-1.227v-3.104h3.015
	c0.672,0,1.227-0.551,1.227-1.222v-1.255C26.73,18.877,26.174,18.345,25.502,18.345L25.502,18.345z M25.502,18.345"/>
<g display="none">
	<g display="inline">
		<defs>
			<rect id="SVGID_5_" x="5.35" y="6.339" width="29.628" height="28.379"/>
		</defs>
		<clipPath id="SVGID_6_">
			<use xlink:href="#SVGID_5_"  overflow="visible"/>
		</clipPath>
		<path clip-path="url(#SVGID_6_)" fill="#555555" d="M20.543,30.633c-0.288-0.271-0.643-0.61-1.225-0.87
			c-0.477-0.211-0.942-0.223-1.281-0.227c-0.033,0-0.071-0.006-0.116-0.006c-0.21-0.582-0.643-0.948-1.286-1.087
			c-0.853-0.183-1.541,0.221-2.012,0.532c0.044-0.238,0.111-0.521,0.16-0.727c0.167-0.66,0.333-1.341,0.211-1.978
			c-0.099-0.505-0.526-0.876-1.043-0.915c-1.318-0.072-2.399,0.637-3.353,1.281c-0.998,0.675-1.64,1.08-2.277,0.853
			c-0.782-0.277-0.86-2.388-0.482-4.263c0.332-1.696,0.959-4.844,2.556-6.275c0.538-0.481,1.313-1.003,1.957-0.748
			c0.753,0.294,1.374,1.535,1.513,3.01c0.055,0.627,0.599,1.081,1.236,1.026c0.622-0.055,1.081-0.61,1.026-1.236
			c-0.227-2.407-1.358-4.291-2.943-4.911c-0.954-0.372-2.473-0.471-4.308,1.169c-1.995,1.791-2.731,4.822-3.269,7.522
			c-0.267,1.347-0.921,5.825,1.951,6.845c1.751,0.62,3.17-0.338,4.312-1.108c0.204-0.145,0.41-0.282,0.609-0.404
			c-0.187,0.826-0.304,1.701,0.194,2.443c0.738,1.12,1.785,1.236,3.11,0.366c0.05-0.033,0.111-0.072,0.166-0.111
			c0.122,0.261,0.338,0.543,0.731,0.732c0.477,0.238,0.953,0.248,1.303,0.254c0.15,0.006,0.355,0.011,0.416,0.04
			c0.211,0.094,0.339,0.204,0.582,0.437c0.183,0.177,0.377,0.355,0.627,0.543c0.204,0.149,0.443,0.227,0.675,0.227
			c0.345,0,0.688-0.16,0.91-0.454c0.377-0.505,0.277-1.215-0.227-1.591C20.798,30.877,20.67,30.749,20.543,30.633L20.543,30.633z
			 M20.543,30.633"/>
	</g>
	<g display="inline">
		<path fill="#555555" d="M33.931,16.311c-0.045-0.022-0.089-0.033-0.134-0.033c-0.096,0-0.181,0.037-0.255,0.111l-0.71,0.709
			c-0.067,0.067-0.1,0.148-0.1,0.244v2.817c0,0.489-0.174,0.906-0.521,1.254c-0.348,0.348-0.766,0.521-1.254,0.521h-9.23
			c-0.488,0-0.906-0.174-1.253-0.521c-0.348-0.348-0.521-0.765-0.521-1.254v-9.229c0-0.488,0.173-0.906,0.521-1.253
			c0.348-0.348,0.765-0.522,1.253-0.522h9.23c0.163,0,0.329,0.023,0.499,0.067c0.044,0.015,0.078,0.022,0.1,0.022
			c0.096,0,0.181-0.037,0.255-0.111l0.543-0.543c0.089-0.089,0.122-0.196,0.1-0.322c-0.022-0.118-0.089-0.203-0.199-0.255
			c-0.4-0.185-0.832-0.277-1.298-0.277h-9.23c-0.88,0-1.632,0.312-2.257,0.937c-0.625,0.625-0.937,1.378-0.937,2.258v9.229
			c0,0.88,0.312,1.633,0.937,2.258c0.625,0.625,1.378,0.937,2.257,0.937h9.23c0.88,0,1.633-0.312,2.258-0.937
			c0.625-0.625,0.937-1.378,0.937-2.258v-3.527C34.153,16.478,34.078,16.371,33.931,16.311L33.931,16.311z M33.931,16.311"/>
		<path fill="#555555" d="M36.715,9.944l-1.22-1.22c-0.178-0.178-0.389-0.267-0.633-0.267c-0.244,0-0.455,0.089-0.632,0.267
			l-7.177,7.177l-2.917-2.918c-0.178-0.178-0.388-0.266-0.632-0.266c-0.244,0-0.455,0.088-0.632,0.266l-1.22,1.221
			c-0.178,0.178-0.267,0.388-0.267,0.632c0,0.244,0.089,0.455,0.267,0.632l4.769,4.77c0.178,0.178,0.389,0.266,0.633,0.266
			c0.244,0,0.455-0.088,0.632-0.266l9.03-9.029c0.178-0.178,0.267-0.388,0.267-0.632C36.982,10.333,36.892,10.121,36.715,9.944
			L36.715,9.944z M36.715,9.944"/>
	</g>
</g>
<g display="none">
	<g display="inline">
		<path fill="#555555" d="M28.951,20.904c0.039-0.654,0.072-1.198,0.094-1.571c0.006-0.095-0.059-0.179-0.156-0.202
			c-0.387-0.094-0.783-0.22-1.183-0.378c-0.397-0.157-0.768-0.336-1.109-0.53c-0.086-0.049-0.194-0.034-0.262,0.036l-1.124,1.165
			c-0.084,0.086-0.076,0.223,0.022,0.294c0.445,0.326,0.996,0.636,1.646,0.894c0.652,0.259,1.275,0.414,1.835,0.485
			C28.836,21.113,28.945,21.021,28.951,20.904z"/>
		<path fill="#555555" d="M28.86,22.436l0.019-0.324c0.006-0.108-0.074-0.196-0.186-0.208c-0.675-0.075-1.405-0.254-2.145-0.547
			c-0.738-0.293-1.383-0.658-1.911-1.059c-0.088-0.066-0.211-0.058-0.288,0.021l-0.233,0.241c-0.077,0.08-0.078,0.204,0.004,0.279
			c0.496,0.456,1.205,0.908,2.097,1.262c0.894,0.355,1.735,0.516,2.429,0.53C28.76,22.632,28.853,22.544,28.86,22.436z"/>
		<path fill="#555555" d="M28.929,18.077l4.012-9.016c0.192-0.432-0.013-0.948-0.476-1.109c-0.441-0.153-0.887,0.03-1.073,0.449
			l-4.029,9.057c-0.039,0.088-0.011,0.192,0.073,0.245c0.18,0.114,0.381,0.218,0.601,0.306c0.222,0.088,0.442,0.15,0.657,0.192
			C28.791,18.219,28.89,18.165,28.929,18.077z"/>
		<path fill="#555555" d="M28.364,30.687c0-0.001,0.225-3.756,0.423-7.048c0.007-0.114-0.086-0.206-0.206-0.209
			c-0.818-0.021-1.749-0.212-2.694-0.587c-0.943-0.374-1.738-0.867-2.326-1.402c-0.087-0.079-0.222-0.076-0.303,0.008l-5.028,5.212
			c-0.033,0.034-0.059,0.073-0.078,0.116c-0.341,0.767,0.722,1.599,1.853,2.048c0.148,0.059,0.319,0.033,0.442-0.067l0.076-0.062
			l0.002,0.026c-0.106,0.508,0.575,0.976,1.283,1.255c0.127,0.05,0.274,0.032,0.389-0.04l0.748-0.47l0.168,0.833
			c0.026,0.128,0.115,0.24,0.242,0.291c0.707,0.282,1.538,0.413,1.847-0.013l0.021-0.017l0.006,0.095
			c0.01,0.152,0.111,0.286,0.259,0.345c1.115,0.442,2.464,0.577,2.829-0.154C28.319,30.84,28.361,30.731,28.364,30.687z"/>
	</g>
	<g display="inline">
		<g>
			<defs>
				<rect id="SVGID_7_" x="7.849" y="5.363" width="31.554" height="28.534"/>
			</defs>
			<clipPath id="SVGID_8_">
				<use xlink:href="#SVGID_7_"  overflow="visible"/>
			</clipPath>
			<path clip-path="url(#SVGID_8_)" fill="#555555" d="M18.121,25.404c-0.106-0.508-0.561-0.88-1.111-0.92
				c-1.404-0.073-2.555,0.641-3.571,1.288c-1.062,0.679-1.747,1.086-2.425,0.857c-0.833-0.278-0.916-2.401-0.514-4.286
				c0.354-1.705,1.022-4.871,2.722-6.309c0.573-0.484,1.398-1.009,2.084-0.752c0.802,0.295,1.463,1.544,1.611,3.026
				c0.059,0.631,0.638,1.087,1.316,1.031c0.662-0.056,1.152-0.613,1.093-1.243c-0.242-2.42-1.446-4.314-3.134-4.938
				c-1.016-0.374-2.634-0.474-4.588,1.176c-2.125,1.8-2.909,4.848-3.482,7.563c-0.284,1.354-0.981,5.857,2.078,6.882
				c1.865,0.623,3.376-0.34,4.593-1.114c0.218-0.146,0.437-0.284,0.648-0.407C15.241,28.09,18.251,26.044,18.121,25.404z
				 M24.03,29.789"/>
		</g>
	</g>
</g>
<g display="none">
	<g display="inline">
		<defs>
			<rect id="SVGID_9_" x="5.293" y="6.317" width="29.309" height="28.074"/>
		</defs>
		<clipPath id="SVGID_10_">
			<use xlink:href="#SVGID_9_"  overflow="visible"/>
		</clipPath>
		<path clip-path="url(#SVGID_10_)" fill="#555555" d="M20.323,30.35c-0.285-0.268-0.636-0.604-1.211-0.86
			c-0.472-0.209-0.932-0.22-1.268-0.225c-0.032,0-0.07-0.006-0.115-0.006c-0.208-0.576-0.636-0.938-1.272-1.075
			c-0.844-0.181-1.524,0.219-1.99,0.526c0.044-0.236,0.11-0.515,0.159-0.719c0.166-0.653,0.33-1.326,0.209-1.957
			c-0.098-0.5-0.521-0.866-1.032-0.905c-1.304-0.072-2.374,0.63-3.317,1.268c-0.987,0.668-1.623,1.068-2.253,0.844
			c-0.773-0.274-0.851-2.362-0.477-4.217c0.328-1.677,0.949-4.792,2.528-6.207c0.532-0.476,1.298-0.992,1.936-0.74
			c0.745,0.291,1.359,1.519,1.496,2.977c0.055,0.62,0.592,1.07,1.223,1.015c0.615-0.055,1.07-0.604,1.015-1.223
			c-0.225-2.381-1.343-4.245-2.911-4.858c-0.943-0.368-2.447-0.466-4.262,1.157c-1.974,1.771-2.702,4.77-3.234,7.441
			c-0.264,1.332-0.911,5.762,1.93,6.771c1.732,0.613,3.136-0.334,4.266-1.096c0.202-0.143,0.406-0.279,0.602-0.4
			c-0.185,0.817-0.3,1.683,0.192,2.417c0.73,1.108,1.766,1.223,3.077,0.362c0.049-0.032,0.109-0.072,0.164-0.109
			c0.121,0.258,0.334,0.538,0.723,0.724c0.472,0.236,0.943,0.246,1.289,0.251c0.149,0.006,0.351,0.011,0.411,0.039
			c0.209,0.093,0.336,0.202,0.576,0.432c0.181,0.175,0.373,0.351,0.62,0.538c0.202,0.147,0.438,0.225,0.668,0.225
			c0.341,0,0.681-0.159,0.9-0.449c0.373-0.5,0.274-1.202-0.225-1.574C20.576,30.591,20.449,30.465,20.323,30.35L20.323,30.35z
			 M20.323,30.35"/>
	</g>
	<g display="inline">
		<path fill="#555555" d="M28.299,11.623c0,0.468-0.379,0.847-0.847,0.847s-0.847-0.379-0.847-0.847
			c0-0.468,0.379-0.847,0.847-0.847S28.299,11.155,28.299,11.623"/>
		<path fill="#555555" d="M25.18,22.633h0.008H25.18z M22.371,9.082c-0.934,0-1.694,0.76-1.694,1.694v8.469
			c0,0.934,0.76,1.694,1.694,1.694h2.809c0.786,0,1.425,0.639,1.425,1.425l0.003,3.179l3.41-4.128
			c0.322-0.328,0.68-0.477,1.062-0.477h1.454c0.933,0,1.694-0.76,1.694-1.694v-8.469c0-0.934-0.761-1.694-1.694-1.694H22.371z
			 M26.609,26.288h0.008H26.609z M26.327,27.712c-0.18,0-0.36-0.036-0.532-0.107c-0.535-0.222-0.88-0.739-0.88-1.317l-0.003-3.655
			h-2.541c-1.868,0-3.388-1.519-3.388-3.388v-8.469c0-1.868,1.519-3.388,3.388-3.388h10.163c1.868,0,3.388,1.519,3.388,3.388v8.469
			c0,1.868-1.519,3.388-3.388,3.388h-1.33l-3.804,4.604C27.087,27.555,26.706,27.712,26.327,27.712L26.327,27.712z"/>
		<path fill="#555555" d="M27.452,19.245c-0.468,0-0.847-0.379-0.847-0.847v-4.235c0-0.468,0.379-0.847,0.847-0.847
			c0.468,0,0.847,0.379,0.847,0.847v4.235C28.299,18.866,27.92,19.245,27.452,19.245"/>
		<path fill="#555555" d="M29.146,19.245h-3.388c-0.468,0-0.847-0.379-0.847-0.847s0.379-0.847,0.847-0.847h3.388
			c0.468,0,0.847,0.379,0.847,0.847S29.614,19.245,29.146,19.245"/>
		<path fill="#555555" d="M27.452,15.011h-0.847c-0.468,0-0.847-0.379-0.847-0.847c0-0.468,0.379-0.847,0.847-0.847h0.847
			c0.468,0,0.847,0.379,0.847,0.847C28.299,14.631,27.92,15.011,27.452,15.011"/>
	</g>
</g>
<g display="none">
	<polygon display="inline" fill="#555555" points="24.76,6.885 24.76,13.258 31.133,13.258 	"/>
	<path display="inline" fill="#555555" d="M11.216,18.038c-2.196,0-3.983,1.788-3.983,3.983c0,1.133,0.481,2.153,1.243,2.878
		l-1.22,4.896c-0.075,0.301,0.033,0.62,0.276,0.816c0.242,0.194,0.577,0.228,0.854,0.091l2.831-1.416l2.83,1.416
		c0.113,0.054,0.236,0.083,0.357,0.083c0.177,0,0.354-0.059,0.499-0.174c0.242-0.196,0.351-0.513,0.276-0.816l-1.22-4.896
		c0.762-0.725,1.243-1.745,1.243-2.878C15.2,19.826,13.412,18.038,11.216,18.038z M11.216,24.411c-1.318,0-2.39-1.072-2.39-2.39
		s1.072-2.39,2.39-2.39s2.39,1.072,2.39,2.39S12.534,24.411,11.216,24.411z"/>
	<g display="inline">
		<path fill="#555555" d="M31.154,19.193l-0.018-0.515h-0.003v-3.826H24.76c-0.878,0-1.593-0.716-1.593-1.593V6.885h-9.56
			c-0.878,0-1.593,0.715-1.593,1.593v8.048c2.696,0.391,4.78,2.693,4.78,5.495c0,1.205-0.382,2.349-1.089,3.3l0.965,3.87h2.685
			l-0.002,0.007l3.329,0.012c1.218,1.976,3.395,3.297,5.883,3.297c3.817,0,6.907-3.092,6.907-6.912
			C35.471,22.698,33.677,20.218,31.154,19.193z M15.996,13.258c-0.44,0-0.796-0.357-0.796-0.796c0-0.44,0.357-0.797,0.796-0.797
			h4.78c0.44,0,0.797,0.357,0.797,0.797c0,0.44-0.357,0.796-0.797,0.796H15.996z M16.793,17.241c0-0.44,0.357-0.797,0.797-0.797
			h9.56c0.44,0,0.797,0.357,0.797,0.797c0,0.44-0.357,0.797-0.797,0.797h-9.56C17.15,18.038,16.793,17.681,16.793,17.241z
			 M19.183,22.818c-0.44,0-0.797-0.357-0.797-0.797c0-0.44,0.357-0.796,0.797-0.796h2.34l-0.434,1.593H19.183z M28.564,30.525
			c-1.29,0-2.461-0.5-3.341-1.311c-0.972-0.902-1.588-2.185-1.588-3.618c0-2.72,2.208-4.924,4.929-4.924
			c0.955,0,1.84,0.277,2.595,0.743c1.396,0.867,2.332,2.415,2.332,4.181C33.492,28.319,31.284,30.525,28.564,30.525z"/>
		<path fill="#555555" d="M31.549,24.344h-1.765v-1.76c0-0.394-0.326-0.722-0.72-0.722H28.33c-0.394,0-0.703,0.328-0.703,0.722v1.76
			H25.82c-0.394,0-0.703,0.312-0.703,0.705v0.735c0,0.393,0.309,0.715,0.703,0.715h1.807v1.817c0,0.394,0.313,0.719,0.703,0.719
			h0.734c0.394,0,0.72-0.325,0.72-0.719V26.5h1.765c0.393,0,0.718-0.323,0.718-0.715V25.05
			C32.267,24.656,31.943,24.344,31.549,24.344z"/>
	</g>
</g>
<g display="none" opacity="0.6">
	<g display="inline">
		<path fill="none" d="M21.4,15.794l-2.904,2.121l-0.655-0.932c-0.2-0.285-0.593-0.354-0.878-0.154
			c-0.285,0.2-0.353,0.593-0.153,0.878l1.024,1.458c0.097,0.138,0.246,0.232,0.413,0.259c0.034,0.006,0.069,0.008,0.103,0.008
			c0.133,0,0.263-0.042,0.372-0.121l3.422-2.5c0.281-0.205,0.343-0.599,0.137-0.881C22.075,15.65,21.681,15.589,21.4,15.794z"/>
		<path fill="none" d="M19.325,10.586c-3.727,0-6.759,3.032-6.759,6.759c0,3.727,3.032,6.759,6.759,6.759
			c1.342,0,2.59-0.398,3.642-1.074c0.545-1.159,1.405-2.138,2.474-2.826c0.408-0.87,0.644-1.836,0.644-2.859
			C26.084,13.618,23.052,10.586,19.325,10.586z M19.325,22.844c-3.032,0-5.499-2.467-5.499-5.499c0-3.032,2.467-5.499,5.499-5.499
			c3.033,0,5.499,2.467,5.499,5.499C24.824,20.377,22.357,22.844,19.325,22.844z"/>
		<path fill="#201E20" d="M14.132,27.946c-0.454-0.219-0.838-0.521-1.138-0.883l-1.713,3.787c-0.078,0.172,0.009,0.302,0.05,0.35
			c0.041,0.048,0.156,0.154,0.338,0.103l1.246-0.347c0.142-0.04,0.286-0.059,0.427-0.059c0.597,0,1.16,0.338,1.43,0.898l0.563,1.165
			c0.082,0.17,0.236,0.187,0.301,0.186c0.063-0.001,0.217-0.021,0.295-0.194l2.724-6.024c-0.299,0.086-0.583,0.24-0.824,0.463
			C16.807,28.34,15.39,28.552,14.132,27.946z"/>
		<path fill="#201E20" d="M22.744,28.263c-0.698-0.068-1.371-0.358-1.926-0.871c-0.241-0.223-0.525-0.377-0.824-0.463l2.724,6.024
			c0.078,0.172,0.233,0.193,0.296,0.194c0.064,0.001,0.218-0.016,0.301-0.186l0.563-1.165c0.169-0.351,0.46-0.601,0.795-0.749
			C23.813,30.303,23.146,29.349,22.744,28.263z"/>
		<path fill="#201E20" d="M22.967,23.03c-1.052,0.677-2.3,1.074-3.642,1.074c-3.727,0-6.759-3.032-6.759-6.759
			c0-3.727,3.032-6.759,6.759-6.759c3.727,0,6.759,3.032,6.759,6.759c0,1.023-0.235,1.989-0.644,2.859
			c1.058-0.681,2.315-1.081,3.667-1.081c0.17,0,0.337,0.013,0.504,0.025c-0.018-0.563-0.258-1.186-0.898-1.624
			c-1.422-0.974-1.863-2.907-1.005-4.401c0.516-0.898,0.248-1.786-0.176-2.317c-0.423-0.531-1.229-0.99-2.22-0.687
			c-1.648,0.505-3.434-0.356-4.067-1.959c-0.38-0.964-1.242-1.307-1.921-1.307c-0.679,0-1.541,0.343-1.921,1.307
			c-0.633,1.603-2.419,2.463-4.067,1.959c-0.991-0.303-1.796,0.156-2.22,0.687c-0.423,0.531-0.692,1.419-0.176,2.317
			c0.859,1.494,0.418,3.427-1.004,4.401c-0.855,0.585-0.998,1.502-0.847,2.164c0.151,0.662,0.678,1.426,1.702,1.582
			c1.704,0.26,2.94,1.811,2.815,3.529c-0.075,1.033,0.552,1.716,1.164,2.011c0.612,0.295,1.537,0.359,2.298-0.344
			c0.633-0.585,1.445-0.877,2.257-0.877c0.813,0,1.625,0.292,2.257,0.877c0.261,0.241,0.541,0.386,0.821,0.469
			c-0.05-0.334-0.085-0.674-0.085-1.022C22.318,24.881,22.555,23.906,22.967,23.03z"/>
		<path fill="#201E20" d="M19.325,11.846c-3.032,0-5.499,2.467-5.499,5.499c0,3.032,2.467,5.499,5.499,5.499
			c3.033,0,5.499-2.467,5.499-5.499C24.824,14.313,22.357,11.846,19.325,11.846z M22.143,16.812l-3.422,2.5
			c-0.108,0.079-0.239,0.121-0.372,0.121c-0.034,0-0.069-0.003-0.103-0.008c-0.167-0.028-0.316-0.121-0.413-0.259l-1.024-1.458
			c-0.2-0.285-0.131-0.678,0.153-0.878c0.285-0.2,0.678-0.131,0.878,0.154l0.655,0.932l2.904-2.121
			c0.281-0.205,0.675-0.144,0.88,0.137C22.486,16.213,22.424,16.607,22.143,16.812z"/>
	</g>
	<path display="inline" fill="#201E20" d="M24.58,25.057l2.855-2.141c0.107-0.081,0.253-0.094,0.373-0.034
		c0.121,0.061,0.198,0.184,0.198,0.319v1.071h1.071c2.165,0,3.926,1.761,3.926,3.926c0,0.166-0.114,0.31-0.275,0.348
		c-0.027,0.006-0.055,0.009-0.082,0.009c-0.133,0-0.258-0.074-0.319-0.197l-0.084-0.168c-0.548-1.096-1.648-1.777-2.873-1.777
		h-1.363v1.071c0,0.135-0.076,0.258-0.197,0.319c-0.121,0.061-0.266,0.048-0.374-0.034l-2.855-2.141
		c-0.09-0.067-0.143-0.173-0.143-0.286C24.437,25.231,24.49,25.124,24.58,25.057z"/>
	
		<circle display="inline" fill="none" stroke="#201E20" stroke-width="0.7138" stroke-miterlimit="10" cx="28.97" cy="25.889" r="6.068"/>
</g>
<g display="none" opacity="0.6">
	<g display="inline">
		<path fill="none" d="M21.604,15.794L18.7,17.915l-0.655-0.932c-0.2-0.285-0.593-0.354-0.878-0.154
			c-0.285,0.2-0.353,0.593-0.153,0.878l1.024,1.458c0.097,0.138,0.246,0.232,0.413,0.259c0.034,0.006,0.069,0.008,0.103,0.008
			c0.133,0,0.263-0.042,0.372-0.121l3.422-2.5c0.281-0.205,0.343-0.599,0.137-0.881C22.279,15.65,21.885,15.589,21.604,15.794z"/>
		<path fill="none" d="M19.529,10.586c-3.727,0-6.759,3.032-6.759,6.759c0,3.727,3.032,6.759,6.759,6.759
			c1.342,0,2.59-0.398,3.642-1.074c0.545-1.159,1.405-2.138,2.474-2.826c0.408-0.87,0.644-1.836,0.644-2.859
			C26.289,13.618,23.257,10.586,19.529,10.586z M19.529,22.844c-3.032,0-5.499-2.467-5.499-5.499c0-3.032,2.467-5.499,5.499-5.499
			c3.033,0,5.499,2.467,5.499,5.499C25.029,20.377,22.562,22.844,19.529,22.844z"/>
		<path fill="#201E20" d="M14.337,27.946c-0.454-0.219-0.838-0.521-1.138-0.883l-1.713,3.787c-0.078,0.172,0.009,0.302,0.05,0.35
			c0.041,0.048,0.156,0.154,0.338,0.103l1.246-0.347c0.142-0.04,0.286-0.059,0.427-0.059c0.597,0,1.16,0.338,1.43,0.898l0.563,1.165
			c0.082,0.17,0.236,0.187,0.301,0.186c0.063-0.001,0.217-0.021,0.295-0.194l2.724-6.024c-0.299,0.086-0.583,0.24-0.824,0.463
			C17.012,28.34,15.594,28.552,14.337,27.946z"/>
		<path fill="#201E20" d="M22.949,28.263c-0.698-0.068-1.371-0.358-1.926-0.871c-0.241-0.223-0.525-0.377-0.824-0.463l2.724,6.024
			c0.078,0.172,0.233,0.193,0.296,0.194c0.064,0.001,0.218-0.016,0.301-0.186l0.563-1.165c0.169-0.351,0.46-0.601,0.795-0.749
			C24.017,30.303,23.35,29.349,22.949,28.263z"/>
		<path fill="#201E20" d="M23.172,23.03c-1.052,0.677-2.3,1.074-3.642,1.074c-3.727,0-6.759-3.032-6.759-6.759
			c0-3.727,3.032-6.759,6.759-6.759c3.727,0,6.759,3.032,6.759,6.759c0,1.023-0.235,1.989-0.644,2.859
			c1.058-0.681,2.315-1.081,3.667-1.081c0.17,0,0.337,0.013,0.504,0.025c-0.018-0.563-0.258-1.186-0.898-1.624
			c-1.422-0.974-1.863-2.907-1.005-4.401c0.516-0.898,0.248-1.786-0.176-2.317c-0.423-0.531-1.229-0.99-2.22-0.687
			c-1.648,0.505-3.434-0.356-4.067-1.959c-0.38-0.964-1.242-1.307-1.921-1.307c-0.679,0-1.541,0.343-1.921,1.307
			c-0.633,1.603-2.419,2.463-4.067,1.959c-0.991-0.303-1.796,0.156-2.22,0.687c-0.423,0.531-0.692,1.419-0.176,2.317
			c0.859,1.494,0.418,3.427-1.004,4.401c-0.855,0.585-0.998,1.502-0.847,2.164c0.151,0.662,0.678,1.426,1.702,1.582
			c1.704,0.26,2.94,1.811,2.815,3.529c-0.075,1.033,0.552,1.716,1.164,2.011c0.612,0.295,1.537,0.359,2.298-0.344
			c0.633-0.585,1.445-0.877,2.257-0.877c0.813,0,1.625,0.292,2.257,0.877c0.261,0.241,0.541,0.386,0.821,0.469
			c-0.05-0.334-0.085-0.674-0.085-1.022C22.523,24.881,22.76,23.906,23.172,23.03z"/>
		<path fill="#201E20" d="M19.529,11.846c-3.032,0-5.499,2.467-5.499,5.499c0,3.032,2.467,5.499,5.499,5.499
			c3.033,0,5.499-2.467,5.499-5.499C25.029,14.313,22.562,11.846,19.529,11.846z M22.348,16.812l-3.422,2.5
			c-0.108,0.079-0.239,0.121-0.372,0.121c-0.034,0-0.069-0.003-0.103-0.008c-0.167-0.028-0.316-0.121-0.413-0.259l-1.024-1.458
			c-0.2-0.285-0.131-0.678,0.153-0.878c0.285-0.2,0.678-0.131,0.878,0.154l0.655,0.932l2.904-2.121
			c0.281-0.205,0.675-0.144,0.88,0.137C22.69,16.213,22.629,16.607,22.348,16.812z"/>
	</g>
	<g display="inline">
		<g>
			<defs>
				<rect id="SVGID_11_" x="24.692" y="19.334" width="10.732" height="13.812"/>
			</defs>
			<clipPath id="SVGID_12_">
				<use xlink:href="#SVGID_11_"  overflow="visible"/>
			</clipPath>
			<path clip-path="url(#SVGID_12_)" fill="#201E20" d="M24.727,26.704c-0.084-0.73-0.014-1.434,0.177-2.085
				c0.634-2.163,2.623-3.754,4.983-3.782v-1.414c0-0.079,0.098-0.121,0.163-0.073l2.91,2.138c0.048,0.036,0.048,0.109,0,0.143
				l-2.907,2.138c-0.067,0.048-0.163,0.006-0.163-0.073v-1.411c-1.552,0.025-2.876,0.982-3.445,2.334
				c-0.216,0.511-0.325,1.075-0.295,1.667c0.042,0.814,0.348,1.563,0.83,2.169c0.258,0.323,0.196,0.794-0.138,1.038
				c-0.317,0.233-0.76,0.168-1.004-0.14C25.241,28.607,24.842,27.697,24.727,26.704L24.727,26.704z M33.128,23.988
				c0.485,0.603,0.791,1.355,0.83,2.169c0.031,0.595-0.081,1.159-0.295,1.667c-0.57,1.352-1.894,2.312-3.445,2.334v-1.411
				c0-0.079-0.098-0.121-0.163-0.073l-2.91,2.138c-0.048,0.036-0.048,0.109,0,0.143l2.907,2.138
				c0.067,0.048,0.163,0.006,0.163-0.073v-1.414c2.36-0.025,4.352-1.616,4.983-3.782c0.191-0.651,0.258-1.355,0.177-2.085
				c-0.112-0.993-0.511-1.902-1.108-2.649c-0.247-0.309-0.687-0.373-1.004-0.14C32.931,23.194,32.87,23.666,33.128,23.988
				L33.128,23.988z M33.128,23.988"/>
		</g>
	</g>
</g>
<g display="none" opacity="0.6">
	<g display="inline">
		<path fill="none" d="M21.9,15.794l-2.904,2.121l-0.655-0.932c-0.2-0.285-0.593-0.354-0.878-0.154
			c-0.285,0.2-0.353,0.593-0.153,0.878l1.024,1.458c0.097,0.138,0.246,0.232,0.413,0.259c0.034,0.006,0.069,0.008,0.103,0.008
			c0.133,0,0.263-0.042,0.372-0.121l3.422-2.5c0.281-0.205,0.343-0.599,0.137-0.881C22.575,15.65,22.181,15.589,21.9,15.794z"/>
		<path fill="none" d="M19.825,10.586c-3.727,0-6.759,3.032-6.759,6.759c0,3.727,3.032,6.759,6.759,6.759
			c1.342,0,2.59-0.398,3.642-1.074c0.545-1.159,1.405-2.138,2.474-2.826c0.408-0.87,0.644-1.836,0.644-2.859
			C26.585,13.618,23.553,10.586,19.825,10.586z M19.825,22.844c-3.032,0-5.499-2.467-5.499-5.499c0-3.032,2.467-5.499,5.499-5.499
			c3.033,0,5.499,2.467,5.499,5.499C25.324,20.377,22.858,22.844,19.825,22.844z"/>
		<path fill="#201E20" d="M14.632,27.946c-0.454-0.219-0.838-0.521-1.138-0.883l-1.713,3.787c-0.078,0.172,0.009,0.302,0.05,0.35
			c0.041,0.048,0.156,0.154,0.338,0.103l1.246-0.347c0.142-0.04,0.286-0.059,0.427-0.059c0.597,0,1.16,0.338,1.43,0.898l0.563,1.165
			c0.082,0.17,0.236,0.187,0.301,0.186c0.063-0.001,0.217-0.021,0.295-0.194l2.724-6.024c-0.299,0.086-0.583,0.24-0.824,0.463
			C17.308,28.34,15.89,28.552,14.632,27.946z"/>
		<path fill="#201E20" d="M23.244,28.263c-0.698-0.068-1.371-0.358-1.926-0.871c-0.241-0.223-0.525-0.377-0.824-0.463l2.724,6.024
			c0.078,0.172,0.233,0.193,0.296,0.194c0.064,0.001,0.218-0.016,0.301-0.186l0.563-1.165c0.169-0.351,0.46-0.601,0.795-0.749
			C24.313,30.303,23.646,29.349,23.244,28.263z"/>
		<path fill="#201E20" d="M23.467,23.03c-1.052,0.677-2.3,1.074-3.642,1.074c-3.727,0-6.759-3.032-6.759-6.759
			c0-3.727,3.032-6.759,6.759-6.759c3.727,0,6.759,3.032,6.759,6.759c0,1.023-0.235,1.989-0.644,2.859
			c1.058-0.681,2.315-1.081,3.667-1.081c0.17,0,0.337,0.013,0.504,0.025c-0.018-0.563-0.258-1.186-0.898-1.624
			c-1.422-0.974-1.863-2.907-1.005-4.401c0.516-0.898,0.248-1.786-0.176-2.317c-0.423-0.531-1.229-0.99-2.22-0.687
			c-1.648,0.505-3.434-0.356-4.067-1.959c-0.38-0.964-1.242-1.307-1.921-1.307c-0.679,0-1.541,0.343-1.921,1.307
			c-0.633,1.603-2.419,2.463-4.067,1.959c-0.991-0.303-1.796,0.156-2.22,0.687c-0.423,0.531-0.692,1.419-0.176,2.317
			c0.859,1.494,0.418,3.427-1.004,4.401c-0.855,0.585-0.998,1.502-0.847,2.164c0.151,0.662,0.678,1.426,1.702,1.582
			c1.704,0.26,2.94,1.811,2.815,3.529c-0.075,1.033,0.552,1.716,1.164,2.011c0.612,0.295,1.537,0.359,2.298-0.344
			c0.633-0.585,1.445-0.877,2.257-0.877c0.813,0,1.625,0.292,2.257,0.877c0.261,0.241,0.541,0.386,0.821,0.469
			c-0.05-0.334-0.085-0.674-0.085-1.022C22.818,24.881,23.055,23.906,23.467,23.03z"/>
		<path fill="#201E20" d="M19.825,11.846c-3.032,0-5.499,2.467-5.499,5.499c0,3.032,2.467,5.499,5.499,5.499
			c3.033,0,5.499-2.467,5.499-5.499C25.324,14.313,22.858,11.846,19.825,11.846z M22.643,16.812l-3.422,2.5
			c-0.108,0.079-0.239,0.121-0.372,0.121c-0.034,0-0.069-0.003-0.103-0.008c-0.167-0.028-0.316-0.121-0.413-0.259l-1.024-1.458
			c-0.2-0.285-0.131-0.678,0.153-0.878c0.285-0.2,0.678-0.131,0.878,0.154l0.655,0.932l2.904-2.121
			c0.281-0.205,0.675-0.144,0.88,0.137C22.986,16.213,22.924,16.607,22.643,16.812z"/>
	</g>
	
		<circle display="inline" fill="none" stroke="#201E20" stroke-width="0.7138" stroke-miterlimit="10" cx="29.47" cy="25.889" r="6.068"/>
	<g display="inline">
		<path fill-rule="evenodd" clip-rule="evenodd" fill="#201E20" d="M33.749,27.097c0,0.935-0.752,1.693-1.68,1.693h-5.199
			c-0.928,0-1.68-0.758-1.68-1.693c0-0.844,0.613-1.544,1.416-1.672c-0.01-0.059-0.016-0.12-0.016-0.183
			c0-0.592,0.477-1.073,1.065-1.073c0.262,0,0.503,0.096,0.688,0.254c0.331-0.75,0.754-1.435,1.943-1.435
			c1.442,0,2.125,1.12,2.125,2.303c0,0.049-0.002,0.098-0.005,0.147C33.172,25.595,33.749,26.278,33.749,27.097L33.749,27.097z
			 M33.749,27.097"/>
	</g>
</g>
<g display="none" opacity="0.6">
	<g display="inline">
		<path fill="none" d="M21.9,15.794l-2.904,2.121l-0.655-0.932c-0.2-0.285-0.593-0.354-0.878-0.154
			c-0.285,0.2-0.353,0.593-0.153,0.878l1.024,1.458c0.097,0.138,0.246,0.232,0.413,0.259c0.034,0.006,0.069,0.008,0.103,0.008
			c0.133,0,0.263-0.042,0.372-0.121l3.422-2.5c0.281-0.205,0.343-0.599,0.137-0.881C22.575,15.65,22.181,15.589,21.9,15.794z"/>
		<path fill="none" d="M19.825,10.586c-3.727,0-6.759,3.032-6.759,6.759c0,3.727,3.032,6.759,6.759,6.759
			c1.342,0,2.59-0.398,3.642-1.074c0.545-1.159,1.405-2.138,2.474-2.826c0.408-0.87,0.644-1.836,0.644-2.859
			C26.585,13.618,23.553,10.586,19.825,10.586z M19.825,22.844c-3.032,0-5.499-2.467-5.499-5.499c0-3.032,2.467-5.499,5.499-5.499
			c3.033,0,5.499,2.467,5.499,5.499C25.324,20.377,22.858,22.844,19.825,22.844z"/>
		<path fill="#201E20" d="M14.632,27.946c-0.454-0.219-0.838-0.521-1.138-0.883l-1.713,3.787c-0.078,0.172,0.009,0.302,0.05,0.35
			c0.041,0.048,0.156,0.154,0.338,0.103l1.246-0.347c0.142-0.04,0.286-0.059,0.427-0.059c0.597,0,1.16,0.338,1.43,0.898l0.563,1.165
			c0.082,0.17,0.236,0.187,0.301,0.186c0.063-0.001,0.217-0.021,0.295-0.194l2.724-6.024c-0.299,0.086-0.583,0.24-0.824,0.463
			C17.308,28.34,15.89,28.552,14.632,27.946z"/>
		<path fill="#201E20" d="M23.244,28.263c-0.698-0.068-1.371-0.358-1.926-0.871c-0.241-0.223-0.525-0.377-0.824-0.463l2.724,6.024
			c0.078,0.172,0.233,0.193,0.296,0.194c0.064,0.001,0.218-0.016,0.301-0.186l0.563-1.165c0.169-0.351,0.46-0.601,0.795-0.749
			C24.313,30.303,23.646,29.349,23.244,28.263z"/>
		<path fill="#201E20" d="M23.467,23.03c-1.052,0.677-2.3,1.074-3.642,1.074c-3.727,0-6.759-3.032-6.759-6.759
			c0-3.727,3.032-6.759,6.759-6.759c3.727,0,6.759,3.032,6.759,6.759c0,1.023-0.235,1.989-0.644,2.859
			c1.058-0.681,2.315-1.081,3.667-1.081c0.17,0,0.337,0.013,0.504,0.025c-0.018-0.563-0.258-1.186-0.898-1.624
			c-1.422-0.974-1.863-2.907-1.005-4.401c0.516-0.898,0.248-1.786-0.176-2.317c-0.423-0.531-1.229-0.99-2.22-0.687
			c-1.648,0.505-3.434-0.356-4.067-1.959c-0.38-0.964-1.242-1.307-1.921-1.307c-0.679,0-1.541,0.343-1.921,1.307
			c-0.633,1.603-2.419,2.463-4.067,1.959c-0.991-0.303-1.796,0.156-2.22,0.687c-0.423,0.531-0.692,1.419-0.176,2.317
			c0.859,1.494,0.418,3.427-1.004,4.401c-0.855,0.585-0.998,1.502-0.847,2.164c0.151,0.662,0.678,1.426,1.702,1.582
			c1.704,0.26,2.94,1.811,2.815,3.529c-0.075,1.033,0.552,1.716,1.164,2.011c0.612,0.295,1.537,0.359,2.298-0.344
			c0.633-0.585,1.445-0.877,2.257-0.877c0.813,0,1.625,0.292,2.257,0.877c0.261,0.241,0.541,0.386,0.821,0.469
			c-0.05-0.334-0.085-0.674-0.085-1.022C22.818,24.881,23.055,23.906,23.467,23.03z"/>
		<path fill="#201E20" d="M19.825,11.846c-3.032,0-5.499,2.467-5.499,5.499c0,3.032,2.467,5.499,5.499,5.499
			c3.033,0,5.499-2.467,5.499-5.499C25.324,14.313,22.858,11.846,19.825,11.846z M22.643,16.812l-3.422,2.5
			c-0.108,0.079-0.239,0.121-0.372,0.121c-0.034,0-0.069-0.003-0.103-0.008c-0.167-0.028-0.316-0.121-0.413-0.259l-1.024-1.458
			c-0.2-0.285-0.131-0.678,0.153-0.878c0.285-0.2,0.678-0.131,0.878,0.154l0.655,0.932l2.904-2.121
			c0.281-0.205,0.675-0.144,0.88,0.137C22.986,16.213,22.924,16.607,22.643,16.812z"/>
	</g>
	<path display="inline" fill="#201E20" d="M33.61,26.909l-2.855,2.141c-0.107,0.081-0.253,0.094-0.373,0.034
		c-0.121-0.061-0.198-0.184-0.198-0.319v-1.071h-1.071c-2.165,0-3.926-1.761-3.926-3.926c0-0.166,0.114-0.31,0.275-0.348
		c0.027-0.006,0.055-0.009,0.082-0.009c0.133,0,0.258,0.074,0.319,0.197l0.084,0.168c0.548,1.096,1.648,1.777,2.873,1.777h1.363
		v-1.071c0-0.135,0.076-0.258,0.197-0.319c0.121-0.061,0.266-0.048,0.374,0.034l2.855,2.141c0.09,0.067,0.143,0.173,0.143,0.286
		C33.753,26.735,33.7,26.842,33.61,26.909z"/>
	
		<circle display="inline" fill="none" stroke="#201E20" stroke-width="0.7138" stroke-miterlimit="10" cx="29.47" cy="25.889" r="6.068"/>
</g>
<g display="none" opacity="0.6">
	<g display="inline">
		<path fill="none" d="M20.515,15.554c-2.466,0-4.471,2.006-4.471,4.472c0,2.199,1.595,4.031,3.689,4.402
			c0.75-2.458,2.721-4.387,5.202-5.081C24.607,17.202,22.75,15.554,20.515,15.554z"/>
		<path fill="#201E20" d="M19.404,26.632c0-0.767,0.116-1.507,0.329-2.205c-2.094-0.371-3.689-2.203-3.689-4.402
			c0-2.466,2.005-4.472,4.471-4.472c2.235,0,4.092,1.648,4.42,3.792c0.648-0.181,1.33-0.281,2.036-0.281
			c2.523,0,4.76,1.243,6.136,3.147c0.351-0.014,0.66-0.291,0.703-0.656c0.118-1.008,0.12-2.033,0.006-3.048
			c-0.042-0.377-0.482-0.66-0.862-0.66c-1.228,0-2.319-0.721-2.776-1.837c-0.467-1.143-0.166-2.475,0.75-3.315
			c0.288-0.263,0.323-0.705,0.082-1.011c-0.629-0.798-1.343-1.52-2.124-2.145c-0.305-0.245-0.754-0.211-1.019,0.082
			c-0.799,0.885-2.234,1.214-3.343,0.751c-1.154-0.486-1.882-1.655-1.81-2.91c0.023-0.395-0.265-0.737-0.658-0.783
			c-1.001-0.116-2.012-0.119-3.016-0.008c-0.388,0.043-0.677,0.378-0.663,0.767c0.043,1.243-0.693,2.392-1.836,2.86
			c-1.096,0.448-2.521,0.121-3.319-0.756c-0.263-0.289-0.704-0.324-1.012-0.085c-0.803,0.63-1.534,1.352-2.168,2.144
			c-0.247,0.308-0.211,0.754,0.08,1.019c0.933,0.845,1.234,2.189,0.75,3.345c-0.463,1.102-1.607,1.812-2.917,1.812
			c-0.425-0.014-0.728,0.272-0.775,0.659c-0.118,1.007-0.119,2.033-0.006,3.048c0.042,0.379,0.495,0.66,0.879,0.66
			c1.167-0.03,2.288,0.693,2.758,1.837c0.469,1.143,0.167,2.474-0.75,3.315c-0.287,0.264-0.323,0.704-0.081,1.01
			c0.622,0.793,1.337,1.515,2.12,2.146c0.307,0.247,0.754,0.213,1.02-0.081c0.802-0.887,2.237-1.215,3.342-0.752
			c1.157,0.484,1.885,1.654,1.814,2.909c-0.023,0.395,0.266,0.738,0.658,0.783c0.512,0.06,1.028,0.09,1.545,0.09
			c0.49,0,0.981-0.027,1.471-0.081c0.307-0.034,0.549-0.251,0.631-0.533C20.66,31.415,19.404,29.168,19.404,26.632z"/>
	</g>
	
		<circle display="inline" fill="none" stroke="#201E20" stroke-width="0.7885" stroke-miterlimit="10" cx="26.962" cy="26.706" r="6.702"/>
	<path display="inline" fill="#201E20" d="M31.267,27.221h-3.616v3.788c0,0.38-0.307,0.689-0.687,0.689
		c-0.38,0-0.689-0.309-0.689-0.689v-3.788H22.66c-0.38,0-0.689-0.307-0.689-0.687c0-0.38,0.309-0.689,0.689-0.689h3.614v-3.443
		c0-0.38,0.309-0.687,0.689-0.687c0.38,0,0.687,0.307,0.687,0.687v3.443h3.616c0.38,0,0.687,0.309,0.687,0.689
		C31.954,26.914,31.647,27.221,31.267,27.221L31.267,27.221z"/>
</g>
<g display="none" opacity="0.6">
	<path display="inline" fill="#201E20" d="M22.192,25.79l3.154-2.365c0.118-0.09,0.279-0.104,0.412-0.037
		c0.134,0.067,0.218,0.203,0.218,0.352v1.183h1.183c2.391,0,4.337,1.945,4.337,4.337c0,0.183-0.126,0.342-0.304,0.384
		c-0.03,0.007-0.061,0.01-0.091,0.01c-0.147,0-0.285-0.082-0.352-0.218l-0.093-0.185c-0.605-1.21-1.821-1.962-3.174-1.962h-1.506
		v1.183c0,0.149-0.084,0.285-0.218,0.352c-0.133,0.067-0.294,0.053-0.413-0.037l-3.154-2.365c-0.099-0.074-0.158-0.192-0.158-0.315
		C22.034,25.982,22.093,25.864,22.192,25.79z"/>
	<g display="inline">
		<g>
			<path fill="none" d="M20.515,15.545c-2.466,0-4.471,2.006-4.471,4.472c0,2.199,1.595,4.031,3.689,4.402
				c0.75-2.458,2.721-4.387,5.202-5.081C24.607,17.193,22.75,15.545,20.515,15.545z"/>
			<path fill="#201E20" d="M19.404,26.623c0-0.767,0.116-1.507,0.329-2.205c-2.094-0.371-3.689-2.203-3.689-4.402
				c0-2.466,2.005-4.472,4.471-4.472c2.235,0,4.092,1.648,4.42,3.792c0.648-0.181,1.33-0.281,2.036-0.281
				c2.523,0,4.76,1.243,6.136,3.147c0.352-0.014,0.66-0.291,0.703-0.656c0.118-1.008,0.12-2.033,0.006-3.048
				c-0.042-0.377-0.482-0.66-0.862-0.66c-1.228,0-2.319-0.721-2.776-1.837c-0.467-1.143-0.166-2.475,0.75-3.315
				c0.288-0.263,0.323-0.705,0.082-1.011c-0.629-0.798-1.343-1.52-2.124-2.145c-0.305-0.245-0.754-0.211-1.019,0.082
				c-0.799,0.885-2.234,1.214-3.343,0.751c-1.154-0.486-1.882-1.655-1.81-2.91c0.023-0.395-0.265-0.737-0.658-0.783
				c-1.001-0.116-2.012-0.119-3.016-0.008c-0.388,0.043-0.677,0.378-0.663,0.767c0.043,1.243-0.693,2.392-1.836,2.86
				c-1.096,0.448-2.521,0.121-3.319-0.756c-0.263-0.289-0.704-0.324-1.012-0.085c-0.803,0.63-1.534,1.352-2.168,2.144
				c-0.247,0.308-0.211,0.754,0.08,1.019c0.933,0.845,1.234,2.189,0.75,3.345c-0.463,1.102-1.607,1.812-2.917,1.812
				c-0.425-0.014-0.728,0.272-0.775,0.659c-0.118,1.007-0.119,2.033-0.006,3.048c0.042,0.379,0.495,0.66,0.879,0.66
				c1.167-0.03,2.288,0.693,2.758,1.837c0.469,1.143,0.167,2.474-0.75,3.315c-0.287,0.264-0.323,0.704-0.081,1.01
				c0.622,0.793,1.337,1.515,2.12,2.146c0.307,0.247,0.754,0.213,1.02-0.081c0.802-0.887,2.237-1.215,3.342-0.752
				c1.157,0.484,1.885,1.654,1.814,2.909c-0.023,0.395,0.266,0.738,0.658,0.783c0.512,0.06,1.028,0.09,1.545,0.09
				c0.49,0,0.981-0.027,1.471-0.081c0.307-0.034,0.549-0.251,0.631-0.533C20.66,31.406,19.404,29.159,19.404,26.623z"/>
		</g>
		<circle fill="none" stroke="#201E20" stroke-width="0.7885" stroke-miterlimit="10" cx="26.962" cy="26.697" r="6.702"/>
	</g>
</g>
<g display="none" opacity="0.6">
	<path display="inline" fill="#201E20" d="M31.535,27.416l-3.154,2.365c-0.118,0.09-0.279,0.104-0.412,0.037
		c-0.134-0.067-0.218-0.203-0.218-0.352v-1.183h-1.183c-2.391,0-4.337-1.945-4.337-4.337c0-0.183,0.126-0.342,0.304-0.384
		c0.03-0.007,0.061-0.01,0.091-0.01c0.147,0,0.285,0.082,0.352,0.218l0.093,0.185c0.605,1.21,1.821,1.962,3.174,1.962h1.506v-1.183
		c0-0.149,0.084-0.285,0.218-0.352c0.133-0.067,0.294-0.053,0.413,0.037l3.154,2.365c0.099,0.074,0.158,0.192,0.158,0.315
		C31.693,27.224,31.635,27.342,31.535,27.416z"/>
	<g display="inline">
		<g>
			<path fill="none" d="M20.515,15.554c-2.466,0-4.471,2.006-4.471,4.472c0,2.199,1.595,4.031,3.689,4.402
				c0.75-2.458,2.721-4.387,5.202-5.081C24.607,17.202,22.75,15.554,20.515,15.554z"/>
			<path fill="#201E20" d="M19.404,26.632c0-0.767,0.116-1.507,0.329-2.205c-2.094-0.371-3.689-2.203-3.689-4.402
				c0-2.466,2.005-4.472,4.471-4.472c2.235,0,4.092,1.648,4.42,3.792c0.648-0.181,1.33-0.281,2.036-0.281
				c2.523,0,4.76,1.243,6.136,3.147c0.352-0.014,0.66-0.291,0.703-0.656c0.118-1.008,0.12-2.033,0.006-3.048
				c-0.042-0.377-0.482-0.66-0.862-0.66c-1.228,0-2.319-0.721-2.776-1.837c-0.467-1.143-0.166-2.475,0.75-3.315
				c0.288-0.263,0.323-0.705,0.082-1.011c-0.629-0.798-1.343-1.52-2.124-2.145c-0.305-0.245-0.754-0.211-1.019,0.082
				c-0.799,0.885-2.234,1.214-3.343,0.751c-1.154-0.486-1.882-1.655-1.81-2.91c0.023-0.395-0.265-0.737-0.658-0.783
				c-1.001-0.116-2.012-0.119-3.016-0.008c-0.388,0.043-0.677,0.378-0.663,0.767c0.043,1.243-0.693,2.392-1.836,2.86
				c-1.096,0.448-2.521,0.121-3.319-0.756c-0.263-0.289-0.704-0.324-1.012-0.085c-0.803,0.63-1.534,1.352-2.168,2.144
				c-0.247,0.308-0.211,0.754,0.08,1.019c0.933,0.845,1.234,2.189,0.75,3.345c-0.463,1.102-1.607,1.812-2.917,1.812
				c-0.425-0.014-0.728,0.272-0.775,0.659c-0.118,1.007-0.119,2.033-0.006,3.048c0.042,0.379,0.495,0.66,0.879,0.66
				c1.167-0.03,2.288,0.693,2.758,1.837c0.469,1.143,0.167,2.474-0.75,3.315c-0.287,0.264-0.323,0.704-0.081,1.01
				c0.622,0.793,1.337,1.515,2.12,2.146c0.307,0.247,0.754,0.213,1.02-0.081c0.802-0.887,2.237-1.215,3.342-0.752
				c1.157,0.484,1.885,1.654,1.814,2.909c-0.023,0.395,0.266,0.738,0.658,0.783c0.512,0.06,1.028,0.09,1.545,0.09
				c0.49,0,0.981-0.027,1.471-0.081c0.307-0.034,0.549-0.251,0.631-0.533C20.66,31.415,19.404,29.168,19.404,26.632z"/>
		</g>
		<circle fill="none" stroke="#201E20" stroke-width="0.7885" stroke-miterlimit="10" cx="26.962" cy="26.706" r="6.702"/>
	</g>
</g>
<g display="none">
	<g display="inline">
		<path fill="#555555" d="M30.155,22.349c0.053-0.557,0.097-1.02,0.128-1.338c0.008-0.081-0.036-0.15-0.107-0.166
			c-0.28-0.066-0.566-0.159-0.853-0.279c-0.285-0.12-0.551-0.258-0.793-0.411c-0.061-0.039-0.141-0.022-0.194,0.04l-0.867,1.029
			c-0.064,0.076-0.064,0.192,0.005,0.249c0.314,0.261,0.706,0.505,1.173,0.701c0.468,0.197,0.919,0.307,1.326,0.347
			C30.063,22.53,30.146,22.448,30.155,22.349z"/>
		<path fill="#555555" d="M30.031,23.653l0.026-0.276c0.009-0.092-0.047-0.164-0.128-0.17c-0.492-0.04-1.02-0.166-1.551-0.389
			c-0.53-0.223-0.989-0.51-1.361-0.832c-0.062-0.053-0.153-0.042-0.211,0.028l-0.179,0.213c-0.059,0.07-0.065,0.176-0.008,0.237
			c0.347,0.37,0.849,0.729,1.489,0.998c0.642,0.27,1.252,0.377,1.76,0.365C29.951,23.823,30.022,23.745,30.031,23.653z"/>
		<path fill="#555555" d="M30.244,19.948l3.276-7.8c0.157-0.374,0.026-0.805-0.307-0.925c-0.317-0.115-0.651,0.057-0.803,0.419
			l-3.291,7.835c-0.032,0.076-0.015,0.164,0.044,0.206c0.128,0.091,0.271,0.172,0.429,0.239c0.159,0.067,0.318,0.112,0.474,0.14
			C30.138,20.073,30.212,20.024,30.244,19.948z"/>
		<path fill="#555555" d="M29.36,30.679c0-0.001,0.305-3.198,0.573-6.002c0.009-0.097-0.055-0.172-0.143-0.17
			c-0.599,0.011-1.274-0.119-1.952-0.404c-0.677-0.285-1.242-0.675-1.652-1.109c-0.06-0.064-0.16-0.057-0.222,0.018l-3.879,4.604
			c-0.025,0.03-0.046,0.064-0.062,0.101c-0.279,0.663,0.469,1.333,1.282,1.674c0.107,0.045,0.233,0.017,0.326-0.072l0.058-0.055
			l0,0.022c-0.097,0.435,0.385,0.809,0.893,1.021c0.092,0.038,0.199,0.018,0.286-0.048l0.566-0.426l0.092,0.702
			c0.014,0.108,0.075,0.2,0.166,0.238c0.507,0.215,1.112,0.297,1.354-0.077l0.016-0.015l0.001,0.08
			c0.002,0.129,0.07,0.239,0.177,0.284c0.801,0.336,1.784,0.403,2.079-0.23C29.321,30.81,29.356,30.717,29.36,30.679z"/>
	</g>
	<g display="inline">
		<path fill="#555555" d="M30.756,10.593c-0.447-0.479-0.921-0.927-1.427-1.331c-0.314-0.252-0.775-0.217-1.047,0.085
			c-0.821,0.909-2.296,1.247-3.435,0.772c-1.186-0.499-1.934-1.701-1.86-2.99c0.024-0.405-0.272-0.758-0.676-0.805
			c-1.029-0.119-2.067-0.123-3.099-0.008c-0.399,0.044-0.695,0.388-0.682,0.788c0.044,1.277-0.712,2.458-1.886,2.939
			c-1.126,0.46-2.59,0.125-3.41-0.777c-0.271-0.297-0.724-0.333-1.039-0.087c-0.825,0.648-1.576,1.389-2.228,2.203
			c-0.254,0.316-0.217,0.775,0.082,1.046c0.959,0.868,1.268,2.249,0.77,3.437c-0.475,1.132-1.651,1.862-2.997,1.862
			c-0.437-0.014-0.748,0.279-0.796,0.677c-0.121,1.034-0.123,2.089-0.006,3.132c0.044,0.389,0.509,0.678,0.903,0.678
			c1.2-0.031,2.351,0.712,2.834,1.887c0.482,1.174,0.172,2.542-0.77,3.406c-0.295,0.271-0.332,0.723-0.083,1.038
			c0.64,0.815,1.374,1.557,2.178,2.204c0.316,0.254,0.775,0.219,1.048-0.083c0.824-0.911,2.299-1.249,3.434-0.772
			c1.189,0.497,1.937,1.699,1.864,2.989c-0.024,0.405,0.273,0.759,0.676,0.805c0.526,0.062,1.056,0.092,1.587,0.092
			c0.504,0,1.008-0.027,1.512-0.083c0.316-0.035,0.564-0.258,0.649-0.548c-1.973-1.411-3.263-3.72-3.263-6.325
			c0-0.788,0.119-1.548,0.338-2.265c-2.151-0.381-3.79-2.263-3.79-4.522c0-2.533,2.06-4.594,4.594-4.594
			c1.803,0,3.363,1.046,4.115,2.561C26.296,14.433,28.414,11.757,30.756,10.593z"/>
	</g>
</g>
<g display="none">
	<g display="inline">
		<path fill="#555555" d="M33.548,15.108l-1.105,1.106l-6.63-6.629l1.105-1.106c1.221-1.221,3.2-1.221,4.42,0l2.209,2.21
			C34.767,11.909,34.767,13.887,33.548,15.108L33.548,15.108z M18.079,28.365c-0.305,0.305-0.305,0.8,0,1.105
			c0.305,0.307,0.799,0.307,1.105,0l12.155-12.152l-1.106-1.106L18.079,28.365z M12.553,22.841c-0.305,0.305-0.305,0.8,0,1.105
			c0.305,0.305,0.799,0.305,1.105,0l12.155-12.153l-1.105-1.105L12.553,22.841z M26.916,12.898L14.763,25.051
			c-0.61,0.609-0.609,1.599,0,2.209c0.61,0.61,1.599,0.613,2.211-0.002l12.153-12.151L26.916,12.898z M16.971,30.571
			c-0.374-0.374-0.554-0.849-0.621-1.337c-0.159,0.025-0.319,0.047-0.482,0.047c-0.835,0-1.619-0.327-2.209-0.917
			c-0.591-0.592-0.916-1.375-0.916-2.21c0-0.153,0.023-0.3,0.044-0.448c-0.505-0.069-0.972-0.29-1.338-0.656
			c-0.035-0.035-0.047-0.083-0.079-0.121l-1.907,7.632l7.613-1.906C17.041,30.626,17.003,30.603,16.971,30.571L16.971,30.571z
			 M16.971,30.571"/>
	</g>
</g>
<g display="none">
	<path display="inline" fill="#555555" d="M31.015,13.17H20.223v-1.855c0-0.618-0.504-1.124-1.124-1.124h-8.19
		c-0.62,0-1.124,0.504-1.124,1.124v5.211h22.355v-2.229C32.139,13.676,31.635,13.17,31.015,13.17L31.015,13.17z M31.015,13.17"/>
	<path display="inline" fill="#555555" d="M9.785,28.812c0,0.62,0.504,1.124,1.124,1.124h20.106c0.62,0,1.124-0.504,1.124-1.124
		V17.269H9.785V28.812z M9.785,28.812"/>
</g>
<g display="none" opacity="0.6">
	<g display="inline">
		<path fill="none" d="M22.147,15.794l-2.904,2.121l-0.655-0.932c-0.2-0.285-0.593-0.354-0.878-0.154
			c-0.285,0.2-0.353,0.593-0.153,0.878l1.024,1.458c0.097,0.138,0.246,0.232,0.413,0.259c0.034,0.006,0.069,0.008,0.103,0.008
			c0.133,0,0.263-0.042,0.372-0.121l3.422-2.5c0.281-0.205,0.343-0.599,0.137-0.881C22.822,15.65,22.428,15.589,22.147,15.794z"/>
		<path fill="none" d="M20.072,10.586c-3.727,0-6.759,3.032-6.759,6.759c0,3.727,3.032,6.759,6.759,6.759
			c1.342,0,2.59-0.398,3.642-1.074c0.545-1.159,1.405-2.138,2.474-2.826c0.408-0.87,0.644-1.836,0.644-2.859
			C26.832,13.618,23.8,10.586,20.072,10.586z M20.072,22.844c-3.032,0-5.499-2.467-5.499-5.499c0-3.032,2.467-5.499,5.499-5.499
			c3.033,0,5.499,2.467,5.499,5.499C25.572,20.377,23.105,22.844,20.072,22.844z"/>
		<path fill="#201E20" d="M14.88,27.946c-0.454-0.219-0.838-0.521-1.138-0.883l-1.713,3.787c-0.078,0.172,0.009,0.302,0.05,0.35
			c0.041,0.048,0.156,0.154,0.338,0.103l1.246-0.347c0.142-0.04,0.286-0.059,0.427-0.059c0.597,0,1.16,0.338,1.43,0.898l0.563,1.165
			c0.082,0.17,0.236,0.187,0.301,0.186c0.063-0.001,0.217-0.021,0.295-0.194l2.724-6.024c-0.299,0.086-0.583,0.24-0.824,0.463
			C17.555,28.34,16.137,28.552,14.88,27.946z"/>
		<path fill="#201E20" d="M23.492,28.263c-0.698-0.068-1.371-0.358-1.926-0.871c-0.241-0.223-0.525-0.377-0.824-0.463l2.724,6.024
			c0.078,0.172,0.233,0.193,0.296,0.194c0.064,0.001,0.218-0.016,0.301-0.186l0.563-1.165c0.169-0.351,0.46-0.601,0.795-0.749
			C24.56,30.303,23.893,29.349,23.492,28.263z"/>
		<path fill="#201E20" d="M23.714,23.03c-1.052,0.677-2.3,1.074-3.642,1.074c-3.727,0-6.759-3.032-6.759-6.759
			c0-3.727,3.032-6.759,6.759-6.759c3.727,0,6.759,3.032,6.759,6.759c0,1.023-0.235,1.989-0.644,2.859
			c1.058-0.681,2.315-1.081,3.667-1.081c0.17,0,0.337,0.013,0.504,0.025c-0.018-0.563-0.258-1.186-0.898-1.624
			c-1.422-0.974-1.863-2.907-1.005-4.401c0.516-0.898,0.248-1.786-0.176-2.317c-0.423-0.531-1.229-0.99-2.22-0.687
			c-1.648,0.505-3.434-0.356-4.067-1.959c-0.38-0.964-1.242-1.307-1.921-1.307c-0.679,0-1.541,0.343-1.921,1.307
			c-0.633,1.603-2.419,2.463-4.067,1.959c-0.991-0.303-1.796,0.156-2.22,0.687c-0.423,0.531-0.692,1.419-0.176,2.317
			c0.859,1.494,0.418,3.427-1.004,4.401c-0.855,0.585-0.998,1.502-0.847,2.164c0.151,0.662,0.678,1.426,1.702,1.582
			c1.704,0.26,2.94,1.811,2.815,3.529c-0.075,1.033,0.552,1.716,1.164,2.011c0.612,0.295,1.537,0.359,2.298-0.344
			c0.633-0.585,1.445-0.877,2.257-0.877c0.813,0,1.625,0.292,2.257,0.877c0.261,0.241,0.541,0.386,0.821,0.469
			c-0.05-0.334-0.085-0.674-0.085-1.022C23.066,24.881,23.302,23.906,23.714,23.03z"/>
		<path fill="#201E20" d="M20.072,11.846c-3.032,0-5.499,2.467-5.499,5.499c0,3.032,2.467,5.499,5.499,5.499
			c3.033,0,5.499-2.467,5.499-5.499C25.572,14.313,23.105,11.846,20.072,11.846z M22.89,16.812l-3.422,2.5
			c-0.108,0.079-0.239,0.121-0.372,0.121c-0.034,0-0.069-0.003-0.103-0.008c-0.167-0.028-0.316-0.121-0.413-0.259l-1.024-1.458
			c-0.2-0.285-0.131-0.678,0.153-0.878c0.285-0.2,0.678-0.131,0.878,0.154l0.655,0.932l2.904-2.121
			c0.281-0.205,0.675-0.144,0.88,0.137C23.233,16.213,23.172,16.607,22.89,16.812z"/>
	</g>
	
		<circle display="inline" fill="none" stroke="#201E20" stroke-width="0.7138" stroke-miterlimit="10" cx="29.676" cy="25.909" r="6.068"/>
	<path display="inline" fill="#201E20" d="M32.672,24.753h-1.852v-1.84c0-0.411-0.342-0.755-0.755-0.755h-0.77
		c-0.413,0-0.737,0.343-0.737,0.755v1.84h-1.895c-0.413,0-0.737,0.326-0.737,0.738v0.769c0,0.41,0.324,0.748,0.737,0.748h1.895v1.9
		c0,0.411,0.328,0.751,0.737,0.751h0.77c0.413,0,0.755-0.34,0.755-0.751v-1.9h1.852c0.413,0,0.753-0.337,0.753-0.748v-0.769
		C33.426,25.079,33.085,24.753,32.672,24.753z"/>
</g>
<g display="none" opacity="0.5">
	<g display="inline">
		<path d="M10.252,31.617h19.496c0.684,0,1.24-0.555,1.24-1.24v-4.464c0-0.684-0.556-1.24-1.24-1.24H10.252
			c-0.684,0-1.24,0.556-1.24,1.24v4.464C9.012,31.062,9.568,31.617,10.252,31.617L10.252,31.617z M12.248,27.156
			c0.548,0,0.992,0.444,0.992,0.992c0,0.548-0.444,0.992-0.992,0.992c-0.548,0-0.992-0.444-0.992-0.992
			C11.256,27.6,11.7,27.156,12.248,27.156L12.248,27.156z M12.248,27.156"/>
		<path d="M10.252,23.313h19.496c0.684,0,1.24-0.556,1.24-1.24v-4.464c0-0.684-0.556-1.24-1.24-1.24H10.252
			c-0.684,0-1.24,0.555-1.24,1.24v4.464C9.012,22.757,9.568,23.313,10.252,23.313L10.252,23.313z M12.248,18.852
			c0.548,0,0.992,0.444,0.992,0.992s-0.444,0.992-0.992,0.992c-0.548,0-0.992-0.444-0.992-0.992S11.7,18.852,12.248,18.852
			L12.248,18.852z M12.248,18.852"/>
		<path d="M10.252,15.008h19.496c0.684,0,1.24-0.556,1.24-1.24V9.305c0-0.684-0.556-1.24-1.24-1.24H10.252
			c-0.684,0-1.24,0.556-1.24,1.24v4.464C9.012,14.452,9.568,15.008,10.252,15.008L10.252,15.008z M12.248,10.547
			c0.548,0,0.992,0.444,0.992,0.992c0,0.548-0.444,0.992-0.992,0.992c-0.548,0-0.992-0.444-0.992-0.992
			C11.256,10.991,11.7,10.547,12.248,10.547L12.248,10.547z M12.248,10.547"/>
	</g>
</g>
<g display="none" opacity="0.5">
	<path display="inline" fill-rule="evenodd" clip-rule="evenodd" d="M32.394,23.497c0,2.708-2.179,4.903-4.866,4.903H12.472
		c-2.687,0-4.866-2.195-4.866-4.903c0-2.445,1.776-4.472,4.1-4.842c-0.03-0.172-0.046-0.348-0.046-0.53
		c0-1.716,1.381-3.106,3.084-3.106c0.76,0,1.457,0.277,1.993,0.737c0.958-2.173,2.184-4.157,5.628-4.157
		c4.176,0,6.154,3.245,6.154,6.669c0,0.143-0.006,0.285-0.015,0.425C30.723,19.149,32.394,21.126,32.394,23.497L32.394,23.497z
		 M32.394,23.497"/>
</g>
<g display="none" opacity="0.6">
	<g display="inline">
		<path fill="#201E20" d="M27.938,15.716v5.264c0.169-0.014,0.339-0.023,0.512-0.023c0.297,0,0.588,0.022,0.873,0.064v-5.305H27.938
			z"/>
		<path fill="#201E20" d="M29.323,12.539c0-0.225-0.183-0.407-0.407-0.407h-0.977v2.769h1.385V12.539z"/>
		<path fill="#201E20" d="M20.24,27.771c-0.225,0-0.407-0.182-0.407-0.407s0.182-0.407,0.407-0.407h2.209
			c0-2.858,1.998-5.247,4.674-5.851v-7.589H10.099v13.033c0,0.225,0.183,0.407,0.407,0.407h6.476c0.225,0,0.407,0.182,0.407,0.407
			s-0.182,0.407-0.407,0.407h-4.684v0.977c0,0.225,0.183,0.407,0.407,0.407h10.162c-0.173-0.439-0.296-0.902-0.361-1.385H20.24z
			 M13.032,20.236c0-3.077,2.503-5.58,5.58-5.58s5.58,2.503,5.58,5.58c0,3.077-2.503,5.58-5.58,5.58S13.032,23.313,13.032,20.236z
			 M18.899,27.652c-0.076,0.076-0.181,0.119-0.288,0.119c-0.107,0-0.212-0.044-0.288-0.119c-0.076-0.076-0.119-0.181-0.119-0.288
			s0.044-0.212,0.119-0.288c0.076-0.076,0.181-0.119,0.288-0.119c0.107,0,0.212,0.044,0.288,0.119
			c0.076,0.076,0.119,0.181,0.119,0.288S18.975,27.576,18.899,27.652z"/>
		<path fill="#201E20" d="M21.264,22.889c0.159-0.159,0.159-0.417,0-0.576l-1.152-1.152c-0.076-0.076-0.18-0.119-0.288-0.119
			c-0.108,0-0.212,0.043-0.288,0.119c-0.246,0.246-0.575,0.382-0.925,0.382s-0.678-0.136-0.924-0.382c-0.51-0.51-0.51-1.339,0-1.849
			c0.246-0.246,0.575-0.382,0.924-0.382s0.678,0.136,0.925,0.382c0.076,0.076,0.18,0.119,0.288,0.119
			c0.108,0,0.212-0.043,0.288-0.119l1.152-1.152c0.159-0.159,0.159-0.417,0-0.576c-1.463-1.463-3.842-1.463-5.305,0
			c-1.463,1.463-1.463,3.842,0,5.305c0.707,0.707,1.649,1.097,2.652,1.097C19.614,23.986,20.556,23.596,21.264,22.889z"/>
		<path fill="#5A5B5A" d="M27.123,10.34c0-0.225-0.183-0.407-0.407-0.407h-16.21c-0.225,0-0.407,0.183-0.407,0.407v2.362h17.024
			V10.34z M12.424,11.605c-0.076,0.076-0.181,0.119-0.288,0.119c-0.107,0-0.212-0.044-0.288-0.119
			c-0.076-0.076-0.119-0.181-0.119-0.288c0-0.107,0.044-0.212,0.119-0.288c0.076-0.076,0.181-0.119,0.288-0.119
			c0.107,0,0.212,0.044,0.288,0.119c0.076,0.076,0.119,0.181,0.119,0.288C12.543,11.424,12.499,11.529,12.424,11.605z
			 M14.609,11.605c-0.076,0.076-0.181,0.119-0.288,0.119c-0.107,0-0.212-0.044-0.288-0.119c-0.076-0.076-0.119-0.181-0.119-0.288
			c0-0.107,0.043-0.212,0.119-0.288c0.076-0.076,0.18-0.119,0.288-0.119c0.107,0,0.212,0.044,0.288,0.119
			c0.076,0.076,0.119,0.181,0.119,0.288C14.729,11.424,14.685,11.529,14.609,11.605z M16.795,11.605
			c-0.076,0.076-0.181,0.119-0.288,0.119c-0.107,0-0.212-0.044-0.288-0.119c-0.076-0.076-0.119-0.181-0.119-0.288
			c0-0.107,0.044-0.212,0.119-0.288c0.076-0.076,0.181-0.119,0.288-0.119c0.108,0,0.212,0.044,0.288,0.119
			c0.076,0.076,0.119,0.181,0.119,0.288C16.914,11.424,16.871,11.529,16.795,11.605z M25.331,11.724h-5.763
			c-0.225,0-0.407-0.182-0.407-0.407c0-0.225,0.182-0.407,0.407-0.407h5.763c0.225,0,0.407,0.182,0.407,0.407
			C25.739,11.542,25.556,11.724,25.331,11.724z"/>
		<path fill="none" stroke="#201E20" stroke-width="0.6972" stroke-miterlimit="10" d="M20.24,26.957
			c-0.225,0-0.407,0.182-0.407,0.407s0.182,0.407,0.407,0.407h2.266c-0.036-0.267-0.057-0.538-0.057-0.815H20.24z"/>
		<path fill="none" stroke="#201E20" stroke-width="0.6972" stroke-miterlimit="10" d="M12.706,29.156
			c-0.225,0-0.407-0.183-0.407-0.407v-0.977h4.684c0.225,0,0.407-0.182,0.407-0.407s-0.182-0.407-0.407-0.407h-6.476
			c-0.225,0-0.407-0.183-0.407-0.407V13.516h17.024v7.589c0.265-0.06,0.537-0.102,0.815-0.126v-5.264h1.385v5.305
			c0.278,0.041,0.55,0.101,0.815,0.178v-8.66c0-0.674-0.548-1.222-1.222-1.222h-0.977V10.34c0-0.674-0.548-1.222-1.222-1.222h-16.21
			c-0.674,0-1.222,0.548-1.222,1.222v16.21c0,0.674,0.548,1.222,1.222,1.222h0.978v0.977c0,0.674,0.548,1.222,1.222,1.222h10.557
			c-0.151-0.26-0.283-0.532-0.395-0.815H12.706z M27.938,12.132h0.977c0.225,0,0.407,0.183,0.407,0.407v2.362h-1.385V12.132z
			 M10.099,10.34c0-0.225,0.183-0.407,0.407-0.407h16.21c0.225,0,0.407,0.183,0.407,0.407v2.362H10.099V10.34z"/>
		<path fill="#201E20" d="M12.136,10.91c-0.107,0-0.212,0.044-0.288,0.119c-0.076,0.076-0.119,0.181-0.119,0.288
			c0,0.107,0.044,0.212,0.119,0.288c0.076,0.076,0.181,0.119,0.288,0.119c0.107,0,0.212-0.044,0.288-0.119
			c0.076-0.076,0.119-0.181,0.119-0.288c0-0.107-0.044-0.212-0.119-0.288C12.348,10.953,12.243,10.91,12.136,10.91z"/>
		<path fill="#201E20" d="M14.322,10.91c-0.108,0-0.212,0.044-0.288,0.119c-0.076,0.076-0.119,0.181-0.119,0.288
			c0,0.107,0.043,0.212,0.119,0.288c0.076,0.076,0.181,0.119,0.288,0.119c0.107,0,0.212-0.044,0.288-0.119
			c0.076-0.076,0.119-0.181,0.119-0.288c0-0.107-0.044-0.212-0.119-0.288C14.534,10.953,14.429,10.91,14.322,10.91z"/>
		<path fill="#201E20" d="M16.507,10.91c-0.107,0-0.212,0.044-0.288,0.119c-0.076,0.076-0.119,0.181-0.119,0.288
			c0,0.107,0.044,0.212,0.119,0.288c0.076,0.076,0.181,0.119,0.288,0.119c0.107,0,0.212-0.044,0.288-0.119
			c0.076-0.076,0.119-0.181,0.119-0.288c0-0.107-0.043-0.212-0.119-0.288C16.719,10.953,16.614,10.91,16.507,10.91z"/>
		<path fill="#201E20" d="M25.331,10.91h-5.763c-0.225,0-0.407,0.182-0.407,0.407c0,0.225,0.182,0.407,0.407,0.407h5.763
			c0.225,0,0.407-0.182,0.407-0.407C25.739,11.092,25.556,10.91,25.331,10.91z"/>
		<path fill="#201E20" d="M15.959,17.584c1.463-1.463,3.842-1.463,5.305,0c0.159,0.159,0.159,0.417,0,0.576l-1.152,1.152
			c-0.076,0.076-0.18,0.119-0.288,0.119c-0.108,0-0.212-0.043-0.288-0.119c-0.246-0.246-0.575-0.382-0.925-0.382
			s-0.678,0.136-0.924,0.382c-0.51,0.51-0.51,1.339,0,1.849c0.246,0.246,0.575,0.382,0.924,0.382s0.678-0.136,0.925-0.382
			c0.076-0.076,0.18-0.119,0.288-0.119c0.108,0,0.212,0.043,0.288,0.119l1.152,1.152c0.159,0.159,0.159,0.417,0,0.576
			c-0.707,0.707-1.649,1.097-2.652,1.097c-1.003,0-1.945-0.39-2.652-1.097C14.496,21.426,14.496,19.047,15.959,17.584z"/>
		<path fill="none" stroke="#201E20" stroke-width="0.6972" stroke-miterlimit="10" d="M18.611,26.957
			c-0.107,0-0.212,0.044-0.288,0.119c-0.076,0.076-0.119,0.181-0.119,0.288s0.044,0.212,0.119,0.288
			c0.076,0.076,0.181,0.119,0.288,0.119c0.107,0,0.212-0.044,0.288-0.119c0.076-0.076,0.119-0.181,0.119-0.288
			s-0.044-0.212-0.119-0.288C18.824,27,18.718,26.957,18.611,26.957z"/>
	</g>
	
		<circle display="inline" fill="none" stroke="#201E20" stroke-width="0.6972" stroke-miterlimit="10" cx="28.63" cy="26.957" r="5.926"/>
	<path display="inline" fill="#201E20" d="M31.557,25.828h-1.808v-1.797c0-0.402-0.334-0.737-0.737-0.737H28.26
		c-0.403,0-0.72,0.335-0.72,0.737v1.797h-1.851c-0.403,0-0.72,0.318-0.72,0.72v0.751c0,0.401,0.317,0.73,0.72,0.73h1.851v1.856
		c0,0.402,0.32,0.734,0.72,0.734h0.752c0.403,0,0.737-0.332,0.737-0.734v-1.856h1.808c0.403,0,0.736-0.329,0.736-0.73v-0.751
		C32.293,26.147,31.96,25.828,31.557,25.828z"/>
</g>
<g opacity="0.6">
	<path fill="#201E20" d="M31.846,18.344c-3.665,7.766-4.86,7.766-5.57,7.766h-7.018c-2.457,0-4.337-1.442-4.795-3.681
		c-0.013-0.069-1.404-6.884-1.759-8.79c-0.172-0.933-0.617-1.559-2.214-1.559c-0.728,0-1.314-0.586-1.314-1.314
		c0-0.728,0.586-1.314,1.314-1.314c2.65,0,4.354,1.314,4.799,3.703c0.351,1.884,1.738,8.678,1.751,8.746
		c0.278,1.374,1.511,1.58,2.217,1.58h6.67c0.716-0.771,2.346-3.737,3.541-6.259c0.308-0.66,1.092-0.938,1.75-0.629
		C31.876,16.902,32.158,17.685,31.846,18.344L31.846,18.344z M18.381,26.988c-1.207,0-2.192,0.981-2.192,2.192
		c0,1.211,0.985,2.192,2.192,2.192c1.212,0,2.192-0.981,2.192-2.192C20.573,27.969,19.593,26.988,18.381,26.988L18.381,26.988z
		 M26.276,26.988c-1.212,0-2.192,0.981-2.192,2.192c0,1.211,0.98,2.192,2.192,2.192c1.207,0,2.192-0.981,2.192-2.192
		C28.468,27.969,27.483,26.988,26.276,26.988L26.276,26.988z M22.032,19.839c0.087,0.068,0.197,0.102,0.305,0.102
		c0.106,0,0.214-0.034,0.304-0.102c0.085-0.073,2.479-2.407,3.784-4.346c0.099-0.15,0.107-0.343,0.022-0.501
		c-0.081-0.163-0.249-0.262-0.429-0.262h-1.952c0,0-0.189-3.763-0.312-3.934c-0.184-0.262-0.929-0.437-1.417-0.437
		c-0.492,0-1.255,0.175-1.435,0.437c-0.124,0.171-0.286,3.934-0.286,3.934h-1.978c-0.18,0-0.347,0.099-0.433,0.262
		c-0.085,0.158-0.072,0.351,0.026,0.501C19.537,17.436,21.947,19.765,22.032,19.839L22.032,19.839z M22.032,19.839"/>
</g>
</svg>
