<?xml version="1.0" encoding="utf-8"?>
<!-- Generator: Adobe Illustrator 17.0.0, SVG Export Plug-In . SVG Version: 6.00 Build 0)  -->
<!DOCTYPE svg PUBLIC "-//W3C//DTD SVG 1.1//EN" "http://www.w3.org/Graphics/SVG/1.1/DTD/svg11.dtd">
<svg version="1.1" id="Слой_1" xmlns="http://www.w3.org/2000/svg" xmlns:xlink="http://www.w3.org/1999/xlink" x="0px" y="0px"
	 width="100px" height="100px" viewBox="0 0 100 100" enable-background="new 0 0 100 100" xml:space="preserve">
<g>
	<g opacity="0.6">
		<g>
			<path fill="none" d="M47.434,36.069l-10.06,7.346l-2.268-3.229c-0.692-0.987-2.053-1.225-3.041-0.532
				c-0.986,0.692-1.223,2.054-0.531,3.04l3.546,5.049c0.337,0.479,0.851,0.803,1.43,0.899c0.118,0.02,0.237,0.029,0.355,0.029
				c0.461,0,0.913-0.145,1.288-0.42l11.854-8.658c0.974-0.711,1.187-2.076,0.475-3.05C49.772,35.57,48.407,35.358,47.434,36.069z"/>
			<path fill="none" d="M40.247,18.029c-12.909,0-23.411,10.502-23.411,23.411c0,12.909,10.502,23.412,23.411,23.412
				c4.647,0,8.971-1.377,12.615-3.721c1.889-4.014,4.867-7.405,8.568-9.788c1.415-3.012,2.229-6.361,2.229-9.903
				C63.66,28.531,53.158,18.029,40.247,18.029z M40.247,60.487c-10.502,0-19.046-8.544-19.046-19.046
				c0-10.502,8.544-19.046,19.046-19.046c10.504,0,19.047,8.544,19.047,19.046C59.294,51.943,50.751,60.487,40.247,60.487z"/>
			<path fill="#201E20" d="M22.261,78.159c-1.574-0.758-2.903-1.805-3.943-3.06l-5.932,13.117c-0.269,0.597,0.032,1.047,0.175,1.212
				c0.141,0.166,0.54,0.532,1.171,0.356l4.316-1.202c0.493-0.137,0.989-0.203,1.481-0.203c2.069,0,4.016,1.171,4.953,3.112
				l1.951,4.035c0.285,0.59,0.818,0.648,1.041,0.644c0.217-0.003,0.753-0.073,1.023-0.67l9.433-20.865
				c-1.037,0.299-2.018,0.833-2.852,1.605C31.527,79.521,26.617,80.256,22.261,78.159z"/>
			<path fill="#201E20" d="M52.09,79.257c-2.419-0.236-4.748-1.238-6.673-3.017c-0.836-0.772-1.817-1.306-2.854-1.605l9.433,20.865
				c0.269,0.597,0.807,0.668,1.024,0.67c0.222,0.004,0.756-0.054,1.041-0.644l1.951-4.035c0.586-1.216,1.592-2.082,2.755-2.595
				C55.791,86.323,53.481,83.017,52.09,79.257z"/>
			<path fill="#201E20" d="M52.862,61.131c-3.644,2.343-7.968,3.721-12.615,3.721c-12.909,0-23.411-10.502-23.411-23.412
				c0-12.909,10.502-23.411,23.411-23.411c12.91,0,23.412,10.502,23.412,23.411c0,3.543-0.815,6.891-2.229,9.903
				c3.666-2.359,8.019-3.744,12.702-3.744c0.588,0,1.167,0.046,1.744,0.088c-0.061-1.951-0.894-4.11-3.11-5.627
				c-4.926-3.373-6.454-10.068-3.48-15.244c1.788-3.111,0.857-6.185-0.609-8.025c-1.467-1.839-4.257-3.43-7.688-2.38
				c-5.707,1.748-11.895-1.232-14.088-6.784c-1.317-3.337-4.301-4.527-6.654-4.527c-2.352,0-5.336,1.19-6.654,4.527
				c-2.191,5.553-8.38,8.532-14.086,6.784c-3.431-1.05-6.221,0.541-7.689,2.38c-1.467,1.84-2.396,4.913-0.609,8.025
				c2.975,5.176,1.447,11.871-3.479,15.244c-2.961,2.028-3.456,5.201-2.934,7.495c0.524,2.294,2.347,4.938,5.895,5.48
				c5.901,0.901,10.184,6.271,9.749,12.225c-0.26,3.579,1.912,5.945,4.031,6.966c2.119,1.021,5.324,1.244,7.959-1.192
				c2.193-2.025,5.005-3.039,7.818-3.039c2.814,0,5.627,1.012,7.818,3.039c0.903,0.834,1.874,1.338,2.843,1.623
				c-0.175-1.158-0.294-2.334-0.294-3.541C50.614,67.542,51.435,64.166,52.862,61.131z"/>
			<path fill="#201E20" d="M40.247,22.394c-10.502,0-19.046,8.544-19.046,19.046c0,10.502,8.544,19.046,19.046,19.046
				c10.504,0,19.047-8.544,19.047-19.046C59.294,30.938,50.751,22.394,40.247,22.394z M50.008,39.594l-11.854,8.658
				c-0.375,0.275-0.827,0.42-1.288,0.42c-0.118,0-0.237-0.01-0.355-0.029c-0.579-0.096-1.093-0.42-1.43-0.899l-3.546-5.049
				c-0.692-0.986-0.455-2.348,0.531-3.04c0.988-0.693,2.349-0.455,3.041,0.532l2.268,3.229l10.06-7.346
				c0.972-0.711,2.338-0.499,3.048,0.475C51.195,37.518,50.982,38.883,50.008,39.594z"/>
		</g>
	</g>
	<path opacity="0.6" fill="#DC121F" d="M75.877,52.258c-10.332,0-18.737,8.406-18.737,18.737c0,10.332,8.406,18.737,18.737,18.737
		s18.737-8.405,18.737-18.737C94.614,60.663,86.208,52.258,75.877,52.258L75.877,52.258z M86.086,77.207l-3.997,3.997l-6.212-6.211
		l-6.212,6.211l-3.997-3.997l6.212-6.212l-6.212-6.212l3.997-3.997l6.212,6.212l6.212-6.212l3.997,3.997l-6.212,6.212L86.086,77.207
		z M86.086,77.207"/>
</g>
</svg>
