<?xml version="1.0" encoding="utf-8"?>
<!-- Generator: Adobe Illustrator 17.0.0, SVG Export Plug-In . SVG Version: 6.00 Build 0)  -->
<!DOCTYPE svg PUBLIC "-//W3C//DTD SVG 1.1//EN" "http://www.w3.org/Graphics/SVG/1.1/DTD/svg11.dtd">
<svg version="1.1" id="Слой_1" xmlns="http://www.w3.org/2000/svg" xmlns:xlink="http://www.w3.org/1999/xlink" x="0px" y="0px"
	 width="100px" height="100px" viewBox="0 0 100 100" enable-background="new 0 0 100 100" xml:space="preserve">
<g opacity="0.6">
	<g>
		<path fill-rule="evenodd" clip-rule="evenodd" fill="#622181" d="M97.8,76.157c0,5.997-4.824,10.856-10.773,10.856H53.691
			c-5.949,0-10.773-4.859-10.773-10.856c0-5.413,3.933-9.901,9.078-10.719c-0.066-0.381-0.101-0.771-0.101-1.173
			c0-3.799,3.058-6.878,6.827-6.878c1.682,0,3.225,0.613,4.413,1.631c2.121-4.811,4.836-9.203,12.461-9.203
			c9.245,0,13.625,7.185,13.625,14.765c0,0.316-0.012,0.631-0.033,0.941C94.101,66.53,97.8,70.907,97.8,76.157L97.8,76.157z
			 M97.8,76.157"/>
	</g>
	<g>
		<path fill="none" d="M46.019,30.1c0-1.328-1.079-2.407-2.407-2.407H29.167c-1.329,0-2.408,1.079-2.408,2.407
			c0,1.329,1.079,2.408,2.408,2.408h14.445C44.94,32.508,46.019,31.429,46.019,30.1z"/>
		<path fill="none" d="M31.574,44.545c0,1.328,1.078,2.407,2.407,2.407H62.87c1.329,0,2.408-1.079,2.408-2.407
			c0-1.329-1.079-2.407-2.408-2.407H33.981C32.652,42.138,31.574,43.216,31.574,44.545z"/>
		<path fill="none" d="M36.388,58.99c0,1.328,1.079,2.407,2.407,2.407h9.32c0.023-1.833,0.689-3.493,1.757-4.815H38.796
			C37.467,56.583,36.388,57.661,36.388,58.99z"/>
		<path fill="none" d="M14.721,51.767c-3.982,0-7.222,3.241-7.222,7.223s3.24,7.223,7.222,7.223s7.223-3.241,7.223-7.223
			S18.703,51.767,14.721,51.767z"/>
		<polygon points="55.649,13.248 55.649,32.508 74.908,32.508 		"/>
		<path fill="#DC121F" d="M23.003,67.686c2.302-2.191,3.755-5.273,3.755-8.696c0-6.635-5.402-12.037-12.037-12.037
			c-6.634,0-12.037,5.402-12.037,12.037c0,3.423,1.454,6.505,3.755,8.696L2.751,82.482c-0.227,0.91,0.101,1.873,0.833,2.466
			c0.732,0.587,1.744,0.689,2.582,0.275l8.556-4.281l8.551,4.281c0.342,0.163,0.713,0.25,1.079,0.25
			c0.535,0,1.069-0.178,1.507-0.524c0.732-0.593,1.059-1.551,0.833-2.466L23.003,67.686z M14.721,66.213
			c-3.982,0-7.222-3.241-7.222-7.223s3.24-7.223,7.222-7.223s7.223,3.241,7.223,7.223S18.703,66.213,14.721,66.213z"/>
		<path d="M50.833,32.508v-19.26H21.944c-2.654,0-4.816,2.162-4.816,4.815v24.321c8.147,1.179,14.446,8.137,14.446,16.607
			c0,3.64-1.156,7.098-3.294,9.971l2.918,11.696h8.059c-0.863-1.691-1.36-3.605-1.36-5.638c0-6.156,4.472-11.26,10.324-12.191
			c-0.075-0.434-0.116-0.877-0.116-1.334c0-0.033,0.01-0.063,0.01-0.097h-9.32c-1.328,0-2.407-1.079-2.407-2.407
			c0-1.329,1.079-2.407,2.407-2.407h11.076c0.087-0.108,0.183-0.214,0.274-0.32c0.823-2.584,3.582-4.495,6.894-4.495
			c1.869,0,3.556,0.62,4.832,1.613c2.296-4.98,4.922-8.257,13.037-8.314v-7.744H55.649C52.995,37.323,50.833,35.161,50.833,32.508z
			 M29.167,32.508c-1.329,0-2.408-1.079-2.408-2.408c0-1.328,1.079-2.407,2.408-2.407h14.445c1.328,0,2.407,1.079,2.407,2.407
			c0,1.329-1.079,2.408-2.407,2.408H29.167z M65.279,44.545c0,1.328-1.079,2.407-2.408,2.407H33.981
			c-1.329,0-2.407-1.079-2.407-2.407c0-1.329,1.078-2.407,2.407-2.407H62.87C64.2,42.138,65.279,43.216,65.279,44.545z"/>
	</g>
</g>
</svg>
