<?xml version="1.0" encoding="utf-8"?>
<!-- Generator: Adobe Illustrator 17.0.0, SVG Export Plug-In . SVG Version: 6.00 Build 0)  -->
<!DOCTYPE svg PUBLIC "-//W3C//DTD SVG 1.1//EN" "http://www.w3.org/Graphics/SVG/1.1/DTD/svg11.dtd">
<svg version="1.1" id="Слой_1" xmlns="http://www.w3.org/2000/svg" xmlns:xlink="http://www.w3.org/1999/xlink" x="0px" y="0px"
	 width="100px" height="100px" viewBox="0 0 100 100" enable-background="new 0 0 100 100" xml:space="preserve">
<g opacity="0.6">
	<g>
		<path fill="none" d="M47.909,36.242l-10.053,7.342l-2.266-3.227c-0.692-0.986-2.052-1.224-3.039-0.531
			c-0.985,0.692-1.223,2.053-0.531,3.039l3.544,5.046c0.337,0.479,0.851,0.803,1.429,0.898c0.118,0.02,0.237,0.029,0.355,0.029
			c0.461,0,0.912-0.145,1.287-0.42l11.847-8.653c0.973-0.711,1.186-2.075,0.474-3.048C50.245,35.743,48.88,35.532,47.909,36.242z"/>
		<path fill="none" d="M40.726,18.213c-12.901,0-23.397,10.496-23.397,23.397c0,12.901,10.496,23.397,23.397,23.397
			c4.644,0,8.965-1.376,12.607-3.718c1.888-4.012,4.864-7.4,8.563-9.782c1.414-3.011,2.228-6.357,2.228-9.897
			C64.124,28.709,53.629,18.213,40.726,18.213z M40.726,60.645c-10.496,0-19.034-8.539-19.034-19.035
			c0-10.496,8.539-19.035,19.034-19.035c10.497,0,19.036,8.539,19.036,19.035C59.762,52.106,51.223,60.645,40.726,60.645z"/>
		<path fill="#201E20" d="M22.751,78.306c-1.573-0.758-2.901-1.804-3.94-3.058l-5.928,13.109c-0.269,0.596,0.032,1.046,0.174,1.212
			c0.141,0.166,0.54,0.531,1.171,0.356l4.314-1.201c0.493-0.137,0.989-0.203,1.48-0.203c2.067,0,4.014,1.171,4.95,3.11l1.949,4.032
			c0.285,0.59,0.817,0.648,1.041,0.644c0.217-0.003,0.753-0.073,1.022-0.67l9.428-20.853c-1.036,0.298-2.017,0.832-2.851,1.604
			C32.012,79.667,27.104,80.402,22.751,78.306z"/>
		<path fill="#201E20" d="M52.562,79.404c-2.418-0.236-4.745-1.238-6.669-3.015c-0.835-0.772-1.816-1.306-2.852-1.604l9.428,20.853
			c0.269,0.596,0.806,0.667,1.024,0.67c0.222,0.004,0.756-0.054,1.041-0.644l1.949-4.032c0.586-1.215,1.591-2.081,2.753-2.593
			C56.261,86.465,53.952,83.162,52.562,79.404z"/>
		<path fill="#201E20" d="M53.333,61.289c-3.642,2.342-7.963,3.718-12.607,3.718c-12.901,0-23.397-10.496-23.397-23.397
			c0-12.901,10.496-23.397,23.397-23.397c12.903,0,23.398,10.496,23.398,23.397c0,3.54-0.814,6.887-2.228,9.897
			c3.663-2.358,8.014-3.742,12.695-3.742c0.588,0,1.166,0.046,1.743,0.088c-0.061-1.95-0.894-4.107-3.108-5.623
			c-4.923-3.371-6.45-10.062-3.478-15.235c1.787-3.109,0.857-6.182-0.609-8.02c-1.466-1.838-4.254-3.428-7.683-2.379
			c-5.703,1.747-11.888-1.231-14.079-6.78c-1.316-3.335-4.298-4.524-6.65-4.524c-2.35,0-5.333,1.189-6.65,4.524
			c-2.19,5.549-8.375,8.527-14.078,6.78c-3.429-1.049-6.217,0.541-7.685,2.379c-1.466,1.839-2.395,4.91-0.609,8.02
			c2.973,5.172,1.446,11.864-3.477,15.235c-2.959,2.026-3.454,5.198-2.932,7.49c0.523,2.293,2.346,4.935,5.891,5.477
			c5.897,0.901,10.177,6.267,9.743,12.217c-0.26,3.577,1.911,5.941,4.029,6.962c2.118,1.02,5.32,1.243,7.954-1.191
			c2.191-2.024,5.002-3.037,7.813-3.037c2.813,0,5.623,1.012,7.813,3.037c0.903,0.834,1.873,1.337,2.842,1.622
			c-0.174-1.157-0.294-2.332-0.294-3.539C51.087,67.695,51.907,64.321,53.333,61.289z"/>
		<path fill="#201E20" d="M40.726,22.575c-10.496,0-19.034,8.539-19.034,19.035c0,10.496,8.539,19.035,19.034,19.035
			c10.497,0,19.036-8.539,19.036-19.035C59.762,31.114,51.223,22.575,40.726,22.575z M50.481,39.764l-11.847,8.653
			c-0.375,0.275-0.826,0.42-1.287,0.42c-0.118,0-0.237-0.01-0.355-0.029c-0.578-0.096-1.093-0.419-1.429-0.898l-3.544-5.046
			c-0.692-0.986-0.454-2.347,0.531-3.039c0.987-0.692,2.347-0.455,3.039,0.531l2.266,3.227l10.053-7.342
			c0.972-0.71,2.337-0.498,3.047,0.474C51.667,37.689,51.454,39.054,50.481,39.764z"/>
	</g>
	<path fill="#622181" d="M58.916,68.305l9.884-7.413c0.371-0.282,0.875-0.326,1.292-0.116c0.42,0.21,0.684,0.638,0.684,1.105v3.706
		h3.706c7.494,0,13.59,6.096,13.59,13.59c0,0.573-0.395,1.072-0.951,1.203c-0.094,0.022-0.19,0.032-0.284,0.032
		c-0.46,0-0.892-0.257-1.105-0.682l-0.292-0.581C83.547,75.357,79.736,73,75.496,73h-4.719v3.706c0,0.467-0.264,0.894-0.682,1.105
		c-0.418,0.21-0.922,0.166-1.295-0.116l-9.884-7.413c-0.311-0.232-0.494-0.6-0.494-0.988S58.605,68.537,58.916,68.305z"/>
	<circle fill="none" stroke="#201E20" stroke-width="2.4709" stroke-miterlimit="10" cx="74.111" cy="71.185" r="21.003"/>
</g>
</svg>
