<?xml version="1.0" encoding="utf-8"?>
<!-- Generator: Adobe Illustrator 17.0.0, SVG Export Plug-In . SVG Version: 6.00 Build 0)  -->
<!DOCTYPE svg PUBLIC "-//W3C//DTD SVG 1.1//EN" "http://www.w3.org/Graphics/SVG/1.1/DTD/svg11.dtd">
<svg version="1.1" id="Слой_1" xmlns="http://www.w3.org/2000/svg" xmlns:xlink="http://www.w3.org/1999/xlink" x="0px" y="0px"
	 width="100px" height="100px" viewBox="0 0 100 100" enable-background="new 0 0 100 100" xml:space="preserve">
<g opacity="0.6">
	<g>
		<path fill="none" d="M48.034,36.569l-10.053,7.342l-2.266-3.227c-0.692-0.986-2.052-1.224-3.039-0.531
			c-0.985,0.692-1.223,2.053-0.531,3.039l3.544,5.046c0.337,0.479,0.851,0.803,1.429,0.898c0.118,0.02,0.237,0.029,0.355,0.029
			c0.461,0,0.912-0.145,1.287-0.42l11.847-8.653c0.973-0.711,1.186-2.075,0.474-3.048C50.371,36.071,49.006,35.859,48.034,36.569z"
			/>
		<path fill="none" d="M40.852,18.54c-12.901,0-23.397,10.496-23.397,23.397c0,12.901,10.496,23.397,23.397,23.397
			c4.644,0,8.965-1.376,12.607-3.718c1.888-4.012,4.864-7.4,8.563-9.782c1.414-3.011,2.228-6.357,2.228-9.897
			C64.25,29.036,53.754,18.54,40.852,18.54z M40.852,60.972c-10.496,0-19.034-8.539-19.034-19.035
			c0-10.496,8.539-19.035,19.034-19.035c10.497,0,19.036,8.539,19.036,19.035C59.887,52.433,51.349,60.972,40.852,60.972z"/>
		<path fill="#201E20" d="M22.876,78.633c-1.573-0.758-2.901-1.804-3.94-3.058l-5.928,13.109c-0.269,0.596,0.032,1.046,0.174,1.212
			c0.141,0.166,0.54,0.531,1.171,0.356l4.314-1.201c0.493-0.137,0.989-0.203,1.48-0.203c2.067,0,4.014,1.171,4.95,3.11l1.949,4.032
			c0.285,0.59,0.817,0.648,1.041,0.644c0.217-0.003,0.753-0.073,1.022-0.67l9.428-20.853c-1.036,0.298-2.017,0.832-2.851,1.604
			C32.137,79.995,27.23,80.729,22.876,78.633z"/>
		<path fill="#201E20" d="M52.688,79.731c-2.418-0.236-4.745-1.238-6.669-3.015c-0.835-0.772-1.816-1.306-2.852-1.604l9.428,20.853
			c0.269,0.596,0.806,0.667,1.024,0.67c0.222,0.004,0.756-0.054,1.041-0.644l1.949-4.032c0.586-1.215,1.591-2.081,2.753-2.593
			C56.386,86.793,54.077,83.489,52.688,79.731z"/>
		<path fill="#201E20" d="M53.459,61.616c-3.642,2.342-7.963,3.718-12.607,3.718c-12.901,0-23.397-10.496-23.397-23.397
			c0-12.901,10.496-23.397,23.397-23.397c12.903,0,23.398,10.496,23.398,23.397c0,3.54-0.814,6.887-2.228,9.897
			c3.663-2.358,8.014-3.742,12.695-3.742c0.588,0,1.166,0.046,1.743,0.088c-0.061-1.95-0.894-4.107-3.108-5.623
			c-4.923-3.371-6.45-10.062-3.478-15.235c1.787-3.109,0.857-6.182-0.609-8.02c-1.466-1.838-4.254-3.428-7.683-2.379
			c-5.703,1.747-11.888-1.231-14.079-6.78c-1.316-3.335-4.298-4.524-6.65-4.524c-2.35,0-5.333,1.189-6.65,4.524
			c-2.19,5.549-8.375,8.527-14.078,6.78c-3.429-1.049-6.217,0.541-7.685,2.379c-1.466,1.839-2.395,4.91-0.609,8.02
			c2.973,5.172,1.446,11.864-3.477,15.235c-2.959,2.026-3.454,5.198-2.932,7.49c0.523,2.293,2.346,4.935,5.891,5.477
			c5.897,0.901,10.177,6.267,9.743,12.217c-0.26,3.577,1.911,5.941,4.029,6.962c2.118,1.02,5.32,1.243,7.954-1.191
			c2.191-2.024,5.002-3.037,7.813-3.037c2.813,0,5.623,1.012,7.813,3.037c0.903,0.834,1.873,1.337,2.842,1.622
			c-0.174-1.157-0.294-2.332-0.294-3.539C51.213,68.023,52.033,64.649,53.459,61.616z"/>
		<path fill="#201E20" d="M40.852,22.903c-10.496,0-19.034,8.539-19.034,19.035c0,10.496,8.539,19.035,19.034,19.035
			c10.497,0,19.036-8.539,19.036-19.035C59.887,31.442,51.349,22.903,40.852,22.903z M50.607,40.092L38.76,48.744
			c-0.375,0.275-0.826,0.42-1.287,0.42c-0.118,0-0.237-0.01-0.355-0.029c-0.578-0.096-1.093-0.419-1.429-0.898l-3.544-5.046
			c-0.692-0.986-0.454-2.347,0.531-3.039c0.987-0.692,2.347-0.455,3.039,0.531l2.266,3.227l10.053-7.342
			c0.972-0.71,2.337-0.498,3.047,0.474C51.793,38.017,51.58,39.381,50.607,40.092z"/>
	</g>
	<circle fill="none" stroke="#201E20" stroke-width="2.4709" stroke-miterlimit="10" cx="74.237" cy="71.512" r="21.003"/>
	<g>
		<path fill-rule="evenodd" clip-rule="evenodd" fill="#622181" d="M89.05,75.692c0,3.237-2.604,5.86-5.815,5.86H65.239
			c-3.212,0-5.815-2.623-5.815-5.86c0-2.922,2.123-5.345,4.901-5.787c-0.035-0.206-0.055-0.416-0.055-0.633
			c0-2.051,1.651-3.713,3.686-3.713c0.908,0,1.741,0.331,2.382,0.881c1.145-2.597,2.61-4.968,6.727-4.968
			c4.991,0,7.355,3.879,7.355,7.971c0,0.17-0.007,0.341-0.018,0.508C87.054,70.496,89.05,72.859,89.05,75.692L89.05,75.692z
			 M89.05,75.692"/>
	</g>
</g>
</svg>
