<?xml version="1.0" encoding="utf-8"?>
<!-- Generator: Adobe Illustrator 17.0.0, SVG Export Plug-In . SVG Version: 6.00 Build 0)  -->
<!DOCTYPE svg PUBLIC "-//W3C//DTD SVG 1.1//EN" "http://www.w3.org/Graphics/SVG/1.1/DTD/svg11.dtd">
<svg version="1.1" id="Слой_1" xmlns="http://www.w3.org/2000/svg" xmlns:xlink="http://www.w3.org/1999/xlink" x="0px" y="0px"
	 width="100px" height="100px" viewBox="0 0 100 100" enable-background="new 0 0 100 100" xml:space="preserve">
<g opacity="0.6">
	<g>
		<circle fill="none" stroke="#201E20" stroke-width="3.6091" stroke-miterlimit="10" cx="63.355" cy="69.719" r="21.898"/>
		<g>
			<path fill="#009036" d="M75.347,65.081h-7.41v-7.386c0-1.652-1.368-3.03-3.02-3.03h-3.082c-1.652,0-2.95,1.378-2.95,3.03v7.386
				h-7.587c-1.652,0-2.95,1.309-2.95,2.961v3.085c0,1.648,1.299,3.002,2.95,3.002h7.587v7.628c0,1.652,1.312,3.016,2.95,3.016h3.082
				c1.652,0,3.02-1.364,3.02-3.016v-7.628h7.41c1.652,0,3.016-1.354,3.016-3.002v-3.085C78.363,66.39,76.998,65.081,75.347,65.081
				L75.347,65.081z"/>
			<path fill="#009036" d="M75.347,65.081"/>
		</g>
	</g>
	<g>
		<g>
			<path fill="none" d="M39.141,57.1l1.379,0.204c1.078-2.284,2.483-4.375,4.163-6.221l-1.923-1.946L39.141,57.1z"/>
			<polygon fill="none" points="18.606,84.969 20.911,87.693 38.722,48.3 36.836,44.528 			"/>
			<path fill="none" d="M48.525,11.748c-9.837,0-19.184,10.739-17.926,18.544c0.078,0.48,0.182,3.121,1.582,4.505
				c3.067,3.031,7.623,5.36,10.534,6.6c2.245,0.957,6.729,2.756,10.226,3.662c2.494-1.131,5.197-1.88,8.045-2.145
				c2.963-3.129,5.35-8.426,5.35-13.199C66.336,19.792,58.361,11.748,48.525,11.748z M55.51,42.744
				c-2.2,0.458-9.083-2.294-11.848-3.472c-2.427-1.034-6.225-2.976-8.782-5.503c-1.168-1.154-1.254-3.356-1.319-3.756
				c-1.048-6.507,6.744-15.461,14.945-15.461c8.201,0,14.85,6.707,14.85,14.98C63.355,35.25,59.271,41.961,55.51,42.744z"/>
			<path fill="none" d="M49.77,19.383h-0.628c-2.315,0-4.191,1.876-4.191,4.191v0.838c0,2.315,1.876,4.191,4.191,4.191h0.628
				c2.314,0,4.191-1.876,4.191-4.191v-0.838C53.96,21.259,52.084,19.383,49.77,19.383z"/>
			<path fill="#201E20" d="M48.506,14.552c-8.201,0-15.993,8.953-14.945,15.461c0.065,0.401,0.151,2.602,1.319,3.756
				c2.557,2.527,6.356,4.469,8.782,5.503c2.765,1.178,9.648,3.931,11.848,3.472c3.761-0.783,7.845-7.494,7.845-13.212
				C63.355,21.259,56.707,14.552,48.506,14.552z M53.96,24.412c0,2.315-1.877,4.191-4.191,4.191h-0.628
				c-2.315,0-4.191-1.876-4.191-4.191v-0.838c0-2.315,1.876-4.191,4.191-4.191h0.628c2.314,0,4.191,1.876,4.191,4.191V24.412z"/>
			<path fill="#201E20" d="M39.141,57.1l3.619-7.962l1.923,1.946c2.302-2.531,5.102-4.592,8.258-6.023
				c-3.497-0.906-7.981-2.706-10.226-3.662c-2.911-1.24-7.467-3.569-10.534-6.6c-1.401-1.384-1.505-4.025-1.582-4.505
				c-1.257-7.805,8.089-18.544,17.926-18.544c9.836,0,17.811,8.044,17.811,17.968c0,4.773-2.387,10.07-5.35,13.199
				c0.781-0.073,1.57-0.12,2.37-0.12c0.926,0,1.838,0.057,2.738,0.154c2.455-3.51,3.904-7.769,3.904-12.369
				c0-11.985-9.768-21.701-21.819-21.701S26.359,18.595,26.359,30.58c0,5.957,2.415,11.352,6.322,15.274
				c-3.003,8.413-17.428,38.999-17.428,38.999l5.658,7.45l9.01-3.143l-0.838-5.448l5.658-1.676l-2.305-6.705l5.658-2.724
				l-1.467-8.801l1.976-0.824c0.406-1.992,1.072-3.885,1.918-5.676L39.141,57.1z M20.911,87.693l-2.305-2.724l18.23-40.441
				l1.886,3.772L20.911,87.693z"/>
		</g>
	</g>
</g>
</svg>
