<?xml version="1.0" encoding="utf-8"?>
<!-- Generator: Adobe Illustrator 17.0.0, SVG Export Plug-In . SVG Version: 6.00 Build 0)  -->
<!DOCTYPE svg PUBLIC "-//W3C//DTD SVG 1.1//EN" "http://www.w3.org/Graphics/SVG/1.1/DTD/svg11.dtd">
<svg version="1.1" id="Слой_1" xmlns="http://www.w3.org/2000/svg" xmlns:xlink="http://www.w3.org/1999/xlink" x="0px" y="0px"
	 width="100px" height="100px" viewBox="0 0 100 100" enable-background="new 0 0 100 100" xml:space="preserve">
<g opacity="0.6">
	<g>
		<path fill="none" d="M40.374,57.292l1.448,0.215c1.132-2.398,2.607-4.594,4.371-6.532l-2.019-2.043L40.374,57.292z"/>
		<polygon fill="none" points="18.812,86.555 21.232,89.415 39.934,48.052 37.954,44.092 		"/>
		<path fill="none" d="M50.227,9.673c-10.329,0-20.143,11.276-18.823,19.471c0.081,0.504,0.191,3.277,1.661,4.731
			c3.221,3.182,8.004,5.628,11.061,6.93c2.358,1.005,7.065,2.894,10.737,3.845c2.619-1.188,5.457-1.974,8.447-2.253
			c3.111-3.285,5.618-8.847,5.618-13.859C68.928,18.119,60.555,9.673,50.227,9.673z M57.561,42.219
			c-2.31,0.481-9.537-2.409-12.441-3.646c-2.548-1.086-6.536-3.125-9.222-5.778c-1.226-1.212-1.317-3.523-1.385-3.944
			c-1.101-6.833,7.082-16.234,15.693-16.234c8.611,0,15.592,7.042,15.592,15.729C65.799,34.35,61.51,41.396,57.561,42.219z"/>
		<path fill="none" d="M51.534,17.69h-0.66c-2.43,0-4.4,1.97-4.4,4.4v0.88c0,2.43,1.97,4.4,4.4,4.4h0.66c2.43,0,4.4-1.97,4.4-4.4
			v-0.88C55.934,19.66,53.964,17.69,51.534,17.69z"/>
		<path fill="#201E20" d="M50.207,12.617c-8.611,0-16.793,9.401-15.693,16.234c0.068,0.421,0.159,2.733,1.385,3.944
			c2.685,2.653,6.673,4.692,9.222,5.778c2.903,1.237,10.131,4.127,12.441,3.646c3.949-0.822,8.237-7.869,8.237-13.873
			C65.799,19.659,58.818,12.617,50.207,12.617z M55.934,22.97c0,2.43-1.97,4.4-4.4,4.4h-0.66c-2.43,0-4.4-1.97-4.4-4.4v-0.88
			c0-2.43,1.97-4.4,4.4-4.4h0.66c2.43,0,4.4,1.97,4.4,4.4V22.97z"/>
		<path fill="#201E20" d="M40.374,57.292l3.8-8.361l2.019,2.043c2.417-2.658,5.357-4.821,8.671-6.325
			c-3.672-0.952-8.38-2.841-10.737-3.845c-3.057-1.302-7.84-3.748-11.061-6.93c-1.471-1.453-1.58-4.226-1.661-4.731
			c-1.32-8.195,8.494-19.471,18.823-19.471c10.328,0,18.701,8.447,18.701,18.866c0,5.012-2.506,10.574-5.618,13.859
			c0.82-0.076,1.648-0.126,2.488-0.126c0.972,0,1.93,0.06,2.875,0.162c2.578-3.686,4.099-8.157,4.099-12.988
			c0-12.584-10.257-22.786-22.91-22.786s-22.91,10.201-22.91,22.786c0,6.255,2.536,11.92,6.638,16.037
			c-3.154,8.833-18.299,40.95-18.299,40.95l5.94,7.822l9.461-3.3l-0.88-5.72l5.94-1.76l-2.42-7.04l5.94-2.86l-1.54-9.241
			l2.075-0.866c0.427-2.092,1.126-4.079,2.013-5.96L40.374,57.292z M21.232,89.415l-2.42-2.86l19.141-42.463l1.98,3.961
			L21.232,89.415z"/>
	</g>
	<path fill="#DC121F" d="M64.791,46.253c-11.304,0-20.501,9.197-20.501,20.5c0,11.304,9.197,20.501,20.501,20.501
		s20.501-9.196,20.501-20.501C85.292,55.449,76.095,46.253,64.791,46.253L64.791,46.253z M75.961,73.55l-4.373,4.373l-6.797-6.796
		l-6.797,6.796l-4.373-4.373l6.797-6.797l-6.797-6.797l4.373-4.373l6.797,6.797l6.797-6.797l4.373,4.373l-6.797,6.797L75.961,73.55z
		 M75.961,73.55"/>
</g>
</svg>
