<?xml version="1.0" encoding="utf-8"?>
<!-- Generator: Adobe Illustrator 17.0.0, SVG Export Plug-In . SVG Version: 6.00 Build 0)  -->
<!DOCTYPE svg PUBLIC "-//W3C//DTD SVG 1.1//EN" "http://www.w3.org/Graphics/SVG/1.1/DTD/svg11.dtd">
<svg version="1.1" id="Слой_1" xmlns="http://www.w3.org/2000/svg" xmlns:xlink="http://www.w3.org/1999/xlink" x="0px" y="0px"
	 width="100px" height="100px" viewBox="0 0 100 100" enable-background="new 0 0 100 100" xml:space="preserve">
<g>
	<g opacity="0.6">
		<g>
			<path d="M81.144,36.677c0.407-0.773,0.646-1.628,0.646-2.529c0-1.459-0.566-2.829-1.595-3.856l-21.746-21.8
				c-2.05-2.062-5.644-2.06-7.69-0.002l-7.248,7.266c-1.028,1.027-1.595,2.397-1.595,3.856s0.567,2.828,1.593,3.854l15.52,15.559
				c4.252-2.169,9.05-3.418,14.143-3.418C75.931,35.608,78.594,36.003,81.144,36.677z"/>
			<path d="M55.776,40.91L41.994,27.113c-0.595-0.597-1.519-0.704-2.228-0.264c-5.292,3.248-13.583,7.12-23.028,7.12
				c-0.809,0-1.52,0.537-1.743,1.316L2.111,80.431c-0.228,0.804,0.12,1.66,0.846,2.075c0.724,0.409,1.641,0.28,2.214-0.331
				l21.56-22.854c0.724-0.769,1.066-1.852,0.936-2.972c-0.25-2.19,0.752-4.187,2.678-5.341c1.692-1.01,3.938-0.96,5.604,0.119
				c1.443,0.941,2.335,2.378,2.508,4.045c0.172,1.643-0.398,3.254-1.563,4.42c-1.166,1.168-2.781,1.722-4.455,1.536
				c-1.142-0.135-2.189,0.209-2.961,0.941L6.649,83.655c-0.607,0.574-0.744,1.488-0.331,2.217c0.329,0.578,0.936,0.916,1.575,0.916
				c0.165,0,0.333-0.023,0.498-0.069l35.126-10.047c-1.025-3.09-1.601-6.384-1.601-9.814C41.916,56.059,47.423,46.526,55.776,40.91z
				"/>
		</g>
	</g>
	<g opacity="0.6">
		<path fill="#622181" d="M54.918,63.123l11.752-8.814c0.441-0.335,1.04-0.388,1.537-0.138c0.499,0.25,0.814,0.758,0.814,1.313
			v4.407h4.407c8.911,0,16.159,7.248,16.159,16.159c0,0.682-0.47,1.275-1.131,1.431c-0.112,0.026-0.226,0.038-0.338,0.038
			c-0.546,0-1.061-0.306-1.313-0.811l-0.347-0.69c-2.253-4.51-6.784-7.313-11.825-7.313h-5.612v4.407
			c0,0.555-0.314,1.064-0.811,1.313c-0.497,0.25-1.096,0.197-1.54-0.138l-11.752-8.814c-0.37-0.276-0.588-0.714-0.588-1.175
			C54.331,63.836,54.548,63.399,54.918,63.123z"/>
		<circle fill="none" stroke="#000000" stroke-width="3.5989" stroke-miterlimit="10" cx="72.986" cy="66.547" r="24.973"/>
	</g>
</g>
</svg>
