<?xml version="1.0" encoding="utf-8"?>
<!-- Generator: Adobe Illustrator 17.0.0, SVG Export Plug-In . SVG Version: 6.00 Build 0)  -->
<!DOCTYPE svg PUBLIC "-//W3C//DTD SVG 1.1//EN" "http://www.w3.org/Graphics/SVG/1.1/DTD/svg11.dtd">
<svg version="1.1" id="Слой_1" xmlns="http://www.w3.org/2000/svg" xmlns:xlink="http://www.w3.org/1999/xlink" x="0px" y="0px"
	 width="100px" height="100px" viewBox="0 0 100 100" enable-background="new 0 0 100 100" xml:space="preserve">
<g>
	<g>
		<path fill="#555555" d="M95.317,67.696L76.821,47.415v12.101h-3.932c-12.194,0-22.078,9.885-22.078,22.078v6.412l1.747-1.914
			c5.939-6.506,14.341-10.214,23.151-10.214h1.113v12.101L95.317,67.696z M95.317,67.696"/>
	</g>
	<g>
		<polygon fill="#555555" points="55.624,14.999 55.624,33.523 74.147,33.523 		"/>
		<path fill="#555555" d="M24.228,67.355c2.213-2.107,3.611-5.071,3.611-8.363c0-6.381-5.195-11.577-11.576-11.577
			S4.686,52.61,4.686,58.991c0,3.292,1.399,6.256,3.612,8.363L4.751,81.585c-0.217,0.875,0.097,1.801,0.801,2.371
			c0.704,0.565,1.677,0.662,2.482,0.263l8.229-4.116l8.224,4.116c0.329,0.158,0.685,0.241,1.037,0.241
			c0.514,0,1.028-0.171,1.449-0.504c0.704-0.569,1.019-1.491,0.802-2.371L24.228,67.355z M16.263,65.938
			c-3.83,0-6.946-3.117-6.946-6.946s3.117-6.946,6.946-6.946s6.946,3.117,6.946,6.946S20.092,65.938,16.263,65.938z"/>
		<path fill="#555555" d="M39.417,61.306c-1.278,0-2.315-1.037-2.315-2.315s1.037-2.315,2.315-2.315h17.077
			c4.741-4.708,10.804-8.282,17.653-10.222v-8.302H55.624c-2.552,0-4.631-2.079-4.631-4.63V14.999H23.209
			c-2.552,0-4.631,2.08-4.631,4.631v23.39c7.836,1.134,13.892,7.826,13.892,15.971c0,3.501-1.112,6.825-3.167,9.59L32.11,79.83
			h13.79c0.355-6.829,2.746-13.166,6.626-18.523H39.417z M30.155,33.523c-1.278,0-2.316-1.037-2.316-2.316
			c0-1.278,1.038-2.315,2.316-2.315h13.892c1.278,0,2.315,1.037,2.315,2.315c0,1.279-1.037,2.316-2.315,2.316H30.155z M32.47,45.099
			c0-1.278,1.037-2.315,2.315-2.315H62.57c1.278,0,2.315,1.037,2.315,2.315s-1.037,2.315-2.315,2.315H34.785
			C33.508,47.414,32.47,46.377,32.47,45.099z"/>
	</g>
</g>
</svg>
