<?xml version="1.0" encoding="utf-8"?>
<!-- Generator: Adobe Illustrator 17.0.0, SVG Export Plug-In . SVG Version: 6.00 Build 0)  -->
<!DOCTYPE svg PUBLIC "-//W3C//DTD SVG 1.1//EN" "http://www.w3.org/Graphics/SVG/1.1/DTD/svg11.dtd">
<svg version="1.1" id="Слой_1" xmlns="http://www.w3.org/2000/svg" xmlns:xlink="http://www.w3.org/1999/xlink" x="0px" y="0px"
	 width="100px" height="100px" viewBox="0 0 100 100" enable-background="new 0 0 100 100" xml:space="preserve">
<g>
	<path fill="#555555" d="M72.792,45.946c-13.298,0-24.078,10.35-24.078,23.116s10.78,23.116,24.078,23.116
		s24.076-10.35,24.076-23.116S86.09,45.946,72.792,45.946z M72.797,84.788c-4.118,0-7.856-1.596-10.668-4.184
		c-3.104-2.879-5.069-6.976-5.069-11.549c0-8.683,7.047-15.719,15.737-15.719c3.047,0,5.873,0.885,8.283,2.373
		c4.456,2.768,7.444,7.707,7.444,13.346C88.524,77.745,81.477,84.788,72.797,84.788z M81.912,65.535h-5.636v-5.617
		c0-1.256-1.04-2.304-2.296-2.304h-2.344c-1.256,0-2.244,1.048-2.244,2.304v5.617h-5.77c-1.256,0-2.244,0.996-2.244,2.252v2.346
		c0,1.254,0.988,2.283,2.244,2.283h5.77v5.802c0,1.256,0.998,2.294,2.244,2.294h2.344c1.256,0,2.296-1.038,2.296-2.294v-5.802h5.636
		c1.256,0,2.294-1.03,2.294-2.283v-2.346C84.205,66.53,83.168,65.535,81.912,65.535L81.912,65.535z M81.912,65.535"/>
	<g>
		<polygon fill="#555555" points="55.346,10.487 55.346,28.76 73.618,28.76 		"/>
		<path fill="#555555" d="M24.374,62.135c2.183-2.079,3.563-5.002,3.563-8.25c0-6.295-5.125-11.421-11.42-11.421
			S5.096,47.589,5.096,53.884c0,3.248,1.38,6.171,3.563,8.25L5.16,76.173c-0.214,0.863,0.096,1.777,0.79,2.339
			c0.695,0.557,1.654,0.653,2.448,0.26l8.118-4.061l8.113,4.061c0.324,0.156,0.676,0.238,1.023,0.238
			c0.507,0,1.015-0.169,1.43-0.497c0.695-0.562,1.005-1.471,0.791-2.339L24.374,62.135z M16.517,60.737
			c-3.778,0-6.852-3.075-6.852-6.852c0-3.778,3.075-6.852,6.852-6.852s6.852,3.075,6.852,6.852
			C23.369,57.662,20.294,60.737,16.517,60.737z"/>
		<path fill="#555555" d="M47.565,56.168h-8.207c-1.261,0-2.284-1.023-2.284-2.284s1.023-2.284,2.284-2.284h11.327
			c4.957-5.815,12.429-9.52,20.793-9.52c0.107,0,0.211,0.015,0.318,0.015c0.603-0.202,1.206-0.404,1.822-0.579v-8.189H55.346
			c-2.517,0-4.569-2.051-4.569-4.568V10.487H23.369c-2.517,0-4.568,2.051-4.568,4.568v23.074c7.73,1.118,13.705,7.72,13.705,15.755
			c0,3.454-1.097,6.733-3.124,9.46l2.768,11.097H45.19c-0.466-1.936-0.738-3.945-0.738-6.02
			C44.453,63.995,45.585,59.83,47.565,56.168z M30.221,28.76c-1.261,0-2.285-1.023-2.285-2.285c0-1.261,1.024-2.284,2.285-2.284
			h13.705c1.261,0,2.284,1.023,2.284,2.284c0,1.262-1.023,2.285-2.284,2.285H30.221z M32.505,40.18c0-1.261,1.023-2.284,2.284-2.284
			h27.409c1.261,0,2.284,1.023,2.284,2.284s-1.023,2.284-2.284,2.284H34.789C33.528,42.463,32.505,41.44,32.505,40.18z"/>
	</g>
</g>
</svg>
