<?xml version="1.0" encoding="utf-8"?>
<!-- Generator: Adobe Illustrator 17.0.0, SVG Export Plug-In . SVG Version: 6.00 Build 0)  -->
<!DOCTYPE svg PUBLIC "-//W3C//DTD SVG 1.1//EN" "http://www.w3.org/Graphics/SVG/1.1/DTD/svg11.dtd">
<svg version="1.1" id="Слой_1" xmlns="http://www.w3.org/2000/svg" xmlns:xlink="http://www.w3.org/1999/xlink" x="0px" y="0px"
	 width="100px" height="100px" viewBox="0 0 100 100" enable-background="new 0 0 100 100" xml:space="preserve">
<g opacity="0.5">
	<g>
		<path fill-rule="evenodd" clip-rule="evenodd" d="M96.795,78.116c0,5.879-4.729,10.643-10.562,10.643H53.55
			c-5.833,0-10.562-4.764-10.562-10.643c0-5.307,3.856-9.707,8.9-10.509c-0.064-0.374-0.099-0.756-0.099-1.15
			c0-3.725,2.998-6.743,6.694-6.743c1.649,0,3.162,0.601,4.326,1.599c2.079-4.717,4.741-9.023,12.217-9.023
			c9.064,0,13.358,7.044,13.358,14.476c0,0.309-0.012,0.619-0.032,0.922C93.169,68.678,96.795,72.969,96.795,78.116L96.795,78.116z
			 M96.795,78.116"/>
	</g>
	<g>
		<path fill="none" d="M46.029,32.961c0-1.302-1.058-2.36-2.36-2.36H29.507c-1.303,0-2.361,1.058-2.361,2.36
			c0,1.303,1.058,2.361,2.361,2.361h14.162C44.971,35.322,46.029,34.264,46.029,32.961z"/>
		<path fill="none" d="M31.867,47.124c0,1.302,1.057,2.36,2.36,2.36H62.55c1.303,0,2.361-1.058,2.361-2.36
			c0-1.303-1.058-2.36-2.361-2.36H34.227C32.924,44.763,31.867,45.82,31.867,47.124z"/>
		<path fill="none" d="M36.587,61.285c0,1.302,1.058,2.36,2.36,2.36h9.137c0.022-1.797,0.675-3.424,1.722-4.72H38.947
			C37.645,58.925,36.587,59.982,36.587,61.285z"/>
		<path fill="none" d="M15.344,54.204c-3.904,0-7.08,3.177-7.08,7.081s3.176,7.081,7.08,7.081s7.081-3.177,7.081-7.081
			S19.248,54.204,15.344,54.204z"/>
		<polygon points="55.47,16.439 55.47,35.322 74.352,35.322 		"/>
		<path d="M23.464,69.811c2.256-2.149,3.682-5.17,3.682-8.526c0-6.505-5.296-11.802-11.802-11.802
			c-6.504,0-11.802,5.296-11.802,11.802c0,3.356,1.425,6.377,3.682,8.526L3.609,84.317c-0.222,0.892,0.099,1.837,0.816,2.418
			c0.718,0.576,1.709,0.675,2.531,0.269l8.388-4.197l8.384,4.197c0.335,0.16,0.699,0.245,1.058,0.245
			c0.525,0,1.048-0.174,1.478-0.514c0.718-0.581,1.038-1.52,0.816-2.418L23.464,69.811z M15.344,68.366
			c-3.904,0-7.08-3.177-7.08-7.081s3.176-7.081,7.08-7.081s7.081,3.177,7.081,7.081S19.248,68.366,15.344,68.366z"/>
		<path d="M50.749,35.322V16.439H22.426c-2.602,0-4.721,2.12-4.721,4.72v23.844c7.987,1.156,14.163,7.978,14.163,16.281
			c0,3.568-1.134,6.958-3.23,9.776l2.861,11.467h7.901c-0.846-1.658-1.333-3.534-1.333-5.528c0-6.035,4.385-11.04,10.122-11.952
			c-0.074-0.425-0.113-0.86-0.113-1.308c0-0.032,0.01-0.062,0.01-0.095h-9.137c-1.302,0-2.36-1.058-2.36-2.36
			c0-1.303,1.058-2.36,2.36-2.36h10.859c0.085-0.106,0.179-0.209,0.268-0.314c0.807-2.533,3.512-4.407,6.759-4.407
			c1.832,0,3.486,0.608,4.737,1.581c2.251-4.883,4.826-8.095,12.781-8.151v-7.592H55.47C52.869,40.042,50.749,37.922,50.749,35.322z
			 M29.507,35.322c-1.303,0-2.361-1.058-2.361-2.361c0-1.302,1.058-2.36,2.361-2.36h14.162c1.302,0,2.36,1.058,2.36,2.36
			c0,1.303-1.058,2.361-2.36,2.361H29.507z M64.912,47.124c0,1.302-1.058,2.36-2.361,2.36H34.227c-1.303,0-2.36-1.058-2.36-2.36
			c0-1.303,1.057-2.36,2.36-2.36H62.55C63.854,44.763,64.912,45.82,64.912,47.124z"/>
	</g>
</g>
</svg>
