<?xml version="1.0" encoding="utf-8"?>
<!-- Generator: Adobe Illustrator 17.0.0, SVG Export Plug-In . SVG Version: 6.00 Build 0)  -->
<!DOCTYPE svg PUBLIC "-//W3C//DTD SVG 1.1//EN" "http://www.w3.org/Graphics/SVG/1.1/DTD/svg11.dtd">
<svg version="1.1" id="Слой_1" xmlns="http://www.w3.org/2000/svg" xmlns:xlink="http://www.w3.org/1999/xlink" x="0px" y="0px"
	 width="100px" height="100px" viewBox="0 0 100 100" enable-background="new 0 0 100 100" xml:space="preserve">
<g>
	<g opacity="0.8">
		<path d="M76.577,42.198c-11.276,0-20.449,9.184-20.449,20.473s9.173,20.473,20.449,20.473s20.449-9.184,20.449-20.473
			S87.853,42.198,76.577,42.198z M76.577,79.048c-9.02,0-16.359-7.347-16.359-16.378s7.339-16.378,16.359-16.378
			s16.359,7.347,16.359,16.378S85.598,79.048,76.577,79.048z"/>
		<g>
			<path fill="#DA9D00" d="M81.574,52.062c-0.013-0.958-9.368-1.022-9.355-0.064l2.752,14.772c0.007,0.479,3.482,0.862,3.469-0.097
				L81.574,52.062z"/>
			<path fill="#DA9D00" d="M79.133,72.19c0,1.413-1.099,2.559-2.454,2.559h-0.205c-1.355,0-2.454-1.146-2.454-2.559l0,0
				c0-1.413,1.099-2.559,2.454-2.559h0.205C78.035,69.631,79.133,70.777,79.133,72.19L79.133,72.19z"/>
		</g>
	</g>
	<g opacity="0.5">
		<path fill-rule="evenodd" clip-rule="evenodd" d="M52.37,62.673c0-12.724,9.276-23.289,21.396-25.324
			c-1.058-10.448-7.756-19.646-20.697-19.646c-11.678,0-15.835,6.725-19.083,14.093c-1.819-1.56-4.181-2.498-6.757-2.498
			c-5.772,0-10.456,4.714-10.456,10.531c0,0.615,0.055,1.213,0.155,1.797C9.049,42.881,3.026,49.753,3.026,58.042
			c0,9.183,7.387,16.625,16.498,16.625h35.824C53.453,71.083,52.37,67.004,52.37,62.673z"/>
	</g>
</g>
</svg>
