<?xml version="1.0" encoding="utf-8"?>
<!-- Generator: Adobe Illustrator 17.0.0, SVG Export Plug-In . SVG Version: 6.00 Build 0)  -->
<!DOCTYPE svg PUBLIC "-//W3C//DTD SVG 1.1//EN" "http://www.w3.org/Graphics/SVG/1.1/DTD/svg11.dtd">
<svg version="1.1" id="Слой_1" xmlns="http://www.w3.org/2000/svg" xmlns:xlink="http://www.w3.org/1999/xlink" x="0px" y="0px"
	 width="100px" height="100px" viewBox="0 0 100 100" enable-background="new 0 0 100 100" xml:space="preserve">
<g opacity="0.5">
	<g>
		<path fill-rule="evenodd" clip-rule="evenodd" d="M63.67,67.991c0-15.235,11.107-27.886,25.619-30.322
			c-1.267-12.51-9.287-23.523-24.782-23.523c-13.983,0-18.961,8.052-22.85,16.875c-2.178-1.868-5.007-2.991-8.091-2.991
			c-6.912,0-12.519,5.645-12.519,12.61c0,0.737,0.066,1.452,0.186,2.152c-9.434,1.501-16.646,9.729-16.646,19.654
			c0,10.996,8.846,19.906,19.754,19.906h42.895C64.968,78.061,63.67,73.177,63.67,67.991z"/>
	</g>
	<path d="M84.011,49.14c-6.324,0-11.474,5.149-11.474,11.474c0,3.263,1.386,6.2,3.58,8.289l-3.516,14.103
		c-0.216,0.867,0.096,1.785,0.794,2.35c0.698,0.56,1.661,0.656,2.46,0.262l8.156-4.08l8.151,4.08
		c0.326,0.156,0.679,0.239,1.028,0.239c0.509,0,1.019-0.17,1.437-0.5c0.698-0.565,1.01-1.478,0.794-2.35l-3.516-14.103
		c2.194-2.088,3.58-5.025,3.58-8.289C95.484,54.289,90.335,49.14,84.011,49.14z M84.011,67.498c-3.795,0-6.884-3.089-6.884-6.884
		s3.089-6.884,6.884-6.884c3.796,0,6.884,3.089,6.884,6.884S87.806,67.498,84.011,67.498z"/>
</g>
</svg>
