<?xml version="1.0" encoding="utf-8"?>
<!-- Generator: Adobe Illustrator 17.0.0, SVG Export Plug-In . SVG Version: 6.00 Build 0)  -->
<!DOCTYPE svg PUBLIC "-//W3C//DTD SVG 1.1//EN" "http://www.w3.org/Graphics/SVG/1.1/DTD/svg11.dtd">
<svg version="1.1" id="Слой_1" xmlns="http://www.w3.org/2000/svg" xmlns:xlink="http://www.w3.org/1999/xlink" x="0px" y="0px"
	 width="100px" height="100px" viewBox="0 0 100 100" enable-background="new 0 0 100 100" xml:space="preserve">
<g opacity="0.8">
	<path fill="#009036" d="M73.543,69.97c0.398,0.399,0.92,0.599,1.442,0.599c0.522,0,1.044-0.2,1.442-0.599l10.195-10.225
		c0.796-0.799,0.796-2.093,0-2.892c-0.796-0.798-2.087-0.798-2.884,0l-8.753,8.779l-4.675-4.689c-0.796-0.798-2.087-0.798-2.884,0
		c-0.796,0.799-0.796,2.093,0,2.892L73.543,69.97z"/>
	<path d="M77.024,82.838c11.243,0,20.39-9.173,20.39-20.449S88.267,41.94,77.024,41.94s-20.39,9.173-20.39,20.449
		S65.781,82.838,77.024,82.838z M77.024,46.03c8.994,0,16.312,7.339,16.312,16.359s-7.317,16.359-16.312,16.359
		s-16.312-7.339-16.312-16.359S68.029,46.03,77.024,46.03z"/>
</g>
<g opacity="0.5">
	<path fill-rule="evenodd" clip-rule="evenodd" d="M52.614,63.094c0-12.687,9.249-23.221,21.334-25.25
		c-1.055-10.417-7.733-19.589-20.637-19.589c-11.644,0-15.789,6.705-19.028,14.052c-1.814-1.555-4.169-2.49-6.738-2.49
		c-5.756,0-10.425,4.701-10.425,10.501c0,0.613,0.055,1.209,0.155,1.792C9.419,43.36,3.413,50.212,3.413,58.477
		c0,9.157,7.366,16.576,16.45,16.576h35.72C53.694,71.48,52.614,67.413,52.614,63.094z"/>
</g>
</svg>
