<?xml version="1.0" encoding="utf-8"?>
<!-- Generator: Adobe Illustrator 17.0.0, SVG Export Plug-In . SVG Version: 6.00 Build 0)  -->
<!DOCTYPE svg PUBLIC "-//W3C//DTD SVG 1.1//EN" "http://www.w3.org/Graphics/SVG/1.1/DTD/svg11.dtd">
<svg version="1.1" id="Слой_1" xmlns="http://www.w3.org/2000/svg" xmlns:xlink="http://www.w3.org/1999/xlink" x="0px" y="0px"
	 width="100px" height="100px" viewBox="0 0 100 100" enable-background="new 0 0 100 100" xml:space="preserve">
<g>
	<g>
		<g>
			<defs>
				<rect id="SVGID_1_" x="0.839" y="1" width="98" height="98"/>
			</defs>
			<clipPath id="SVGID_2_">
				<use xlink:href="#SVGID_1_"  overflow="visible"/>
			</clipPath>
			<path clip-path="url(#SVGID_2_)" fill="#BF391C" d="M66.393,14.543c1.343-2.901,2.707-5.781,4.131-8.842
				C54.762-0.92,39.401-0.601,24.722,8.122C10.525,16.543,2.825,29.346,0.839,45.83c3.369,0.3,6.557,0.579,9.746,0.84
				C12.329,21.764,39.923,2.661,66.393,14.543L66.393,14.543z M66.393,14.543"/>
			<path clip-path="url(#SVGID_2_)" fill="#BF391C" d="M98.037,41.608c-3.169,0.54-6.318,1.101-9.606,1.661
				c1.704,11.403-0.662,21.684-7.64,30.686c-6.938,8.962-16.243,13.884-27.613,15.144c0.281,3.22,0.561,6.361,0.821,9.502
				C77.803,97.76,103.311,73.914,98.037,41.608L98.037,41.608z M98.037,41.608"/>
		</g>
		<path fill="#BF391C" d="M10.444,53.53c-3.029,0.261-6.176,0.54-9.324,0.801C1.861,74.235,19.268,96.64,45.517,98.76
			c0.281-3.221,0.562-6.382,0.823-9.442C25.806,85.897,13.913,74.035,10.444,53.53L10.444,53.53z M10.444,53.53"/>
		<path fill="#BF391C" d="M80.831,26.225c2.446,3.161,4.331,6.641,5.795,10.482c3.048-1.101,6.056-2.2,9.205-3.341
			c-3.63-9.641-9.546-17.323-17.948-23.345c-1.864,2.661-3.71,5.262-5.614,7.982C75.517,20.384,78.405,23.085,80.831,26.225
			L80.831,26.225z M80.831,26.225"/>
		<g>
			<g>
				<path fill-rule="evenodd" clip-rule="evenodd" fill="#BF391C" d="M61.965,39.546H28.596c-1.544,0-2.792,1.236-2.792,2.766V70.07
					c0,1.53,1.249,2.776,2.792,2.776h33.369c1.534,0,2.783-1.246,2.783-2.776V42.312C64.748,40.782,63.499,39.546,61.965,39.546
					L61.965,39.546z M39.102,41.629c0.773,0,1.39,0.618,1.39,1.387c0,0.759-0.617,1.387-1.39,1.387c-0.761,0-1.38-0.628-1.38-1.387
					C37.722,42.247,38.341,41.629,39.102,41.629L39.102,41.629z M34.854,41.629c0.761,0,1.38,0.618,1.38,1.387
					c0,0.759-0.619,1.387-1.38,1.387c-0.771,0-1.4-0.628-1.4-1.387C33.454,42.247,34.083,41.629,34.854,41.629L34.854,41.629z
					 M30.671,41.629c0.771,0,1.39,0.618,1.39,1.387c0,0.759-0.619,1.387-1.39,1.387c-0.761,0-1.38-0.628-1.38-1.387
					C29.291,42.247,29.911,41.629,30.671,41.629L30.671,41.629z M61.965,70.07H28.596V46.511h33.369V70.07z M61.965,43.738H42.504
					v-1.389h19.471v1.389H61.965z M61.965,43.738"/>
				<path fill-rule="evenodd" clip-rule="evenodd" fill="#BF391C" d="M71.081,27.154H37.712c-1.544,0-2.783,1.236-2.783,2.776v8.04
					h2.783v-3.839h33.369v23.547h-4.838v2.785h4.838c1.534,0,2.792-1.255,2.792-2.785V29.93
					C73.874,28.39,72.615,27.154,71.081,27.154L71.081,27.154z M39.788,32.01c-0.761,0-1.38-0.616-1.38-1.377
					c0-0.778,0.619-1.387,1.38-1.387c0.773,0,1.392,0.608,1.392,1.387C41.18,31.394,40.561,32.01,39.788,32.01L39.788,32.01z
					 M43.96,32.01c-0.771,0-1.39-0.616-1.39-1.377c0-0.778,0.619-1.387,1.39-1.387c0.773,0,1.402,0.608,1.402,1.387
					C45.362,31.394,44.733,32.01,43.96,32.01L43.96,32.01z M48.228,32.01c-0.771,0-1.4-0.616-1.4-1.377
					c0-0.778,0.629-1.387,1.4-1.387c0.763,0,1.383,0.608,1.383,1.387C49.611,31.394,48.991,32.01,48.228,32.01L48.228,32.01z
					 M71.081,31.346H51.611v-1.387h19.471V31.346z M71.081,31.346"/>
			</g>
		</g>
	</g>
	<rect x="31.6" y="50" fill="#BF391C" width="26.542" height="3.53"/>
	<rect x="31.6" y="57.421" fill="#BF391C" width="13.271" height="8.8"/>
	<rect x="46.34" y="57.421" fill="#BF391C" width="11.802" height="3.042"/>
</g>
</svg>
