<?xml version="1.0" encoding="utf-8"?>
<!-- Generator: Adobe Illustrator 17.0.0, SVG Export Plug-In . SVG Version: 6.00 Build 0)  -->
<!DOCTYPE svg PUBLIC "-//W3C//DTD SVG 1.1//EN" "http://www.w3.org/Graphics/SVG/1.1/DTD/svg11.dtd">
<svg version="1.1" id="Слой_1" xmlns="http://www.w3.org/2000/svg" xmlns:xlink="http://www.w3.org/1999/xlink" x="0px" y="0px"
	 width="100px" height="100px" viewBox="0 0 100 100" enable-background="new 0 0 100 100" xml:space="preserve">
<g opacity="0.6">
	<path fill="#009036" d="M78.551,49.337c-10.223,0-18.51,7.957-18.51,17.771s8.287,17.771,18.51,17.771S97.06,76.922,97.06,67.108
		S88.774,49.337,78.551,49.337z M78.555,79.197c-3.166,0-6.04-1.227-8.201-3.217c-2.386-2.213-3.897-5.363-3.897-8.879
		c0-6.675,5.418-12.084,12.098-12.084c2.343,0,4.515,0.68,6.368,1.824c3.425,2.128,5.722,5.925,5.722,10.26
		C90.645,73.783,85.228,79.197,78.555,79.197z M85.562,64.396h-4.333v-4.318c0-0.966-0.8-1.771-1.765-1.771h-1.802
		c-0.966,0-1.725,0.806-1.725,1.771v4.318h-4.436c-0.966,0-1.725,0.765-1.725,1.731v1.804c0,0.964,0.759,1.755,1.725,1.755h4.436
		v4.46c0,0.966,0.767,1.763,1.725,1.763h1.802c0.966,0,1.765-0.798,1.765-1.763v-4.46h4.333c0.966,0,1.763-0.792,1.763-1.755v-1.804
		C87.325,65.161,86.528,64.396,85.562,64.396L85.562,64.396z M85.562,64.396"/>
	<g>
		<path d="M78.497,45.616c3.255,0,6.347,0.661,9.147,1.844V36.403v-3.486c0-2.699-2.188-4.89-4.889-4.89H82.07
			c-2.999,0-5.43-2.429-5.43-5.43v-0.682c0-2.699-2.188-4.886-4.883-4.886H48.529c-2.702,0-4.89,2.187-4.89,4.886v0.682
			c0,3.001-2.431,5.43-5.429,5.43h-1.119h-7.144h-10.62H9.684h-1.49c-2.701,0-4.889,2.191-4.889,4.89l0.003,39.18
			c0,3.246,2.632,5.875,5.871,5.875h13.799h22.071h13.527c-1.794-3.122-2.817-6.709-2.817-10.526
			C55.759,55.39,65.939,45.616,78.497,45.616z"/>
	</g>
</g>
</svg>
