<?xml version="1.0" encoding="utf-8"?>
<!-- Generator: Adobe Illustrator 17.0.0, SVG Export Plug-In . SVG Version: 6.00 Build 0)  -->
<!DOCTYPE svg PUBLIC "-//W3C//DTD SVG 1.1//EN" "http://www.w3.org/Graphics/SVG/1.1/DTD/svg11.dtd">
<svg version="1.1" id="Слой_1" xmlns="http://www.w3.org/2000/svg" xmlns:xlink="http://www.w3.org/1999/xlink" x="0px" y="0px"
	 width="100px" height="100px" viewBox="0 0 100 100" enable-background="new 0 0 100 100" xml:space="preserve">
<g>
	<g opacity="0.54">
		<g>
			<defs>
				<rect id="SVGID_1_" x="2.803" y="2.687" width="94.394" height="94.626"/>
			</defs>
			<clipPath id="SVGID_2_">
				<use xlink:href="#SVGID_1_"  overflow="visible"/>
			</clipPath>
			<path clip-path="url(#SVGID_2_)" d="M65.945,15.764c1.294-2.801,2.608-5.582,3.979-8.537C54.742,0.833,39.946,1.141,25.808,9.564
				C12.132,17.695,4.716,30.057,2.803,45.973c3.245,0.289,6.316,0.559,9.387,0.811C13.871,22.736,40.449,4.29,65.945,15.764
				L65.945,15.764z M65.945,15.764"/>
			<path clip-path="url(#SVGID_2_)" d="M96.425,41.897c-3.052,0.522-6.085,1.063-9.252,1.603c1.641,11.01-0.637,20.937-7.359,29.629
				c-6.683,8.653-15.646,13.406-26.597,14.622c0.271,3.11,0.54,6.142,0.791,9.175C76.935,96.116,101.505,73.091,96.425,41.897
				L96.425,41.897z M96.425,41.897"/>
		</g>
		<path d="M12.055,53.409c-2.917,0.252-5.949,0.522-8.981,0.773c0.714,19.218,17.48,40.852,42.764,42.899
			c0.271-3.11,0.541-6.163,0.792-9.117C26.851,84.661,15.397,73.207,12.055,53.409L12.055,53.409z M12.055,53.409"/>
		<path d="M79.852,27.044c2.356,3.052,4.171,6.412,5.581,10.121c2.936-1.063,5.833-2.125,8.866-3.226
			c-3.496-9.31-9.195-16.726-17.288-22.541c-1.796,2.569-3.573,5.081-5.408,7.707C74.734,21.404,77.515,24.011,79.852,27.044
			L79.852,27.044z M79.852,27.044"/>
	</g>
	<g opacity="0.54">
		<g>
			<path d="M73.655,62.512h-4.581v-4.566c0-1.021-0.845-1.873-1.867-1.873h-1.905c-1.021,0-1.824,0.852-1.824,1.873v4.566h-4.69
				c-1.021,0-1.824,0.809-1.824,1.83v1.907c0,1.019,0.803,1.856,1.824,1.856h4.69v4.715c0,1.021,0.811,1.864,1.824,1.864h1.905
				c1.021,0,1.867-0.843,1.867-1.864v-4.715h4.581c1.021,0,1.864-0.837,1.864-1.856v-1.907
				C75.519,63.322,74.676,62.512,73.655,62.512L73.655,62.512z"/>
			<path d="M73.655,62.512"/>
		</g>
		<g>
			<path d="M58.175,54.061c-0.648-0.383-1.056-1.059-1.056-1.823v-2.719c0.185-0.228,0.377-0.484,0.578-0.767
				c0.998-1.407,1.795-2.975,2.378-4.669c1.135-0.518,1.874-1.643,1.874-2.907v-3.223c0-0.774-0.291-1.524-0.806-2.11v-4.283
				c0.043-0.441,0.224-3.077-1.682-5.25c-1.654-1.886-4.338-2.84-7.977-2.84c-3.638,0-6.318,0.954-7.972,2.84
				c-1.906,2.173-1.729,4.81-1.682,5.25v4.283c-0.515,0.585-0.806,1.336-0.806,2.11v3.223c0,0.977,0.444,1.889,1.206,2.499
				c0.735,2.919,2.279,5.12,2.817,5.823v2.664c0,0.779-0.424,1.494-1.109,1.867l-7.178,3.917c-2.335,1.274-3.785,3.714-3.785,6.374
				v2.605c0,3.82,12.107,4.83,18.507,4.83c0.648,0,1.356-0.011,2.101-0.033c-1.323-1.95-2.099-4.274-2.099-6.775
				C51.486,60.261,54.188,56.183,58.175,54.061z"/>
		</g>
	</g>
</g>
</svg>
