<?xml version="1.0" encoding="utf-8"?>
<!-- Generator: Adobe Illustrator 17.0.0, SVG Export Plug-In . SVG Version: 6.00 Build 0)  -->
<!DOCTYPE svg PUBLIC "-//W3C//DTD SVG 1.1//EN" "http://www.w3.org/Graphics/SVG/1.1/DTD/svg11.dtd">
<svg version="1.1" id="Слой_1" xmlns="http://www.w3.org/2000/svg" xmlns:xlink="http://www.w3.org/1999/xlink" x="0px" y="0px"
	 width="100px" height="100px" viewBox="0 0 100 100" enable-background="new 0 0 100 100" xml:space="preserve">
<g>
	<g>
		<g>
			<defs>
				<rect id="SVGID_1_" x="1" y="1" width="98" height="98"/>
			</defs>
			<clipPath id="SVGID_2_">
				<use xlink:href="#SVGID_1_"  overflow="visible"/>
			</clipPath>
			<path clip-path="url(#SVGID_2_)" fill="#BF391C" d="M66.554,14.543c1.343-2.901,2.707-5.781,4.131-8.842
				C54.923-0.92,39.562-0.601,24.884,8.122C10.686,16.543,2.986,29.346,1,45.83c3.369,0.3,6.557,0.579,9.746,0.84
				C12.49,21.764,40.084,2.661,66.554,14.543L66.554,14.543z M66.554,14.543"/>
			<path clip-path="url(#SVGID_2_)" fill="#BF391C" d="M98.198,41.608c-3.169,0.54-6.318,1.101-9.606,1.661
				c1.704,11.403-0.662,21.684-7.64,30.686c-6.938,8.962-16.243,13.884-27.613,15.144c0.281,3.22,0.561,6.361,0.821,9.502
				C77.964,97.76,103.472,73.914,98.198,41.608L98.198,41.608z M98.198,41.608"/>
		</g>
		<path fill="#BF391C" d="M10.605,53.53c-3.029,0.261-6.176,0.54-9.324,0.801C2.022,74.235,19.429,96.64,45.678,98.76
			c0.281-3.221,0.562-6.382,0.823-9.442C25.967,85.897,14.075,74.035,10.605,53.53L10.605,53.53z M10.605,53.53"/>
		<path fill="#BF391C" d="M80.992,26.225c2.446,3.161,4.331,6.641,5.795,10.482c3.048-1.101,6.056-2.2,9.205-3.341
			c-3.63-9.641-9.546-17.323-17.948-23.345c-1.864,2.661-3.71,5.262-5.614,7.982C75.679,20.384,78.566,23.085,80.992,26.225
			L80.992,26.225z M80.992,26.225"/>
	</g>
	<g>
		<g>
			<g>
				<g>
					<path fill="#BF391C" d="M76.843,68.759l-0.014-7.085c-0.057-2.097-0.469-3.556-2.613-4.902c-2.856-1.785-6.052-3.33-6.052-3.33
						l-2.542,8.02l-1.478-4.209c2.6-3.627-0.185-3.811-0.682-3.811h-0.029c-0.497,0-3.281,0.185-0.682,3.811l-1.478,4.194
						l-2.542-8.02c0,0-0.908,0.44-2.188,1.119c-0.298-0.241-0.625-0.482-0.994-0.708c-3.551-2.225-7.514-4.152-7.514-4.152
						l-3.154,9.962l-1.846-5.229c3.239-4.506-0.227-4.733-0.852-4.747h-0.029c-0.625,0-4.091,0.226-0.852,4.747l-1.847,5.229
						l-3.154-9.962c0,0-3.273,1.596-6.536,3.556v15.516H76.843z"/>
				</g>
				<g>
					<path fill="#BF391C" d="M76.843,68.759l-0.014-7.085c-0.057-2.097-0.469-3.556-2.613-4.902c-2.856-1.785-6.052-3.33-6.052-3.33
						l-2.542,8.02l-1.478-4.209c2.6-3.627-0.185-3.811-0.682-3.811h-0.029c-0.497,0-3.281,0.185-0.682,3.811l-1.478,4.194
						l-2.542-8.02c0,0-0.908,0.44-2.188,1.119c-0.298-0.241-0.625-0.482-0.994-0.708c-3.551-2.225-7.514-4.152-7.514-4.152
						l-3.154,9.962l-1.846-5.229c3.239-4.506-0.227-4.733-0.852-4.747h-0.029c-0.625,0-4.091,0.226-0.852,4.747l-1.847,5.229
						l-3.154-9.962c0,0-3.59,0.868-6.536,3.127c-1.678,1.287-3.87,2.995-3.831,7.292c0.052,5.617,0,8.654,0,8.654H76.843z"/>
				</g>
			</g>
			<path fill="#BF391C" d="M42.119,47.612h0.114c9.106-0.099,7.784-12.229,7.784-12.229c-0.369-8.106-7.173-8.034-7.841-8.006
				c-0.667-0.028-7.458-0.1-7.841,8.006C34.335,35.397,33.014,47.527,42.119,47.612L42.119,47.612z M42.119,47.612"/>
			<path fill="#BF391C" d="M63.24,51.732h0.085c7.315-0.071,6.265-9.834,6.265-9.834c-0.298-6.518-5.767-6.462-6.307-6.447
				c-0.54-0.029-6.009-0.071-6.307,6.447C56.976,41.911,55.911,51.661,63.24,51.732L63.24,51.732z M63.24,51.732"/>
		</g>
	</g>
</g>
</svg>
