<?xml version="1.0" encoding="utf-8"?>
<!-- Generator: Adobe Illustrator 17.0.0, SVG Export Plug-In . SVG Version: 6.00 Build 0)  -->
<!DOCTYPE svg PUBLIC "-//W3C//DTD SVG 1.1//EN" "http://www.w3.org/Graphics/SVG/1.1/DTD/svg11.dtd">
<svg version="1.1" id="Слой_1" xmlns="http://www.w3.org/2000/svg" xmlns:xlink="http://www.w3.org/1999/xlink" x="0px" y="0px"
	 width="100px" height="100px" viewBox="0 0 100 100" enable-background="new 0 0 100 100" xml:space="preserve">
<g opacity="0.6">
	<g>
		<g>
			<g>
				<path fill-rule="evenodd" clip-rule="evenodd" d="M73.433,31.335H9.939c-2.937,0-5.313,2.357-5.313,5.276v52.946
					c0,2.919,2.376,5.295,5.313,5.295h63.494c2.919,0,5.295-2.376,5.295-5.295V36.611C78.728,33.692,76.352,31.335,73.433,31.335
					L73.433,31.335z M29.93,35.307c1.471,0,2.645,1.179,2.645,2.645c0,1.448-1.174,2.645-2.645,2.645
					c-1.448,0-2.626-1.197-2.626-2.645C27.303,36.485,28.482,35.307,29.93,35.307L29.93,35.307z M21.846,35.307
					c1.448,0,2.626,1.179,2.626,2.645c0,1.448-1.179,2.645-2.626,2.645c-1.466,0-2.664-1.197-2.664-2.645
					C19.183,36.485,20.38,35.307,21.846,35.307L21.846,35.307z M13.888,35.307c1.466,0,2.645,1.179,2.645,2.645
					c0,1.448-1.179,2.645-2.645,2.645c-1.448,0-2.626-1.197-2.626-2.645C11.261,36.485,12.44,35.307,13.888,35.307L13.888,35.307z
					 M73.433,89.557H9.939V44.62h63.494V89.557z M73.433,39.33h-37.03v-2.65h37.049v2.65H73.433z M73.433,39.33"/>
				<path fill-rule="evenodd" clip-rule="evenodd" d="M90.778,7.697H27.285c-2.937,0-5.295,2.357-5.295,5.295v15.336h5.295v-7.323
					h63.494v44.914h-9.206v5.313h9.206c2.919,0,5.313-2.394,5.313-5.313V12.991C96.092,10.054,93.697,7.697,90.778,7.697
					L90.778,7.697z M31.234,16.959c-1.448,0-2.626-1.174-2.626-2.626c0-1.485,1.179-2.645,2.626-2.645c1.471,0,2.65,1.16,2.65,2.645
					C33.883,15.785,32.705,16.959,31.234,16.959L31.234,16.959z M39.173,16.959c-1.466,0-2.645-1.174-2.645-2.626
					c0-1.485,1.179-2.645,2.645-2.645c1.471,0,2.668,1.16,2.668,2.645C41.841,15.785,40.644,16.959,39.173,16.959L39.173,16.959z
					 M47.294,16.959c-1.466,0-2.664-1.174-2.664-2.626c0-1.485,1.197-2.645,2.664-2.645c1.453,0,2.631,1.16,2.631,2.645
					C49.925,15.785,48.746,16.959,47.294,16.959L47.294,16.959z M90.778,15.692H53.73v-2.645h37.048V15.692z M90.778,15.692"/>
			</g>
		</g>
	</g>
	<rect x="15.654" y="51.274" fill="#BF391C" width="50.503" height="6.734"/>
	<rect x="15.654" y="65.43" fill="#BF391C" width="25.251" height="16.785"/>
	<rect x="43.7" y="65.43" fill="#BF391C" width="22.456" height="5.803"/>
</g>
</svg>
