<?xml version="1.0" encoding="utf-8"?>
<!-- Generator: Adobe Illustrator 17.0.0, SVG Export Plug-In . SVG Version: 6.00 Build 0)  -->
<!DOCTYPE svg PUBLIC "-//W3C//DTD SVG 1.1//EN" "http://www.w3.org/Graphics/SVG/1.1/DTD/svg11.dtd">
<svg version="1.1" id="Слой_1" xmlns="http://www.w3.org/2000/svg" xmlns:xlink="http://www.w3.org/1999/xlink" x="0px" y="0px"
	 width="100px" height="100px" viewBox="0 0 100 100" enable-background="new 0 0 100 100" xml:space="preserve">
<g display="none">
	<g display="inline" opacity="0.54">
		<g>
			<g>
				<defs>
					<rect id="SVGID_1_" x="1" y="1.708" width="97.054" height="97.292"/>
				</defs>
				<clipPath id="SVGID_2_">
					<use xlink:href="#SVGID_1_"  overflow="visible"/>
				</clipPath>
				<path clip-path="url(#SVGID_2_)" d="M65.921,15.153c1.33-2.88,2.681-5.74,4.091-8.778C54.403-0.199,39.19,0.118,24.653,8.778
					C10.592,17.139,2.967,29.849,1,46.214c3.337,0.298,6.494,0.575,9.652,0.834C12.38,22.322,39.707,3.356,65.921,15.153
					L65.921,15.153z"/>
			</g>
			<g>
				<defs>
					<rect id="SVGID_3_" x="1" y="1.708" width="97.054" height="97.292"/>
				</defs>
				<clipPath id="SVGID_4_">
					<use xlink:href="#SVGID_3_"  overflow="visible"/>
				</clipPath>
				<path clip-path="url(#SVGID_4_)" d="M97.26,42.022c-3.138,0.536-6.257,1.093-9.513,1.649c1.687,11.32-0.655,21.527-7.567,30.464
					c-6.871,8.897-16.087,13.784-27.347,15.035c0.278,3.197,0.556,6.315,0.814,9.433C77.221,97.769,102.483,74.095,97.26,42.022
					L97.26,42.022z"/>
			</g>
		</g>
		<path d="M10.513,53.859c-2.999,0.259-6.117,0.536-9.234,0.795c0.734,19.76,17.973,42.003,43.969,44.108
			c0.278-3.198,0.557-6.336,0.815-9.374C25.726,85.992,13.949,74.215,10.513,53.859L10.513,53.859z"/>
		<path d="M80.22,26.751c2.422,3.138,4.289,6.593,5.739,10.407c3.019-1.093,5.998-2.185,9.116-3.317
			C91.48,24.269,85.621,16.643,77.3,10.665c-1.846,2.641-3.674,5.224-5.56,7.925C74.958,20.952,77.817,23.633,80.22,26.751
			L80.22,26.751z"/>
	</g>
	<path display="inline" opacity="0.54" enable-background="new    " d="M60.857,34.793c-5.332,0-10.323,2.889-13.195,7.584h-1.273
		c-0.666,0-1.206,0.566-1.206,1.264v1.264H24.687c-0.321,0-0.627,0.134-0.854,0.369L19.01,50.33
		c-0.234,0.248-0.352,0.571-0.352,0.895s0.118,0.647,0.352,0.895l4.823,5.056c0.227,0.235,0.533,0.369,0.854,0.369h4.324
		l2.057,2.159c0.47,0.493,1.235,0.493,1.705,0l2.059-2.159h1.413l2.057,2.159c0.47,0.493,1.235,0.493,1.705,0l2.059-2.159h3.118
		v1.264c0,0.698,0.54,1.264,1.206,1.264h1.273c2.874,4.697,7.866,7.584,13.195,7.584c8.642,0,15.674-7.371,15.674-16.431
		S69.5,34.793,60.857,34.793z M43.978,49.96c0.666,0,1.206,0.566,1.206,1.264s-0.54,1.264-1.206,1.264h-16.88
		c-0.666,0-1.206-0.566-1.206-1.264s0.54-1.264,1.206-1.264H43.978z M65.68,44.905c3.323,0,6.028,2.836,6.028,6.32
		s-2.706,6.32-6.028,6.32c-3.323,0-6.028-2.836-6.028-6.32S62.357,44.905,65.68,44.905z"/>
</g>
<g opacity="0.54">
	<g>
		<defs>
			<rect id="SVGID_5_" x="1.279" y="1.377" width="96.775" height="97.013"/>
		</defs>
		<clipPath id="SVGID_6_">
			<use xlink:href="#SVGID_5_"  overflow="visible"/>
		</clipPath>
		<path clip-path="url(#SVGID_6_)" d="M66.013,14.784c1.327-2.872,2.673-5.723,4.079-8.753C54.528-0.524,39.359-0.208,24.864,8.427
			C10.844,16.764,3.24,29.437,1.279,45.755c3.327,0.297,6.475,0.573,9.624,0.831C12.626,21.932,39.875,3.021,66.013,14.784
			L66.013,14.784z M66.013,14.784"/>
		<path clip-path="url(#SVGID_6_)" d="M97.262,41.576c-3.129,0.535-6.239,1.09-9.486,1.644c1.682,11.288-0.653,21.465-7.545,30.377
			c-6.852,8.872-16.04,13.744-27.268,14.991c0.277,3.188,0.554,6.296,0.811,9.406C77.281,97.162,102.47,73.557,97.262,41.576
			L97.262,41.576z M97.262,41.576"/>
	</g>
	<path d="M10.764,53.378c-2.991,0.258-6.099,0.535-9.208,0.793c0.732,19.703,17.921,41.882,43.842,43.981
		c0.277-3.189,0.555-6.318,0.812-9.347C25.934,85.419,14.19,73.676,10.764,53.378L10.764,53.378z M10.764,53.378"/>
	<path d="M80.272,26.348c2.415,3.129,4.277,6.574,5.722,10.377c3.01-1.09,5.98-2.178,9.09-3.308
		c-3.585-9.544-9.426-17.148-17.724-23.109c-1.841,2.634-3.663,5.209-5.544,7.902C75.024,20.566,77.875,23.239,80.272,26.348
		L80.272,26.348z M80.272,26.348"/>
	<g>
		<path d="M46.604,65.048c-2.103,1.943-5.011,2.378-7.591,1.136c-0.933-0.449-1.719-1.069-2.336-1.812l-3.512,7.769
			c-0.16,0.353,0.019,0.62,0.103,0.718c0.084,0.098,0.32,0.315,0.694,0.211l2.557-0.712c0.291-0.081,0.586-0.12,0.876-0.12
			c1.225,0,2.379,0.693,2.934,1.843l1.155,2.39c0.169,0.349,0.485,0.384,0.617,0.381c0.129-0.002,0.447-0.044,0.607-0.397
			l5.587-12.358C47.681,64.274,47.099,64.59,46.604,65.048z"/>
		<path d="M52.729,65.048c2.103,1.943,5.011,2.378,7.591,1.136c0.933-0.449,1.719-1.069,2.336-1.812l3.512,7.769
			c0.16,0.353-0.019,0.62-0.103,0.718c-0.084,0.098-0.32,0.315-0.694,0.211l-2.557-0.712c-0.291-0.081-0.586-0.12-0.876-0.12
			c-1.225,0-2.379,0.693-2.934,1.843l-1.155,2.39c-0.169,0.349-0.485,0.384-0.617,0.381c-0.129-0.002-0.447-0.044-0.607-0.397
			l-5.587-12.358C51.652,64.274,52.234,64.59,52.729,65.048z"/>
		<path d="M68.926,44.805c-2.917-1.997-3.822-5.963-2.061-9.028c1.059-1.843,0.508-3.663-0.361-4.753
			c-0.869-1.089-2.522-2.032-4.553-1.409c-3.38,1.035-7.045-0.73-8.344-4.018c-0.78-1.977-2.548-2.681-3.941-2.681
			c-1.393,0-3.161,0.704-3.941,2.681c-1.298,3.289-4.963,5.053-8.344,4.018c-2.032-0.622-3.684,0.32-4.553,1.409
			c-0.869,1.09-1.42,2.91-0.361,4.753c1.762,3.065,0.856,7.031-2.061,9.028c-1.754,1.201-2.047,3.08-1.737,4.439
			c0.31,1.359,1.39,2.925,3.491,3.246c3.495,0.534,6.031,3.714,5.774,7.24c-0.155,2.12,1.132,3.521,2.387,4.126
			c1.256,0.605,3.153,0.737,4.714-0.706c1.298-1.2,2.965-1.8,4.63-1.8c1.666,0,3.332,0.6,4.63,1.8
			c1.561,1.443,3.459,1.31,4.714,0.706c1.255-0.605,2.542-2.006,2.387-4.126c-0.257-3.526,2.279-6.706,5.774-7.24
			c2.101-0.321,3.181-1.887,3.491-3.246C70.973,47.885,70.68,46.005,68.926,44.805z M49.667,58.303
			c-7.646,0-13.866-6.22-13.866-13.866s6.22-13.866,13.866-13.866s13.866,6.22,13.866,13.866
			C63.532,52.083,57.312,58.303,49.667,58.303z"/>
		<path d="M60.947,44.437c0-6.22-5.06-11.28-11.28-11.28s-11.28,5.06-11.28,11.28s5.06,11.28,11.28,11.28
			S60.947,50.657,60.947,44.437z M44.821,43.38c0.584-0.41,1.39-0.269,1.801,0.315l1.343,1.912l5.957-4.351
			c0.577-0.421,1.385-0.295,1.806,0.281c0.421,0.577,0.295,1.385-0.281,1.806l-7.021,5.128c-0.223,0.163-0.49,0.249-0.762,0.249
			c-0.07,0-0.141-0.006-0.211-0.017c-0.342-0.057-0.648-0.248-0.847-0.532l-2.1-2.99C44.096,44.596,44.237,43.79,44.821,43.38z"/>
	</g>
</g>
</svg>
