<?xml version="1.0" encoding="utf-8"?>
<!-- Generator: Adobe Illustrator 17.0.0, SVG Export Plug-In . SVG Version: 6.00 Build 0)  -->
<!DOCTYPE svg PUBLIC "-//W3C//DTD SVG 1.1//EN" "http://www.w3.org/Graphics/SVG/1.1/DTD/svg11.dtd">
<svg version="1.1" id="Слой_1" xmlns="http://www.w3.org/2000/svg" xmlns:xlink="http://www.w3.org/1999/xlink" x="0px" y="0px"
	 width="100px" height="100px" viewBox="0 0 100 100" enable-background="new 0 0 100 100" xml:space="preserve">
<g>
	<g>
		<defs>
			<rect id="SVGID_1_" x="1" y="1" width="98" height="98"/>
		</defs>
		<clipPath id="SVGID_2_">
			<use xlink:href="#SVGID_1_"  overflow="visible"/>
		</clipPath>
		<path clip-path="url(#SVGID_2_)" fill="#BF391C" d="M66.554,14.543c1.343-2.901,2.707-5.781,4.131-8.842
			C54.923-0.92,39.562-0.601,24.884,8.122C10.686,16.543,2.986,29.346,1,45.83c3.369,0.3,6.557,0.579,9.746,0.84
			C12.49,21.764,40.084,2.661,66.554,14.543L66.554,14.543z M66.554,14.543"/>
		<path clip-path="url(#SVGID_2_)" fill="#BF391C" d="M98.198,41.608c-3.169,0.54-6.318,1.101-9.606,1.661
			c1.704,11.403-0.662,21.684-7.64,30.686c-6.938,8.962-16.243,13.884-27.613,15.144c0.281,3.22,0.561,6.361,0.821,9.502
			C77.964,97.76,103.472,73.914,98.198,41.608L98.198,41.608z M98.198,41.608"/>
	</g>
	<path fill="#BF391C" d="M10.605,53.53c-3.029,0.261-6.176,0.54-9.324,0.801C2.022,74.235,19.429,96.64,45.678,98.76
		c0.281-3.221,0.562-6.382,0.823-9.442C25.967,85.897,14.075,74.035,10.605,53.53L10.605,53.53z M10.605,53.53"/>
	<path fill="#BF391C" d="M80.992,26.225c2.446,3.161,4.331,6.641,5.795,10.482c3.048-1.101,6.056-2.2,9.205-3.341
		c-3.63-9.641-9.546-17.323-17.948-23.345c-1.864,2.661-3.71,5.262-5.614,7.982C75.679,20.384,78.566,23.085,80.992,26.225
		L80.992,26.225z M80.992,26.225"/>
	<g>
		<g>
			<path fill="#BF391C" d="M46.899,65.319c-2.129,1.963-5.074,2.403-7.687,1.148c-0.944-0.454-1.741-1.08-2.365-1.83l-3.557,7.848
				c-0.162,0.357,0.019,0.626,0.104,0.725c0.085,0.099,0.324,0.318,0.703,0.213l2.589-0.719c0.295-0.082,0.593-0.121,0.888-0.121
				c1.241,0,2.409,0.701,2.971,1.862l1.169,2.414c0.171,0.353,0.491,0.388,0.625,0.385c0.131-0.002,0.453-0.044,0.614-0.401
				l5.658-12.483C47.989,64.537,47.4,64.857,46.899,65.319z"/>
			<path fill="#BF391C" d="M53.101,65.319c2.129,1.963,5.074,2.403,7.687,1.148c0.944-0.454,1.741-1.08,2.365-1.83l3.557,7.848
				c0.162,0.357-0.019,0.626-0.104,0.725c-0.085,0.099-0.324,0.318-0.703,0.213l-2.589-0.719c-0.295-0.082-0.593-0.121-0.888-0.121
				c-1.241,0-2.409,0.701-2.971,1.862l-1.169,2.414c-0.171,0.353-0.491,0.388-0.625,0.385c-0.131-0.002-0.453-0.044-0.614-0.401
				l-5.658-12.483C52.011,64.537,52.6,64.857,53.101,65.319z"/>
			<path fill="#BF391C" d="M69.503,44.87c-2.954-2.018-3.871-6.024-2.087-9.12c1.072-1.861,0.514-3.701-0.366-4.801
				c-0.88-1.1-2.553-2.052-4.611-1.424c-3.423,1.046-7.134-0.737-8.449-4.059c-0.79-1.997-2.58-2.708-3.991-2.708
				c-1.411,0-3.201,0.712-3.991,2.708c-1.315,3.322-5.026,5.105-8.449,4.059c-2.058-0.628-3.731,0.323-4.611,1.424
				c-0.88,1.101-1.438,2.94-0.366,4.801c1.784,3.096,0.867,7.103-2.087,9.12c-1.776,1.213-2.073,3.112-1.759,4.484
				c0.314,1.372,1.408,2.954,3.535,3.279c3.539,0.539,6.107,3.752,5.847,7.314c-0.157,2.141,1.146,3.557,2.418,4.168
				c1.271,0.611,3.193,0.744,4.774-0.713c1.314-1.212,3.002-1.818,4.689-1.818c1.687,0,3.374,0.606,4.689,1.818
				c1.581,1.457,3.503,1.324,4.774,0.713c1.271-0.611,2.574-2.026,2.418-4.168c-0.26-3.562,2.308-6.775,5.847-7.314
				c2.128-0.324,3.221-1.906,3.535-3.279C71.576,47.981,71.279,46.083,69.503,44.87z M50,58.505
				c-7.742,0-14.041-6.283-14.041-14.007S42.258,30.492,50,30.492s14.041,6.283,14.041,14.007
				C64.041,52.222,57.742,58.505,50,58.505z"/>
			<path fill="#BF391C" d="M61.423,44.499c0-6.283-5.124-11.395-11.423-11.395s-11.423,5.112-11.423,11.395S43.701,55.894,50,55.894
				S61.423,50.782,61.423,44.499z M45.093,43.43c0.592-0.414,1.408-0.272,1.824,0.318l1.36,1.932l6.033-4.395
				c0.584-0.425,1.403-0.298,1.829,0.284c0.426,0.582,0.299,1.399-0.285,1.825l-7.109,5.18c-0.226,0.164-0.496,0.251-0.772,0.251
				c-0.071,0-0.142-0.006-0.213-0.017c-0.347-0.057-0.656-0.251-0.858-0.538l-2.127-3.02C44.359,44.659,44.502,43.844,45.093,43.43z
				"/>
		</g>
	</g>
</g>
</svg>
