<?xml version="1.0" encoding="utf-8"?>
<!-- Generator: Adobe Illustrator 17.0.0, SVG Export Plug-In . SVG Version: 6.00 Build 0)  -->
<!DOCTYPE svg PUBLIC "-//W3C//DTD SVG 1.1//EN" "http://www.w3.org/Graphics/SVG/1.1/DTD/svg11.dtd">
<svg version="1.1" id="Слой_1" xmlns="http://www.w3.org/2000/svg" xmlns:xlink="http://www.w3.org/1999/xlink" x="0px" y="0px"
	 width="100px" height="100px" viewBox="0 0 100 100" enable-background="new 0 0 100 100" xml:space="preserve">
<g>
	<g>
		<defs>
			<rect id="SVGID_1_" x="1" y="1" width="98" height="98"/>
		</defs>
		<clipPath id="SVGID_2_">
			<use xlink:href="#SVGID_1_"  overflow="visible"/>
		</clipPath>
		<path clip-path="url(#SVGID_2_)" fill="#BF391C" d="M66.554,14.543c1.343-2.901,2.707-5.781,4.131-8.842
			C54.923-0.92,39.562-0.601,24.884,8.122C10.686,16.543,2.986,29.346,1,45.83c3.369,0.3,6.557,0.579,9.746,0.84
			C12.49,21.764,40.084,2.661,66.554,14.543L66.554,14.543z M66.554,14.543"/>
		<path clip-path="url(#SVGID_2_)" fill="#BF391C" d="M98.198,41.608c-3.169,0.54-6.318,1.101-9.606,1.661
			c1.704,11.403-0.662,21.684-7.64,30.686c-6.938,8.962-16.243,13.884-27.613,15.144c0.281,3.22,0.561,6.361,0.821,9.502
			C77.964,97.76,103.472,73.914,98.198,41.608L98.198,41.608z M98.198,41.608"/>
	</g>
	<path fill="#BF391C" d="M10.605,53.53c-3.029,0.261-6.176,0.54-9.324,0.801C2.022,74.235,19.429,96.64,45.678,98.76
		c0.281-3.221,0.562-6.382,0.823-9.442C25.967,85.897,14.075,74.035,10.605,53.53L10.605,53.53z M10.605,53.53"/>
	<path fill="#BF391C" d="M80.992,26.225c2.446,3.161,4.331,6.641,5.795,10.482c3.048-1.101,6.056-2.2,9.205-3.341
		c-3.63-9.641-9.546-17.323-17.948-23.345c-1.864,2.661-3.71,5.262-5.614,7.982C75.679,20.384,78.566,23.085,80.992,26.225
		L80.992,26.225z M80.992,26.225"/>
	<g>
		<g>
			<path fill="#BF391C" d="M57.423,25.071h-27v49.859h39.154V37.191L57.423,25.071z M39.587,33.591h8.33
				c0.459,0,0.834,0.947,0.834,2.106c0,1.16-0.375,2.106-0.834,2.106h-8.33c-0.46,0-0.834-0.947-0.834-2.106
				C38.753,34.538,39.127,33.591,39.587,33.591L39.587,33.591z M60.413,46.346H39.587c-0.46,0-0.834-1.032-0.834-2.329
				c0-1.282,0.374-2.314,0.834-2.314h20.825c0.459,0,0.834,1.032,0.834,2.314C61.247,45.313,60.872,46.346,60.413,46.346
				L60.413,46.346z M56.248,38.367V26.735l11.661,11.633H56.248z M56.248,38.367 M60.267,53.963H39.442
				c-0.46,0-0.834-1.032-0.834-2.329c0-1.282,0.374-2.314,0.834-2.314h20.825c0.459,0,0.834,1.032,0.834,2.314
				C61.101,52.931,60.726,53.963,60.267,53.963L60.267,53.963z M60.34,62.161H39.515c-0.46,0-0.834-1.032-0.834-2.329
				c0-1.282,0.374-2.314,0.834-2.314H60.34c0.459,0,0.834,1.032,0.834,2.314C61.174,61.129,60.799,62.161,60.34,62.161L60.34,62.161
				z M60.267,70.94H39.442c-0.46,0-0.834-1.032-0.834-2.329c0-1.282,0.374-2.314,0.834-2.314h20.825
				c0.459,0,0.834,1.032,0.834,2.314C61.101,69.908,60.726,70.94,60.267,70.94L60.267,70.94z"/>
		</g>
	</g>
</g>
</svg>
