<?xml version="1.0" encoding="utf-8"?>
<!-- Generator: Adobe Illustrator 17.0.0, SVG Export Plug-In . SVG Version: 6.00 Build 0)  -->
<!DOCTYPE svg PUBLIC "-//W3C//DTD SVG 1.1//EN" "http://www.w3.org/Graphics/SVG/1.1/DTD/svg11.dtd">
<svg version="1.1" id="Слой_1" xmlns="http://www.w3.org/2000/svg" xmlns:xlink="http://www.w3.org/1999/xlink" x="0px" y="0px"
	 width="100px" height="100px" viewBox="0 0 100 100" enable-background="new 0 0 100 100" xml:space="preserve">
<g>
	<g>
		<defs>
			<rect id="SVGID_1_" x="1" y="1" width="98" height="98"/>
		</defs>
		<clipPath id="SVGID_2_">
			<use xlink:href="#SVGID_1_"  overflow="visible"/>
		</clipPath>
		<path clip-path="url(#SVGID_2_)" fill="#BF391C" d="M66.554,14.543c1.343-2.901,2.707-5.781,4.131-8.842
			C54.923-0.92,39.562-0.601,24.884,8.122C10.686,16.543,2.986,29.346,1,45.83c3.369,0.3,6.557,0.579,9.746,0.84
			C12.49,21.764,40.084,2.661,66.554,14.543L66.554,14.543z M66.554,14.543"/>
		<path clip-path="url(#SVGID_2_)" fill="#BF391C" d="M98.198,41.608c-3.169,0.54-6.318,1.101-9.606,1.661
			c1.704,11.403-0.662,21.684-7.64,30.686c-6.938,8.962-16.243,13.884-27.613,15.144c0.281,3.22,0.561,6.361,0.821,9.502
			C77.964,97.76,103.472,73.914,98.198,41.608L98.198,41.608z M98.198,41.608"/>
	</g>
	<path fill="#BF391C" d="M10.605,53.53c-3.029,0.261-6.176,0.54-9.324,0.801C2.022,74.235,19.429,96.64,45.678,98.76
		c0.281-3.221,0.562-6.382,0.823-9.442C25.967,85.897,14.075,74.035,10.605,53.53L10.605,53.53z M10.605,53.53"/>
	<path fill="#BF391C" d="M80.992,26.225c2.446,3.161,4.331,6.641,5.795,10.482c3.048-1.101,6.056-2.2,9.205-3.341
		c-3.63-9.641-9.546-17.323-17.948-23.345c-1.864,2.661-3.71,5.262-5.614,7.982C75.679,20.384,78.566,23.085,80.992,26.225
		L80.992,26.225z M80.992,26.225"/>
	<g>
		<g>
			<path fill="#BF391C" d="M47.319,70.579c-0.075-0.202-0.102-0.374-0.077-0.512c0.027-0.138-0.061-0.252-0.264-0.34
				c-0.205-0.088-0.305-0.158-0.305-0.208c0-0.05-0.145-0.089-0.436-0.114c-0.291-0.025-0.436-0.036-0.436-0.036H33.969
				c-1.669,0-3.096-0.594-4.284-1.779c-1.189-1.186-1.782-2.61-1.782-4.274V36.683c0-1.665,0.593-3.088,1.782-4.274
				c1.189-1.186,2.616-1.779,4.284-1.779h12.136c0.327,0,0.586-0.08,0.777-0.245c0.188-0.163,0.316-0.41,0.377-0.737
				c0.064-0.329,0.102-0.626,0.116-0.889c0.012-0.265,0.007-0.598-0.02-1.002c-0.025-0.404-0.036-0.658-0.036-0.757
				c0-0.328-0.12-0.612-0.361-0.853c-0.241-0.238-0.525-0.358-0.852-0.358H33.969c-3.007,0-5.58,1.066-7.716,3.197
				c-2.136,2.131-3.205,4.698-3.205,7.697v26.632c0,3.002,1.068,5.566,3.205,7.697c2.136,2.134,4.709,3.199,7.716,3.199h12.136
				c0.329,0,0.586-0.084,0.777-0.247c0.188-0.163,0.316-0.41,0.379-0.737c0.064-0.328,0.1-0.626,0.113-0.889
				c0.012-0.265,0.007-0.598-0.02-1.002C47.33,70.932,47.319,70.679,47.319,70.579L47.319,70.579z M47.319,70.579"/>
			<path fill="#BF391C" d="M81.789,48.297L61.16,27.718C60.68,27.24,60.112,27,59.452,27c-0.657,0-1.225,0.24-1.706,0.719
				c-0.48,0.478-0.721,1.048-0.721,1.703v10.893H40.037c-0.657,0-1.225,0.24-1.706,0.719c-0.48,0.481-0.721,1.047-0.721,1.702
				v14.528c0,0.655,0.241,1.222,0.721,1.701c0.482,0.481,1.05,0.721,1.706,0.721h16.988v10.894c0,0.655,0.241,1.224,0.721,1.702
				C58.228,72.76,58.796,73,59.452,73c0.659,0,1.228-0.24,1.707-0.719l20.629-20.579c0.482-0.478,0.72-1.047,0.72-1.702
				C82.509,49.345,82.271,48.775,81.789,48.297L81.789,48.297z M81.789,48.297"/>
		</g>
	</g>
</g>
</svg>
