<?xml version="1.0" encoding="utf-8"?>
<!-- Generator: Adobe Illustrator 17.0.0, SVG Export Plug-In . SVG Version: 6.00 Build 0)  -->
<!DOCTYPE svg PUBLIC "-//W3C//DTD SVG 1.1//EN" "http://www.w3.org/Graphics/SVG/1.1/DTD/svg11.dtd">
<svg version="1.1" id="Слой_1" xmlns="http://www.w3.org/2000/svg" xmlns:xlink="http://www.w3.org/1999/xlink" x="0px" y="0px"
	 width="100px" height="100px" viewBox="0 0 100 100" enable-background="new 0 0 100 100" xml:space="preserve">
<g opacity="0.6">
	<g>
		<path fill="none" d="M81.571,73.875h5.597c0.849,0,1.539-0.69,1.539-1.539c0-0.849-0.69-1.538-1.539-1.538h-3.471
			C83.355,72.054,82.6,73.135,81.571,73.875z"/>
		<path fill="none" d="M87.779,64.633c0.849,0,1.539-0.689,1.539-1.538c0-0.85-0.69-1.539-1.539-1.539h-3.863v3.077H87.779z"/>
		<g>
			<path d="M82.123,43.092h1.793V31.94c0-2.576-2.088-4.667-4.665-4.667h-0.653c-2.862,0-5.182-2.319-5.182-5.182V21.44
				c0-2.576-2.088-4.663-4.66-4.663H46.59c-2.579,0-4.667,2.087-4.667,4.663v0.651c0,2.863-2.32,5.182-5.181,5.182h-1.068h-6.818
				H18.721H9.519H8.097c-2.578,0-4.666,2.091-4.666,4.667L3.434,69.33c0,3.098,2.512,5.607,5.603,5.607h48.469v-7.383
				c0-2.304,0-4.234,0-5.841v-6.311V46.17c0-1.696,1.381-3.077,3.077-3.077h6.589h11.874H82.123z"/>
		</g>
	</g>
	<g>
		<g>
			<path fill="none" d="M66.332,60.283c-0.664,0-1.202,0.538-1.202,1.202c0,0.664,0.538,1.202,1.202,1.202h1.062v-2.404H66.332z"/>
			<path fill="none" d="M65.445,68.706c0,0.664,0.539,1.203,1.202,1.203h0.746v-0.131c0-0.82,0-1.571,0-2.274h-0.746
				C65.984,67.504,65.445,68.043,65.445,68.706z"/>
			<path fill="none" d="M66.339,53.07c-0.664,0-1.202,0.538-1.202,1.202c0,0.664,0.539,1.202,1.202,1.202h1.055V53.07H66.339z"/>
			<polygon fill="#DC121F" points="79.563,45.857 79.563,50.666 84.224,50.666 			"/>
			<path fill="#DC121F" d="M66.647,69.909c-0.664,0-1.202-0.539-1.202-1.203c0-0.664,0.539-1.202,1.202-1.202h0.746
				c0-0.84,0-1.606,0-2.29v-2.527h-1.062c-0.664,0-1.202-0.538-1.202-1.202c0-0.664,0.538-1.202,1.202-1.202h1.062v-4.809h-1.055
				c-0.664,0-1.202-0.539-1.202-1.202c0-0.664,0.539-1.202,1.202-1.202h1.055c0-1.325,1.079-2.404,2.404-2.404h7.361v-4.809H62.732
				c-1.325,0-2.404,1.08-2.404,2.405v7.213v4.931c0,1.256,0,2.763,0,4.564v12.145c0,1.325,1.079,2.405,2.404,2.405h4.621h0.04v-9.61
				H66.647z"/>
		</g>
		<g>
			<g>
				<polygon fill="#214594" points="87.978,51.876 87.978,61.493 97.596,61.493 				"/>
				<path fill="#214594" d="M85.574,61.493v-9.617H71.147c-1.325,0-2.404,1.08-2.404,2.404v7.213v4.931c0,1.256,0,2.763,0,4.564
					v12.145c0,1.325,1.079,2.404,2.404,2.404h4.621h9.805h9.617c1.327,0,2.405-1.077,2.405-2.404V63.898h-9.617
					C86.654,63.898,85.574,62.818,85.574,61.493z M74.754,59.089h7.213c0.664,0,1.203,0.538,1.203,1.202s-0.539,1.202-1.203,1.202
					h-7.213c-0.664,0-1.202-0.539-1.202-1.202S74.091,59.089,74.754,59.089z M91.92,75.927H75.062c-0.664,0-1.202-0.539-1.202-1.202
					s0.538-1.202,1.202-1.202H91.92c0.664,0,1.203,0.538,1.203,1.202S92.584,75.927,91.92,75.927z M93.6,67.504
					c0,0.664-0.539,1.202-1.203,1.202h-17.65c-0.664,0-1.202-0.538-1.202-1.202c0-0.664,0.538-1.202,1.202-1.202h17.65
					C93.061,66.302,93.6,66.84,93.6,67.504z"/>
			</g>
		</g>
	</g>
</g>
</svg>
