<?xml version="1.0" encoding="utf-8"?>
<!-- Generator: Adobe Illustrator 17.0.0, SVG Export Plug-In . SVG Version: 6.00 Build 0)  -->
<!DOCTYPE svg PUBLIC "-//W3C//DTD SVG 1.1//EN" "http://www.w3.org/Graphics/SVG/1.1/DTD/svg11.dtd">
<svg version="1.1" id="Слой_1" xmlns="http://www.w3.org/2000/svg" xmlns:xlink="http://www.w3.org/1999/xlink" x="0px" y="0px"
	 width="100px" height="100px" viewBox="0 0 100 100" enable-background="new 0 0 100 100" xml:space="preserve">
<g opacity="0.6">
	<path fill="#214594" d="M94.518,66.26c0-11.117-6.377-21.038-15.929-25.864c-0.297,21.315-17.578,38.596-38.892,38.892
		c4.826,9.552,14.747,15.929,25.864,15.929c5.212,0,10.281-1.388,14.734-4.026l14.097,3.899l-3.899-14.097
		C93.13,76.541,94.518,71.473,94.518,66.26L94.518,66.26z M94.518,66.26"/>
	<path d="M73.347,39.84c0-18.862-15.345-34.207-34.207-34.207S4.934,20.978,4.934,39.84c0,6.147,1.636,12.132,4.743,17.387
		L5.059,73.92l16.694-4.617c5.255,3.107,11.24,4.743,17.387,4.743C58.002,74.047,73.347,58.702,73.347,39.84L73.347,39.84z
		 M33.891,31.879h-5.249c0-5.789,4.709-10.498,10.498-10.498s10.498,4.709,10.498,10.498c0,2.938-1.244,5.762-3.414,7.747
		l-4.46,4.082v4.093h-5.249v-6.405l6.165-5.643c1.102-1.008,1.709-2.384,1.709-3.875c0-2.895-2.355-5.249-5.249-5.249
		C36.246,26.63,33.891,28.984,33.891,31.879L33.891,31.879z M36.516,53.05h5.249v5.249h-5.249V53.05z M36.516,53.05"/>
</g>
</svg>
