<?xml version="1.0" encoding="utf-8"?>
<!-- Generator: Adobe Illustrator 17.0.0, SVG Export Plug-In . SVG Version: 6.00 Build 0)  -->
<!DOCTYPE svg PUBLIC "-//W3C//DTD SVG 1.1//EN" "http://www.w3.org/Graphics/SVG/1.1/DTD/svg11.dtd">
<svg version="1.1" id="Слой_1" xmlns="http://www.w3.org/2000/svg" xmlns:xlink="http://www.w3.org/1999/xlink" x="0px" y="0px"
	 width="100px" height="100px" viewBox="0 0 100 100" enable-background="new 0 0 100 100" xml:space="preserve">
<g opacity="0.6">
	<g>
		<path d="M34.113,56.448c-9.882-0.268-17.754-1.668-23.416-3.66c-2.669-0.9-4.947-1.952-6.708-3.166v12.654
			c3.707,3.866,15.874,7.432,32.035,7.658c0.003-4.859,1.018-9.43,2.791-13.453c-0.395,0.007-0.791,0.017-1.186,0.017
			C36.46,56.501,35.283,56.482,34.113,56.448z"/>
		<path d="M3.988,31.98v12.648c3.547,3.706,14.848,7.149,29.987,7.629c0.158,0.006,0.316,0.006,0.472,0.013
			c0.434,0.012,0.874,0.025,1.322,0.032c0.611,0.007,1.235,0.013,1.858,0.013c0.625,0,1.249-0.006,1.859-0.013
			c0.448-0.007,0.888-0.02,1.323-0.032c0.096-0.004,0.193-0.006,0.289-0.008c4.448-6.873,11.402-11.318,19.243-11.318
			c3.828,0,7.436,1.086,10.657,2.965V32.149c-6.651,4.389-20.294,6.71-33.371,6.71C24.383,38.859,10.54,36.481,3.988,31.98z"/>
		<path d="M37.628,11.948c-20.288,0-31.885,5.677-33.442,11.453c-0.112,0.197-0.197,0.414-0.197,0.656v3.101
			c3.818,3.988,16.576,7.669,33.639,7.669c16.715,0,29.275-3.531,33.371-7.424v-4.195C69.247,17.507,57.698,11.948,37.628,11.948z"
			/>
		<path d="M3.988,78.152c0,0.222,0.059,0.425,0.158,0.61c1.591,6.583,15.808,11.505,33.481,11.505c4.856,0,0.682-0.384,4.554-1.06
			c-3.095-4.151-5.195-9.358-5.886-15.123C20.427,73.92,9.4,70.926,3.988,67.119V78.152z"/>
	</g>
	<g>
		<path fill="#622181" d="M56.466,49.043h-0.004c-0.447,0-0.868,0.174-1.186,0.492c-0.321,0.32-0.498,0.747-0.498,1.202v25.391
			c0,0.931,0.76,1.69,1.695,1.693c3.941,0.009,10.545,0.831,15.1,5.598V56.846c0-0.316-0.08-0.612-0.233-0.857
			C67.601,49.968,60.416,49.053,56.466,49.043L56.466,49.043z M56.466,49.043"/>
		<path fill="#622181" d="M90.998,76.128V50.737c0-0.454-0.177-0.881-0.499-1.202c-0.317-0.317-0.739-0.492-1.186-0.492h-0.004
			c-3.95,0.009-11.135,0.924-14.874,6.946c-0.152,0.245-0.233,0.542-0.233,0.857v26.572c4.555-4.766,11.158-5.588,15.1-5.597
			C90.237,77.818,90.998,77.059,90.998,76.128L90.998,76.128z M90.998,76.128"/>
		<path fill="#622181" d="M94.854,54.899h-1.228v21.229c0,2.377-1.937,4.315-4.318,4.322c-3.344,0.008-8.856,0.662-12.759,4.357
			c6.752-1.653,13.869-0.579,17.926,0.346c0.506,0.115,1.03-0.004,1.435-0.327c0.405-0.323,0.637-0.805,0.637-1.323v-26.91
			C96.548,55.658,95.787,54.899,94.854,54.899L94.854,54.899z M94.854,54.899"/>
		<path fill="#622181" d="M52.148,76.128V54.899H50.92c-0.934,0-1.693,0.759-1.693,1.693v26.909c0,0.518,0.232,1.001,0.636,1.323
			c0.405,0.324,0.928,0.444,1.435,0.328c4.057-0.924,11.175-2,17.927-0.346c-3.904-3.695-9.416-4.348-12.759-4.356
			C54.085,80.443,52.148,78.505,52.148,76.128L52.148,76.128z M52.148,76.128"/>
	</g>
</g>
</svg>
