<?xml version="1.0" encoding="utf-8"?>
<!-- Generator: Adobe Illustrator 17.0.0, SVG Export Plug-In . SVG Version: 6.00 Build 0)  -->
<!DOCTYPE svg PUBLIC "-//W3C//DTD SVG 1.1//EN" "http://www.w3.org/Graphics/SVG/1.1/DTD/svg11.dtd">
<svg version="1.1" id="Слой_1" xmlns="http://www.w3.org/2000/svg" xmlns:xlink="http://www.w3.org/1999/xlink" x="0px" y="0px"
	 width="100px" height="100px" viewBox="0 0 100 100" enable-background="new 0 0 100 100" xml:space="preserve">
<g>
	<g opacity="0.54">
		<g>
			<defs>
				<rect id="SVGID_1_" x="1" y="1.708" width="97.054" height="97.292"/>
			</defs>
			<clipPath id="SVGID_2_">
				<use xlink:href="#SVGID_1_"  overflow="visible"/>
			</clipPath>
			<path clip-path="url(#SVGID_2_)" d="M65.921,15.153c1.33-2.88,2.681-5.74,4.091-8.778C54.403-0.199,39.19,0.118,24.653,8.778
				C10.592,17.139,2.967,29.849,1,46.214c3.337,0.298,6.494,0.575,9.652,0.834C12.38,22.322,39.707,3.356,65.921,15.153
				L65.921,15.153z M65.921,15.153"/>
			<path clip-path="url(#SVGID_2_)" d="M97.26,42.022c-3.138,0.536-6.257,1.093-9.513,1.649c1.687,11.32-0.655,21.527-7.567,30.464
				c-6.871,8.897-16.087,13.784-27.347,15.035c0.278,3.197,0.556,6.315,0.814,9.433C77.221,97.769,102.483,74.095,97.26,42.022
				L97.26,42.022z M97.26,42.022"/>
		</g>
		<path d="M10.513,53.859c-2.999,0.259-6.117,0.536-9.234,0.795c0.734,19.76,17.973,42.003,43.969,44.108
			c0.278-3.198,0.557-6.336,0.815-9.374C25.726,85.992,13.949,74.215,10.513,53.859L10.513,53.859z M10.513,53.859"/>
		<path d="M80.22,26.751c2.422,3.138,4.289,6.593,5.739,10.407c3.019-1.093,5.998-2.185,9.116-3.317
			c-3.595-9.572-9.454-17.198-17.775-23.176c-1.846,2.641-3.674,5.224-5.56,7.925C74.958,20.952,77.817,23.633,80.22,26.751
			L80.22,26.751z M80.22,26.751"/>
	</g>
	<path opacity="0.54" d="M60.857,34.793c-5.332,0-10.323,2.889-13.195,7.584h-1.273c-0.666,0-1.206,0.566-1.206,1.264v1.264H24.687
		c-0.321,0-0.627,0.134-0.854,0.369L19.01,50.33c-0.234,0.248-0.352,0.571-0.352,0.895c0,0.324,0.118,0.647,0.352,0.895l4.823,5.056
		c0.227,0.235,0.533,0.369,0.854,0.369h4.324l2.057,2.159c0.47,0.493,1.235,0.493,1.705,0l2.059-2.159h1.413l2.057,2.159
		c0.47,0.493,1.235,0.493,1.705,0l2.059-2.159h3.118v1.264c0,0.698,0.54,1.264,1.206,1.264h1.273
		c2.874,4.697,7.866,7.584,13.195,7.584c8.642,0,15.674-7.371,15.674-16.431S69.5,34.793,60.857,34.793z M43.978,49.96
		c0.666,0,1.206,0.566,1.206,1.264s-0.54,1.264-1.206,1.264h-16.88c-0.666,0-1.206-0.566-1.206-1.264s0.54-1.264,1.206-1.264H43.978
		z M65.68,44.905c3.323,0,6.028,2.836,6.028,6.32s-2.706,6.32-6.028,6.32c-3.323,0-6.028-2.836-6.028-6.32
		S62.357,44.905,65.68,44.905z"/>
</g>
</svg>
