<?xml version="1.0" encoding="utf-8"?>
<!-- Generator: Adobe Illustrator 17.0.0, SVG Export Plug-In . SVG Version: 6.00 Build 0)  -->
<!DOCTYPE svg PUBLIC "-//W3C//DTD SVG 1.1//EN" "http://www.w3.org/Graphics/SVG/1.1/DTD/svg11.dtd">
<svg version="1.1" id="Слой_1" xmlns="http://www.w3.org/2000/svg" xmlns:xlink="http://www.w3.org/1999/xlink" x="0px" y="0px"
	 width="100px" height="100px" viewBox="0 0 100 100" enable-background="new 0 0 100 100" xml:space="preserve">
<g opacity="0.6">
	<g>
		<g>
			<defs>
				<rect id="SVGID_1_" x="4.821" y="5.005" width="90.756" height="90.979"/>
			</defs>
			<clipPath id="SVGID_2_">
				<use xlink:href="#SVGID_1_"  overflow="visible"/>
			</clipPath>
		</g>
		<g>
			<path d="M50.068,19.021c-17.393,0-31.544,14.151-31.544,31.544s14.151,31.544,31.544,31.544s31.544-14.151,31.544-31.544
				S67.461,19.021,50.068,19.021L50.068,19.021z M50.068,73.505c-12.649,0-22.941-10.291-22.941-22.941s10.291-22.941,22.941-22.941
				s22.941,10.291,22.941,22.941S62.718,73.505,50.068,73.505L50.068,73.505z M58.59,55.801"/>
		</g>
	</g>
	<path fill="#DC121F" d="M58.43,55.647l4.652,4.321l-2.344,2.051c-2.935,2.568-6.685,3.982-10.557,3.982
		c-8.702,0-15.78-6.932-15.78-15.455c0-8.502,7.078-15.419,15.78-15.419c3.876,0,7.613,1.402,10.521,3.947l2.259,1.976l-4.457,4.459
		l-1.979-1.749c-1.703-1.502-3.955-2.331-6.344-2.331c-5.227,0-9.48,4.09-9.48,9.117c0,5.048,4.253,9.153,9.48,9.153
		c2.362,0,4.615-0.842,6.344-2.368L58.43,55.647z"/>
</g>
</svg>
