<?xml version="1.0" encoding="utf-8"?>
<!-- Generator: Adobe Illustrator 17.0.0, SVG Export Plug-In . SVG Version: 6.00 Build 0)  -->
<!DOCTYPE svg PUBLIC "-//W3C//DTD SVG 1.1//EN" "http://www.w3.org/Graphics/SVG/1.1/DTD/svg11.dtd">
<svg version="1.1" id="Слой_1" xmlns="http://www.w3.org/2000/svg" xmlns:xlink="http://www.w3.org/1999/xlink" x="0px" y="0px"
	 width="24px" height="24px" viewBox="0 0 24 24" enable-background="new 0 0 24 24" xml:space="preserve">
<g opacity="0.54">
	<g>
		<defs>
			<rect id="SVGID_1_" y="-0.029" width="24" height="24.059"/>
		</defs>
		<clipPath id="SVGID_2_">
			<use xlink:href="#SVGID_1_"  overflow="visible"/>
		</clipPath>
		<path clip-path="url(#SVGID_2_)" d="M16.054,3.295c0.329-0.712,0.663-1.419,1.012-2.171c-3.86-1.626-7.622-1.547-11.217,0.594
			C2.372,3.786,0.486,6.929,0,10.976c0.825,0.074,1.606,0.142,2.387,0.206C2.814,5.068,9.572,0.378,16.054,3.295L16.054,3.295z
			 M16.054,3.295"/>
		<path clip-path="url(#SVGID_2_)" d="M23.804,9.94c-0.776,0.133-1.547,0.27-2.352,0.408c0.417,2.799-0.162,5.323-1.871,7.533
			c-1.699,2.2-3.978,3.408-6.762,3.718c0.069,0.791,0.137,1.562,0.201,2.333C18.848,23.725,25.095,17.871,23.804,9.94L23.804,9.94z
			 M23.804,9.94"/>
	</g>
	<path d="M2.352,12.867c-0.742,0.064-1.513,0.133-2.284,0.197C0.25,17.95,4.513,23.45,10.942,23.971
		c0.069-0.791,0.138-1.567,0.201-2.318C6.114,20.813,3.202,17.9,2.352,12.867L2.352,12.867z M2.352,12.867"/>
	<path d="M19.59,6.163c0.599,0.776,1.061,1.63,1.419,2.573c0.746-0.27,1.483-0.54,2.254-0.82c-0.889-2.367-2.338-4.253-4.395-5.731
		c-0.457,0.653-0.909,1.292-1.375,1.96C18.289,4.729,18.996,5.392,19.59,6.163L19.59,6.163z M19.59,6.163"/>
	<g>
		<g>
			<path fill-rule="evenodd" clip-rule="evenodd" d="M18.513,11.272c-0.021-0.184-0.236-0.323-0.421-0.323
				c-0.601,0-1.134-0.353-1.357-0.898c-0.228-0.559-0.081-1.21,0.367-1.621c0.141-0.129,0.158-0.345,0.04-0.494
				c-0.307-0.39-0.657-0.743-1.038-1.049c-0.149-0.12-0.369-0.103-0.498,0.04c-0.391,0.433-1.092,0.593-1.635,0.367
				c-0.564-0.237-0.92-0.809-0.885-1.423c0.011-0.193-0.13-0.361-0.322-0.383c-0.49-0.057-0.984-0.058-1.475-0.004
				c-0.19,0.021-0.331,0.185-0.324,0.375c0.021,0.608-0.339,1.17-0.898,1.398C9.53,7.478,8.834,7.318,8.444,6.889
				C8.315,6.748,8.099,6.731,7.949,6.848c-0.393,0.308-0.75,0.661-1.06,1.048C6.768,8.047,6.786,8.265,6.928,8.394
				c0.456,0.413,0.603,1.07,0.366,1.635c-0.226,0.539-0.786,0.886-1.426,0.886c-0.208-0.007-0.356,0.133-0.379,0.322
				c-0.058,0.492-0.058,0.994-0.003,1.49c0.021,0.185,0.242,0.323,0.43,0.323c0.571-0.015,1.119,0.339,1.349,0.898
				c0.229,0.559,0.082,1.21-0.367,1.621c-0.14,0.129-0.158,0.344-0.04,0.494c0.304,0.388,0.654,0.741,1.037,1.049
				c0.15,0.121,0.369,0.104,0.499-0.04c0.392-0.434,1.094-0.594,1.634-0.367c0.566,0.237,0.922,0.809,0.887,1.422
				c-0.011,0.193,0.13,0.361,0.321,0.383c0.251,0.029,0.502,0.044,0.755,0.044c0.24,0,0.48-0.013,0.719-0.04
				c0.19-0.021,0.331-0.185,0.324-0.375c-0.022-0.608,0.339-1.169,0.897-1.398c0.539-0.22,1.233-0.059,1.623,0.369
				c0.13,0.141,0.344,0.158,0.495,0.041c0.392-0.307,0.749-0.66,1.06-1.048c0.121-0.15,0.104-0.369-0.039-0.498
				c-0.456-0.413-0.604-1.07-0.367-1.635c0.223-0.532,0.761-0.889,1.341-0.889l0.081,0.002c0.188,0.015,0.361-0.13,0.384-0.321
				C18.568,12.27,18.569,11.769,18.513,11.272L18.513,11.272z M12.01,14.2c-1.206,0-2.186-0.981-2.186-2.186
				c0-1.206,0.98-2.186,2.186-2.186c1.206,0,2.186,0.981,2.186,2.186C14.197,13.22,13.216,14.2,12.01,14.2L12.01,14.2z M12.01,14.2"
				/>
		</g>
	</g>
</g>
</svg>
