<?xml version="1.0" encoding="utf-8"?>
<!-- Generator: Adobe Illustrator 17.0.0, SVG Export Plug-In . SVG Version: 6.00 Build 0)  -->
<!DOCTYPE svg PUBLIC "-//W3C//DTD SVG 1.1//EN" "http://www.w3.org/Graphics/SVG/1.1/DTD/svg11.dtd">
<svg version="1.1" id="Слой_1" xmlns="http://www.w3.org/2000/svg" xmlns:xlink="http://www.w3.org/1999/xlink" x="0px" y="0px"
	 width="100px" height="100px" viewBox="0 0 100 100" enable-background="new 0 0 100 100" xml:space="preserve">
<g opacity="0.6">
	<g>
		<g>
			<path fill="none" d="M17.981,67.39c-1.586,0-2.876-1.287-2.876-2.874c0-1.586,1.289-2.874,2.876-2.874h28.741
				c0.548,0,1.031,0.194,1.466,0.461c-0.725,1.688-1.285,3.459-1.701,5.286H17.981z"/>
			<path fill="none" d="M38.099,30.026c0-1.586,1.289-2.874,2.876-2.874h17.244c1.586,0,2.874,1.287,2.874,2.874
				S59.805,32.9,58.218,32.9H40.974C39.388,32.9,38.099,31.613,38.099,30.026z"/>
			<path fill="none" d="M55.345,47.272c0,1.586-1.287,2.874-2.874,2.874h-34.49c-1.586,0-2.876-1.287-2.876-2.874
				s1.289-2.876,2.876-2.876h34.49C54.057,44.397,55.345,45.686,55.345,47.272z"/>
			<polygon points="26.602,9.907 26.602,32.9 3.608,32.9 			"/>
			<path d="M26.602,38.649H3.608v45.987c0,3.173,2.576,5.747,5.749,5.747h36.513c-0.085-7.735-0.178-10.215-0.178-16.132
				c0-2.362,0.29-4.65,0.794-6.862H17.981c-1.586,0-2.876-1.287-2.876-2.874c0-1.586,1.289-2.874,2.876-2.874h28.741
				c0.548,0,1.031,0.194,1.466,0.461c4.225-9.841,13.42-17.031,24.401-18.441V15.656c0-3.167-2.58-5.749-5.747-5.749h-34.49V32.9
				C32.351,36.067,29.769,38.649,26.602,38.649z M58.218,32.9H40.974c-1.586,0-2.876-1.287-2.876-2.874s1.289-2.874,2.876-2.874
				h17.244c1.586,0,2.874,1.287,2.874,2.874S59.805,32.9,58.218,32.9z M17.981,44.397h34.49c1.586,0,2.874,1.289,2.874,2.876
				s-1.287,2.874-2.874,2.874h-34.49c-1.586,0-2.876-1.287-2.876-2.874S16.394,44.397,17.981,44.397z"/>
		</g>
	</g>
	<g>
		<path fill="#009036" d="M96.762,61.991L85.036,50.236c-1.105-1.112-3.043-1.111-4.147-0.001l-3.908,3.918
			c-0.554,0.554-0.86,1.293-0.86,2.079s0.305,1.525,0.859,2.078l11.726,11.755c0.553,0.556,1.289,0.862,2.074,0.862
			s1.521-0.306,2.073-0.861l3.908-3.918c0.554-0.554,0.86-1.293,0.86-2.079C97.621,63.283,97.316,62.545,96.762,61.991z"/>
		<path fill="#009036" d="M76.164,60.276c-0.321-0.322-0.819-0.379-1.202-0.142c-2.854,1.751-7.324,3.839-12.416,3.839
			c-0.436,0-0.82,0.29-0.94,0.71l-6.947,24.342c-0.123,0.434,0.065,0.895,0.456,1.119c0.39,0.221,0.885,0.151,1.194-0.179
			l11.625-12.323c0.39-0.415,0.575-0.998,0.505-1.602c-0.135-1.181,0.406-2.258,1.444-2.88c0.912-0.545,2.123-0.518,3.021,0.064
			c0.778,0.507,1.259,1.282,1.352,2.181c0.093,0.886-0.215,1.754-0.843,2.383c-0.629,0.63-1.499,0.929-2.402,0.828
			c-0.616-0.073-1.181,0.113-1.597,0.507L57.106,90.763c-0.327,0.31-0.401,0.803-0.178,1.195c0.178,0.311,0.505,0.494,0.849,0.494
			c0.089,0,0.179-0.012,0.268-0.037L82.36,85.46c0.42-0.12,0.709-0.504,0.709-0.941c0-5.098,2.085-9.574,3.835-12.43
			c0.236-0.385,0.178-0.883-0.142-1.203L76.164,60.276z"/>
	</g>
</g>
</svg>
