<?xml version="1.0" encoding="utf-8"?>
<!-- Generator: Adobe Illustrator 17.0.0, SVG Export Plug-In . SVG Version: 6.00 Build 0)  -->
<!DOCTYPE svg PUBLIC "-//W3C//DTD SVG 1.1//EN" "http://www.w3.org/Graphics/SVG/1.1/DTD/svg11.dtd">
<svg version="1.1" id="Слой_1" xmlns="http://www.w3.org/2000/svg" xmlns:xlink="http://www.w3.org/1999/xlink" x="0px" y="0px"
	 width="100px" height="100px" viewBox="0 0 100 100" enable-background="new 0 0 100 100" xml:space="preserve">
<g>
	<g>
		<path fill="none" d="M37.146,10.187c-14.452,0-26.168,11.717-26.168,26.168s11.717,26.168,26.168,26.168
			s26.168-11.716,26.168-26.168S51.597,10.187,37.146,10.187z M53.996,53.205c-9.306,9.306-24.395,9.306-33.699,0
			c-9.306-9.306-9.306-24.395,0-33.699c9.304-9.306,24.393-9.306,33.699,0C63.3,28.81,63.3,43.899,53.996,53.205z"/>
		<path fill="none" d="M47.51,28.459L35.702,42.069l-7.264-6.394c-1.335-1.07-3.363-0.885-4.53,0.413
			c-1.168,1.298-1.034,3.216,0.301,4.285l9.725,8.368c0.649,0.52,1.499,0.763,2.358,0.679c0.176-0.018,0.349-0.05,0.519-0.093
			c0.657-0.171,1.251-0.533,1.693-1.042l13.916-16.04c1.144-1.316,0.971-3.232-0.384-4.276
			C50.679,26.921,48.654,27.143,47.51,28.459z"/>
		<path fill="none" d="M52.768,67.479c0.038-1.098,0.148-2.177,0.333-3.231c-2.712,0.31-5.423-0.546-7.234,0.042
			c-2.334,0.758-4.447,5.07-8.748,5.016c-4.437-0.056-6.732-4.379-9.338-5.226c-2.331-0.757-6.59,1.488-10.031-1.079
			c-3.552-2.648-2.876-7.515-4.479-9.722c-1.447-1.991-6.202-2.673-7.476-6.767c-1.318-4.238,2.085-7.778,2.085-10.496
			c0-2.47-3.447-5.803-2.067-9.873c1.419-4.186,6.24-5.035,7.857-7.261c1.457-2.005,0.623-6.716,4.134-9.201
			c3.634-2.57,8.042-0.423,10.622-1.261c2.334-0.758,4.447-5.07,8.747-5.016C41.61,3.46,43.905,7.783,46.51,8.63
			c2.332,0.757,6.591-1.487,10.031,1.078c3.551,2.649,2.876,7.515,4.479,9.722c1.447,1.991,6.203,2.673,7.476,6.767
			c1.318,4.237-2.085,7.778-2.085,10.496c0,2.414,3.26,5.658,2.123,9.602c0.098-0.033,0.191-0.074,0.289-0.106V3.403H5.486v77.581
			h0.496l10.26-16.238l17.504,8.356l-3.208,7.882h13.658l-3.208-7.882L52.768,67.479z"/>
		<path fill="#5C5C60" d="M68.535,46.296c1.138-3.945-2.123-7.188-2.123-9.602c0-2.718,3.403-6.259,2.085-10.496
			c-1.274-4.093-6.03-4.776-7.476-6.767c-1.604-2.207-0.928-7.074-4.479-9.722C53.101,7.142,48.842,9.387,46.51,8.63
			c-2.605-0.847-4.901-5.17-9.338-5.226c-4.3-0.054-6.413,4.258-8.747,5.016c-2.58,0.839-6.988-1.309-10.622,1.261
			c-3.512,2.485-2.678,7.196-4.134,9.201c-1.617,2.226-6.438,3.076-7.857,7.261c-1.379,4.07,2.067,7.403,2.067,9.873
			c0,2.719-3.403,6.259-2.085,10.496c1.274,4.093,6.03,4.776,7.476,6.767c1.604,2.207,0.928,7.074,4.479,9.722
			c3.441,2.567,7.699,0.322,10.031,1.079c2.606,0.847,4.901,5.17,9.338,5.226c4.301,0.054,6.414-4.258,8.748-5.016
			c1.811-0.589,4.522,0.268,7.234-0.042C54.58,55.823,60.589,48.973,68.535,46.296z M37.146,62.523
			c-14.452,0-26.168-11.716-26.168-26.168s11.717-26.168,26.168-26.168s26.168,11.717,26.168,26.168S51.597,62.523,37.146,62.523z"
			/>
		<radialGradient id="SVGID_1_" cx="37.1458" cy="36.3555" r="23.8287" gradientUnits="userSpaceOnUse">
			<stop  offset="0" style="stop-color:#38A962"/>
			<stop  offset="1" style="stop-color:#008A2E"/>
		</radialGradient>
		<path fill="url(#SVGID_1_)" d="M53.996,19.506c-9.306-9.306-24.395-9.306-33.699,0c-9.306,9.305-9.306,24.393,0,33.699
			c9.304,9.306,24.393,9.306,33.699,0C63.3,43.899,63.3,28.81,53.996,19.506z M52.42,32.244l-13.916,16.04
			c-0.442,0.509-1.037,0.871-1.693,1.042c-0.17,0.044-0.342,0.075-0.519,0.093c-0.86,0.085-1.709-0.158-2.358-0.679l-9.725-8.368
			c-1.335-1.069-1.468-2.987-0.301-4.285c1.167-1.298,3.196-1.483,4.53-0.413l7.264,6.394L47.51,28.459
			c1.144-1.316,3.168-1.538,4.525-0.492C53.391,29.012,53.564,30.927,52.42,32.244z"/>
		<polygon fill="#5C5C60" points="16.242,64.746 5.982,80.984 3.079,85.579 15.594,84.496 23.929,97.223 30.538,80.984 
			33.746,73.102 		"/>
		<path fill="#5C5C60" d="M56.523,80.984c-2.394-3.651-3.796-8.01-3.796-12.702c0-0.271,0.031-0.535,0.041-0.804l-11.78,5.623
			l3.208,7.882l6.609,16.238l8.335-12.726l0.22,0.019C58.303,83.436,57.354,82.253,56.523,80.984z"/>
	</g>
	<g>
		<circle fill="none" stroke="#5C5C60" stroke-width="2.6874" stroke-miterlimit="10" cx="77.044" cy="68.494" r="20.696"/>
		<g>
			<path fill-rule="evenodd" clip-rule="evenodd" fill="#5C5C60" d="M91.641,72.613c0,3.19-2.566,5.775-5.73,5.775H68.178
				c-3.165,0-5.73-2.585-5.73-5.775c0-2.88,2.092-5.267,4.829-5.702c-0.035-0.203-0.054-0.41-0.054-0.624
				c0-2.021,1.627-3.659,3.632-3.659c0.895,0,1.716,0.326,2.347,0.868c1.128-2.559,2.572-4.896,6.629-4.896
				c4.918,0,7.248,3.822,7.248,7.854c0,0.168-0.006,0.336-0.017,0.5C89.674,67.492,91.641,69.82,91.641,72.613L91.641,72.613z
				 M91.641,72.613"/>
		</g>
	</g>
</g>
</svg>
