<?xml version="1.0" encoding="utf-8"?>
<!-- Generator: Adobe Illustrator 17.0.0, SVG Export Plug-In . SVG Version: 6.00 Build 0)  -->
<!DOCTYPE svg PUBLIC "-//W3C//DTD SVG 1.1//EN" "http://www.w3.org/Graphics/SVG/1.1/DTD/svg11.dtd">
<svg version="1.1" id="Слой_1" xmlns="http://www.w3.org/2000/svg" xmlns:xlink="http://www.w3.org/1999/xlink" x="0px" y="0px"
	 width="100px" height="100px" viewBox="0 0 100 100" enable-background="new 0 0 100 100" xml:space="preserve">
<g>
	<g>
		<path fill="none" d="M36.456,9.94c-14.595,0-26.427,11.832-26.427,26.427s11.833,26.427,26.427,26.427
			s26.427-11.832,26.427-26.427S51.051,9.94,36.456,9.94z M53.473,53.384c-9.398,9.398-24.636,9.398-34.033,0
			c-9.398-9.398-9.398-24.636,0-34.033c9.396-9.398,24.634-9.398,34.033,0C62.869,28.748,62.869,43.986,53.473,53.384z"/>
		<path fill="none" d="M46.923,28.393L34.998,42.137l-7.336-6.457c-1.348-1.081-3.397-0.894-4.575,0.417
			c-1.179,1.31-1.044,3.248,0.303,4.327l9.821,8.45c0.655,0.525,1.513,0.771,2.381,0.685c0.178-0.019,0.353-0.05,0.524-0.094
			c0.663-0.173,1.264-0.538,1.71-1.052l14.054-16.198c1.155-1.329,0.981-3.264-0.388-4.319
			C50.123,26.839,48.078,27.064,46.923,28.393z"/>
		<path fill="none" d="M52.233,67.798c0.038-1.109,0.15-2.198,0.337-3.263c-2.739,0.313-5.477-0.552-7.306,0.043
			c-2.357,0.766-4.491,5.12-8.835,5.066c-4.481-0.056-6.799-4.423-9.431-5.278c-2.354-0.764-6.655,1.502-10.13-1.09
			c-3.587-2.674-2.904-7.589-4.524-9.818c-1.461-2.01-6.264-2.699-7.55-6.833C3.463,42.346,6.9,38.771,6.9,36.025
			c0-2.494-3.481-5.86-2.088-9.971c1.433-4.227,6.301-5.085,7.935-7.333c1.471-2.025,0.629-6.782,4.175-9.292
			c3.67-2.596,8.122-0.427,10.727-1.274c2.358-0.766,4.491-5.12,8.834-5.066c4.482,0.056,6.8,4.423,9.431,5.278
			c2.355,0.764,6.656-1.502,10.131,1.089c3.586,2.675,2.904,7.59,4.524,9.819c1.461,2.01,6.264,2.7,7.55,6.834
			c1.331,4.279-2.106,7.855-2.106,10.6c0,2.438,3.292,5.713,2.144,9.697c0.099-0.033,0.193-0.075,0.292-0.107V3.089H4.483v78.349
			h0.501l10.361-16.399l17.678,8.439l-3.24,7.96h13.793l-3.24-7.96L52.233,67.798z"/>
		<path fill="#5C5C60" d="M68.156,46.406c1.149-3.984-2.144-7.259-2.144-9.697c0-2.745,3.437-6.321,2.106-10.6
			c-1.286-4.134-6.089-4.823-7.55-6.834c-1.619-2.229-0.938-7.144-4.524-9.819c-3.475-2.591-7.776-0.325-10.131-1.089
			c-2.631-0.855-4.949-5.221-9.431-5.278c-4.343-0.054-6.476,4.3-8.834,5.066c-2.605,0.847-7.057-1.322-10.727,1.274
			c-3.546,2.51-2.704,7.267-4.175,9.292c-1.633,2.248-6.501,3.106-7.935,7.333C3.419,30.165,6.9,33.531,6.9,36.025
			c0,2.746-3.437,6.321-2.106,10.6c1.287,4.134,6.089,4.823,7.55,6.833c1.619,2.229,0.937,7.144,4.524,9.818
			c3.475,2.592,7.776,0.325,10.13,1.09c2.632,0.855,4.95,5.221,9.431,5.278c4.343,0.054,6.478-4.3,8.835-5.066
			c1.829-0.595,4.567,0.271,7.306-0.043C54.063,56.027,60.131,49.109,68.156,46.406z M36.456,62.794
			c-14.595,0-26.427-11.832-26.427-26.427S21.861,9.94,36.456,9.94s26.427,11.832,26.427,26.427S51.051,62.794,36.456,62.794z"/>
		<polygon fill="#5C5C60" points="15.345,65.039 4.984,81.438 2.052,86.078 14.691,84.984 23.108,97.837 29.783,81.438 
			33.023,73.477 		"/>
		<path fill="#5C5C60" d="M56.025,81.438c-2.417-3.687-3.834-8.089-3.834-12.827c0-0.274,0.032-0.54,0.041-0.812l-11.896,5.679
			l3.24,7.96l6.674,16.399l8.418-12.852l0.222,0.019C57.823,83.913,56.864,82.719,56.025,81.438z"/>
		<radialGradient id="SVGID_1_" cx="36.4537" cy="36.3669" r="24.0644" gradientUnits="userSpaceOnUse">
			<stop  offset="0" style="stop-color:#D35117"/>
			<stop  offset="1" style="stop-color:#AA121C"/>
		</radialGradient>
		<path fill="url(#SVGID_1_)" d="M53.47,19.351c-9.397-9.398-24.636-9.398-34.033,0c-9.397,9.396-9.397,24.635,0,34.033
			s24.636,9.398,34.033,0S62.867,28.747,53.47,19.351z M48.627,48.531c-0.501,0.502-1.16,0.753-1.817,0.753
			c-0.657,0-1.315-0.251-1.817-0.753l-7.965-7.965l-7.966,7.965c-0.501,0.502-1.16,0.753-1.817,0.753
			c-0.658,0-1.315-0.251-1.817-0.753c-1.004-1.003-1.004-2.629,0-3.632l7.966-7.966l-7.966-7.966c-1.004-1.003-1.004-2.629,0-3.633
			c1.004-1.003,2.629-1.003,3.633,0l7.966,7.966l7.965-7.966c1.001-1.003,2.629-1.003,3.633,0c1.004,1.004,1.004,2.63,0,3.634
			l-7.966,7.965l7.966,7.966C49.631,45.902,49.631,47.527,48.627,48.531z"/>
	</g>
	<g>
		<circle fill="none" stroke="#5C5C60" stroke-width="2.714" stroke-miterlimit="10" cx="76.617" cy="68.611" r="20.901"/>
		<g>
			<path fill-rule="evenodd" clip-rule="evenodd" fill="#5C5C60" d="M91.358,72.77c0,3.221-2.591,5.832-5.787,5.832H67.663
				c-3.196,0-5.787-2.61-5.787-5.832c0-2.908,2.113-5.319,4.877-5.758c-0.035-0.205-0.054-0.414-0.054-0.63
				c0-2.041,1.643-3.695,3.668-3.695c0.904,0,1.733,0.329,2.37,0.876c1.139-2.585,2.598-4.944,6.694-4.944
				c4.967,0,7.319,3.86,7.319,7.932c0,0.17-0.007,0.339-0.018,0.505C89.371,67.599,91.358,69.95,91.358,72.77L91.358,72.77z
				 M91.358,72.77"/>
		</g>
	</g>
</g>
</svg>
