<?xml version="1.0" encoding="utf-8"?>
<!-- Generator: Adobe Illustrator 17.0.0, SVG Export Plug-In . SVG Version: 6.00 Build 0)  -->
<!DOCTYPE svg PUBLIC "-//W3C//DTD SVG 1.1//EN" "http://www.w3.org/Graphics/SVG/1.1/DTD/svg11.dtd">
<svg version="1.1" id="Слой_1" xmlns="http://www.w3.org/2000/svg" xmlns:xlink="http://www.w3.org/1999/xlink" x="0px" y="0px"
	 width="45.27px" height="43.243px" viewBox="0 0 45.27 43.243" enable-background="new 0 0 45.27 43.243" xml:space="preserve">
<path fill="#555555" d="M22.635,3.622c-9.925,0-18,8.074-18,17.999c0,9.926,8.075,18,18,18s18-8.073,18-18
	C40.635,11.697,32.56,3.622,22.635,3.622z M35.689,22.344c0,0.734-0.626,1.368-1.372,1.368H17.728l5.261,5.17
	c0.254,0.25,0.394,0.568,0.394,0.924c0,0.357-0.14,0.692-0.394,0.942l-0.81,0.798c-0.254,0.251-0.593,0.39-0.956,0.39
	c-0.362,0-0.701-0.139-0.956-0.39l-8.918-8.792c-0.255-0.252-0.395-0.588-0.394-0.947c-0.001-0.357,0.139-0.693,0.394-0.945
	l8.918-8.792c0.254-0.251,0.594-0.389,0.956-0.389c0.362,0,0.701,0.139,0.956,0.39l0.81,0.798c0.254,0.252,0.394,0.59,0.394,0.947
	c0,0.356-0.14,0.697-0.394,0.948l-5.203,5.141h16.55l-0.039-0.009c0.746,0,1.391,0.584,1.391,1.319V22.344z"/>
</svg>
