<?xml version="1.0" encoding="utf-8"?>
<!-- Generator: Adobe Illustrator 17.0.0, SVG Export Plug-In . SVG Version: 6.00 Build 0)  -->
<!DOCTYPE svg PUBLIC "-//W3C//DTD SVG 1.1//EN" "http://www.w3.org/Graphics/SVG/1.1/DTD/svg11.dtd">
<svg version="1.1" id="Слой_1" xmlns="http://www.w3.org/2000/svg" xmlns:xlink="http://www.w3.org/1999/xlink" x="0px" y="0px"
	 width="34.459px" height="38.201px" viewBox="0 0 34.459 38.201" enable-background="new 0 0 34.459 38.201" xml:space="preserve">
<g display="none">
	<g display="inline">
		<g>
			<path fill-rule="evenodd" clip-rule="evenodd" fill="#64656A" d="M28.038,14.678c0-1.012,1.266-2.329,0.776-3.906
				c-0.474-1.523-2.244-1.777-2.782-2.518c-0.597-0.821-0.345-2.632-1.667-3.618c-1.28-0.955-2.865-0.12-3.732-0.401
				c-0.97-0.315-1.824-1.924-3.475-1.945c-1.6-0.02-2.386,1.584-3.255,1.867c-0.96,0.312-2.6-0.487-3.952,0.469
				C8.643,5.551,8.954,7.304,8.412,8.05C7.81,8.879,6.016,9.195,5.488,10.752c-0.513,1.514,0.769,2.755,0.769,3.674
				c0,1.012-1.266,2.329-0.776,3.906c0.474,1.523,2.244,1.777,2.782,2.518c0.597,0.821,0.345,2.632,1.667,3.618
				c1.28,0.955,2.865,0.12,3.732,0.402c0.97,0.315,1.824,1.924,3.475,1.945c1.6,0.02,2.387-1.584,3.255-1.867
				c0.96-0.312,2.6,0.487,3.952-0.469c1.307-0.925,0.996-2.678,1.539-3.424c0.602-0.828,2.396-1.144,2.923-2.702
				C29.32,16.837,28.038,15.597,28.038,14.678L28.038,14.678z M17.147,24.289c-5.378,0-9.737-4.36-9.737-9.737
				s4.36-9.737,9.737-9.737c5.377,0,9.737,4.36,9.737,9.737S22.525,24.289,17.147,24.289L17.147,24.289z M17.147,24.289"/>
		</g>
		<radialGradient id="SVGID_1_" cx="17.1474" cy="14.5521" r="8.8667" gradientUnits="userSpaceOnUse">
			<stop  offset="0" style="stop-color:#D35117"/>
			<stop  offset="1" style="stop-color:#AA121C"/>
		</radialGradient>
		<path fill="url(#SVGID_1_)" d="M23.417,8.282c-3.462-3.463-9.077-3.463-12.54,0c-3.462,3.462-3.462,9.077,0,12.54
			s9.077,3.463,12.54,0S26.88,11.744,23.417,8.282z M21.633,19.034c-0.185,0.185-0.427,0.277-0.669,0.277
			c-0.242,0-0.485-0.092-0.669-0.277l-2.935-2.935l-2.935,2.935c-0.185,0.185-0.427,0.277-0.669,0.277
			c-0.243,0-0.485-0.092-0.669-0.277c-0.37-0.37-0.37-0.969,0-1.338l2.935-2.935l-2.935-2.935c-0.37-0.37-0.37-0.969,0-1.339
			c0.37-0.37,0.969-0.37,1.339,0l2.935,2.935l2.935-2.935c0.369-0.37,0.969-0.37,1.339,0c0.37,0.37,0.37,0.969,0,1.339l-2.935,2.935
			l2.935,2.935C22.003,18.065,22.003,18.664,21.633,19.034z"/>
	</g>
	<path display="inline" fill="#5C5C60" d="M9.369,25.116l-4.898,7.752l4.657-0.403l3.102,4.736l3.653-8.975L9.369,25.116z"/>
	<path display="inline" fill="#5C5C60" d="M25.091,25.116l4.898,7.752l-4.657-0.403l-3.102,4.736l-3.653-8.975L25.091,25.116z"/>
</g>
<g>
	<g>
		<g>
			<g>
				<defs>
					<rect id="SVGID_2_" x="5.367" y="2.291" width="23.568" height="28.868"/>
				</defs>
				<clipPath id="SVGID_3_">
					<use xlink:href="#SVGID_2_"  overflow="visible"/>
				</clipPath>
			</g>
			<g>
				<path fill-rule="evenodd" clip-rule="evenodd" fill="#64656A" d="M28.038,14.678c0-1.012,1.266-2.329,0.776-3.906
					c-0.474-1.523-2.244-1.777-2.782-2.518c-0.597-0.821-0.345-2.632-1.667-3.618c-1.28-0.955-2.865-0.12-3.732-0.401
					c-0.97-0.315-1.824-1.924-3.475-1.945c-1.6-0.02-2.386,1.584-3.255,1.867c-0.96,0.312-2.6-0.487-3.952,0.469
					C8.643,5.552,8.954,7.304,8.412,8.051C7.81,8.879,6.016,9.195,5.488,10.753c-0.513,1.514,0.769,2.755,0.769,3.674
					c0,1.012-1.266,2.329-0.776,3.906c0.474,1.523,2.244,1.777,2.782,2.518c0.597,0.821,0.345,2.632,1.667,3.618
					c1.28,0.955,2.865,0.12,3.732,0.402c0.97,0.315,1.824,1.924,3.475,1.945c1.6,0.02,2.387-1.584,3.255-1.867
					c0.96-0.312,2.6,0.487,3.952-0.469c1.307-0.925,0.996-2.678,1.539-3.424c0.602-0.828,2.396-1.144,2.923-2.702
					C29.32,16.837,28.038,15.597,28.038,14.678L28.038,14.678z M17.147,24.289c-5.378,0-9.737-4.36-9.737-9.737
					s4.36-9.737,9.737-9.737c5.377,0,9.737,4.36,9.737,9.737S22.525,24.289,17.147,24.289L17.147,24.289z M17.147,24.289"/>
			</g>
			<radialGradient id="SVGID_4_" cx="17.1474" cy="14.5522" r="8.8667" gradientUnits="userSpaceOnUse">
				<stop  offset="0" style="stop-color:#38A962"/>
				<stop  offset="1" style="stop-color:#008A2E"/>
			</radialGradient>
			<path fill="url(#SVGID_4_)" d="M23.417,8.282c-3.463-3.463-9.077-3.463-12.539,0c-3.463,3.462-3.463,9.077,0,12.539
				c3.462,3.463,9.077,3.463,12.539,0C26.88,17.359,26.88,11.745,23.417,8.282z M22.831,13.022l-5.178,5.968
				c-0.165,0.189-0.386,0.324-0.63,0.388c-0.063,0.016-0.127,0.028-0.193,0.035c-0.32,0.032-0.636-0.059-0.877-0.252l-3.619-3.114
				c-0.497-0.398-0.547-1.112-0.112-1.594c0.435-0.483,1.189-0.552,1.686-0.154l2.703,2.379l4.394-5.064
				c0.426-0.49,1.179-0.572,1.684-0.183C23.192,11.82,23.257,12.532,22.831,13.022z"/>
		</g>
		<path fill="#5C5C60" d="M9.369,25.116l-4.898,7.752l4.657-0.403l3.102,4.736l3.653-8.975L9.369,25.116z"/>
		<path fill="#5C5C60" d="M25.091,25.116l4.898,7.752l-4.657-0.403l-3.102,4.736l-3.653-8.975L25.091,25.116z"/>
	</g>
</g>
</svg>
