<?xml version="1.0" encoding="utf-8"?>
<!-- Generator: Adobe Illustrator 17.0.0, SVG Export Plug-In . SVG Version: 6.00 Build 0)  -->
<!DOCTYPE svg PUBLIC "-//W3C//DTD SVG 1.1//EN" "http://www.w3.org/Graphics/SVG/1.1/DTD/svg11.dtd">
<svg version="1.1" id="Слой_1" xmlns="http://www.w3.org/2000/svg" xmlns:xlink="http://www.w3.org/1999/xlink" x="0px" y="0px"
	 width="24px" height="24px" viewBox="0 0 24 24" enable-background="new 0 0 24 24" xml:space="preserve">
<g opacity="0.54">
	<g>
		<defs>
			<rect id="SVGID_1_" y="-0.029" width="24" height="24.059"/>
		</defs>
		<clipPath id="SVGID_2_">
			<use xlink:href="#SVGID_1_"  overflow="visible"/>
		</clipPath>
		<path clip-path="url(#SVGID_2_)" d="M16.054,3.295c0.329-0.712,0.663-1.419,1.012-2.171c-3.86-1.626-7.622-1.547-11.217,0.594
			C2.372,3.786,0.486,6.929,0,10.976c0.825,0.074,1.606,0.142,2.387,0.206C2.814,5.068,9.572,0.378,16.054,3.295L16.054,3.295z
			 M16.054,3.295"/>
		<path clip-path="url(#SVGID_2_)" d="M23.804,9.94c-0.776,0.133-1.547,0.27-2.352,0.408c0.417,2.799-0.162,5.323-1.871,7.533
			c-1.699,2.2-3.978,3.408-6.762,3.718c0.069,0.791,0.137,1.562,0.201,2.333C18.848,23.725,25.095,17.871,23.804,9.94L23.804,9.94z
			 M23.804,9.94"/>
	</g>
	<path d="M2.352,12.867c-0.742,0.064-1.513,0.133-2.284,0.197C0.25,17.95,4.513,23.45,10.942,23.971
		c0.069-0.791,0.138-1.567,0.201-2.318C6.114,20.813,3.202,17.9,2.352,12.867L2.352,12.867z M2.352,12.867"/>
	<path d="M19.59,6.163c0.599,0.776,1.061,1.63,1.419,2.573c0.746-0.27,1.483-0.54,2.254-0.82c-0.889-2.367-2.338-4.253-4.395-5.731
		c-0.457,0.653-0.909,1.292-1.375,1.96C18.289,4.729,18.996,5.392,19.59,6.163L19.59,6.163z M19.59,6.163"/>
	<g>
		<path d="M11.343,17.052c-0.018-0.05-0.025-0.092-0.019-0.126c0.007-0.034-0.015-0.062-0.065-0.083
			c-0.05-0.022-0.075-0.039-0.075-0.051c0-0.012-0.036-0.022-0.107-0.028c-0.071-0.006-0.107-0.009-0.107-0.009H8.074
			c-0.409,0-0.758-0.146-1.049-0.437c-0.291-0.291-0.436-0.641-0.436-1.049V8.731c0-0.409,0.145-0.758,0.436-1.049
			C7.316,7.39,7.665,7.245,8.074,7.245h2.972c0.08,0,0.144-0.02,0.19-0.06c0.046-0.04,0.077-0.101,0.092-0.181
			c0.016-0.081,0.025-0.154,0.028-0.218c0.003-0.065,0.002-0.147-0.005-0.246c-0.006-0.099-0.009-0.161-0.009-0.186
			c0-0.081-0.029-0.15-0.088-0.209c-0.059-0.058-0.129-0.088-0.209-0.088H8.074c-0.736,0-1.366,0.262-1.89,0.785
			C5.661,7.364,5.4,7.994,5.4,8.731v6.538c0,0.737,0.262,1.366,0.785,1.89c0.523,0.524,1.153,0.785,1.89,0.785h2.972
			c0.081,0,0.144-0.021,0.19-0.061c0.046-0.04,0.077-0.101,0.093-0.181c0.016-0.081,0.025-0.154,0.028-0.218
			c0.003-0.065,0.002-0.147-0.005-0.246C11.346,17.139,11.343,17.077,11.343,17.052L11.343,17.052z M11.343,17.052"/>
		<path d="M19.785,11.582L14.733,6.53c-0.117-0.117-0.257-0.176-0.418-0.176c-0.161,0-0.3,0.059-0.418,0.176
			c-0.118,0.117-0.177,0.257-0.177,0.418v2.674H9.56c-0.161,0-0.3,0.059-0.418,0.177c-0.118,0.118-0.177,0.257-0.177,0.418v3.567
			c0,0.161,0.059,0.3,0.177,0.417c0.118,0.118,0.257,0.177,0.418,0.177h4.16v2.674c0,0.161,0.059,0.301,0.177,0.418
			c0.118,0.118,0.257,0.177,0.418,0.177c0.161,0,0.301-0.059,0.418-0.177l5.052-5.052c0.118-0.117,0.176-0.257,0.176-0.418
			S19.903,11.699,19.785,11.582L19.785,11.582z M19.785,11.582"/>
	</g>
</g>
</svg>
