<?xml version="1.0" encoding="utf-8"?>
<!-- Generator: Adobe Illustrator 17.0.0, SVG Export Plug-In . SVG Version: 6.00 Build 0)  -->
<!DOCTYPE svg PUBLIC "-//W3C//DTD SVG 1.1//EN" "http://www.w3.org/Graphics/SVG/1.1/DTD/svg11.dtd">
<svg version="1.1" id="Слой_1" xmlns="http://www.w3.org/2000/svg" xmlns:xlink="http://www.w3.org/1999/xlink" x="0px" y="0px"
	 width="36px" height="34.768px" viewBox="0 0 36 34.768" enable-background="new 0 0 36 34.768" xml:space="preserve">
<g>
	<g opacity="0.8">
		<path fill="#009540" d="M26.488,23.112c0.169,0.169,0.39,0.254,0.612,0.254s0.443-0.085,0.612-0.254l4.327-4.339
			c0.338-0.339,0.338-0.888,0-1.227c-0.338-0.339-0.886-0.339-1.224,0L27.1,21.271l-1.984-1.99c-0.338-0.339-0.886-0.339-1.224,0
			c-0.338,0.339-0.338,0.888,0,1.227L26.488,23.112z"/>
		<path fill="#555555" d="M27.965,27.953c4.431,0,8.035-3.615,8.035-8.059s-3.605-8.059-8.035-8.059s-8.035,3.615-8.035,8.059
			S23.534,27.953,27.965,27.953z M27.965,12.952c3.817,0,6.923,3.115,6.923,6.943s-3.105,6.943-6.923,6.943
			s-6.923-3.115-6.923-6.943S24.148,12.952,27.965,12.952z"/>
	</g>
	<g>
		<path fill="#555555" d="M17.99,20.136c0-5.189,3.996-9.453,9.063-9.876l5.712-5.712c0.446-0.417,0.546-0.92,0.301-1.51
			c-0.244-0.561-0.669-0.842-1.274-0.842H4.181c-0.604,0-1.029,0.281-1.273,0.842C2.662,3.627,2.764,4.131,3.21,4.548l10.635,10.635
			v10.485c0,0.374,0.137,0.698,0.41,0.971l5.523,5.522c0.259,0.274,0.582,0.411,0.971,0.411c0.172,0,0.352-0.036,0.539-0.109
			c0.561-0.244,0.842-0.668,0.842-1.272v-3C19.628,26.39,17.99,23.454,17.99,20.136z"/>
	</g>
</g>
</svg>
