<?xml version="1.0" encoding="utf-8"?>
<!-- Generator: Adobe Illustrator 17.0.0, SVG Export Plug-In . SVG Version: 6.00 Build 0)  -->
<!DOCTYPE svg PUBLIC "-//W3C//DTD SVG 1.1//EN" "http://www.w3.org/Graphics/SVG/1.1/DTD/svg11.dtd">
<svg version="1.1" id="Слой_1" xmlns="http://www.w3.org/2000/svg" xmlns:xlink="http://www.w3.org/1999/xlink" x="0px" y="0px"
	 width="36px" height="34.768px" viewBox="0 0 36 34.768" enable-background="new 0 0 36 34.768" xml:space="preserve">
<g>
	<g>
		<defs>
			<rect id="SVGID_1_" x="3" y="2.081" width="30" height="30.607"/>
		</defs>
		<clipPath id="SVGID_2_">
			<use xlink:href="#SVGID_1_"  overflow="visible"/>
		</clipPath>
		<path clip-path="url(#SVGID_2_)" fill="#555555" d="M32.867,2.927c-0.241-0.564-0.659-0.846-1.256-0.846H4.383
			c-0.595,0-1.015,0.282-1.256,0.846C2.886,3.519,2.986,4.025,3.426,4.444l10.487,10.69v10.538c0,0.376,0.135,0.702,0.404,0.976
			l5.446,5.55c0.255,0.275,0.574,0.413,0.958,0.413c0.169,0,0.347-0.036,0.532-0.109c0.553-0.246,0.83-0.672,0.83-1.278v-16.09
			L32.57,4.444C33.009,4.025,33.108,3.519,32.867,2.927L32.867,2.927z M32.867,2.927"/>
	</g>
</g>
</svg>
