<?xml version="1.0" encoding="utf-8"?>
<!-- Generator: Adobe Illustrator 17.0.0, SVG Export Plug-In . SVG Version: 6.00 Build 0)  -->
<!DOCTYPE svg PUBLIC "-//W3C//DTD SVG 1.1//EN" "http://www.w3.org/Graphics/SVG/1.1/DTD/svg11.dtd">
<svg version="1.1" id="Слой_1" xmlns="http://www.w3.org/2000/svg" xmlns:xlink="http://www.w3.org/1999/xlink" x="0px" y="0px"
	 width="45.27px" height="43.243px" viewBox="0 0 45.27 43.243" enable-background="new 0 0 45.27 43.243" xml:space="preserve">
<g opacity="0.6">
	<g>
		<g>
			<path fill-rule="evenodd" clip-rule="evenodd" d="M40.285,19.267c-0.052-0.465-0.594-0.814-1.062-0.814
				c-1.514,0-2.858-0.889-3.421-2.264c-0.575-1.408-0.204-3.05,0.924-4.085c0.355-0.325,0.399-0.869,0.101-1.246
				c-0.775-0.984-1.656-1.873-2.617-2.643c-0.376-0.302-0.929-0.26-1.256,0.102c-0.985,1.091-2.754,1.496-4.121,0.926
				c-1.422-0.598-2.32-2.04-2.231-3.587c0.029-0.486-0.327-0.909-0.811-0.965c-1.234-0.143-2.479-0.147-3.717-0.01
				c-0.478,0.053-0.834,0.465-0.818,0.946c0.053,1.532-0.854,2.948-2.263,3.525c-1.351,0.552-3.107,0.15-4.09-0.932
				c-0.325-0.356-0.868-0.4-1.247-0.105c-0.99,0.777-1.89,1.667-2.673,2.643c-0.305,0.379-0.26,0.929,0.099,1.255
				c1.15,1.042,1.521,2.698,0.924,4.123c-0.57,1.358-1.98,2.233-3.595,2.233c-0.524-0.017-0.897,0.335-0.955,0.812
				c-0.145,1.241-0.147,2.506-0.007,3.757c0.052,0.467,0.61,0.813,1.084,0.813c1.439-0.037,2.82,0.854,3.4,2.264
				c0.578,1.408,0.206,3.05-0.924,4.086c-0.354,0.325-0.399,0.867-0.1,1.245c0.767,0.978,1.648,1.868,2.613,2.644
				c0.379,0.305,0.929,0.262,1.258-0.1c0.989-1.093,2.757-1.498,4.119-0.926c1.426,0.597,2.323,2.038,2.236,3.586
				c-0.029,0.486,0.328,0.91,0.81,0.965c0.632,0.074,1.267,0.111,1.904,0.111c0.605,0,1.209-0.033,1.814-0.1
				c0.479-0.053,0.834-0.466,0.818-0.946c-0.055-1.531,0.854-2.948,2.261-3.523c1.36-0.555,3.109-0.149,4.092,0.931
				c0.327,0.355,0.866,0.399,1.247,0.105c0.988-0.775,1.887-1.664,2.673-2.643c0.305-0.379,0.262-0.929-0.099-1.256
				c-1.15-1.041-1.523-2.698-0.926-4.121c0.561-1.34,1.919-2.24,3.38-2.24l0.204,0.005c0.474,0.038,0.91-0.327,0.967-0.81
				C40.423,21.781,40.425,20.518,40.285,19.267L40.285,19.267z M23.866,31.091c-5.509,0-9.989-4.481-9.989-9.99
				c0-5.509,4.48-9.99,9.989-9.99c5.51,0,9.99,4.481,9.99,9.99C33.856,26.61,29.376,31.091,23.866,31.091L23.866,31.091z
				 M23.893,26.647"/>
		</g>
	</g>
	<g>
		<path d="M22.412,15.79l2.331-2.33c0.412-0.549,1.232-0.549,1.645,0l2.33,2.33c0.55,0.411,0.55,1.097,0,1.645l-2.33,2.331
			c-0.412,0.411-1.233,0.411-1.645,0l-0.549-0.549l0.512-0.528l0.584,0.528c0.138,0.137,0.411,0.137,0.549,0l2.33-2.33
			c0.137-0.137,0.137-0.411,0-0.548l-2.33-2.331c-0.138-0.137-0.412-0.137-0.549,0l-2.33,2.331c-0.138,0.137-0.138,0.412,0,0.548
			l0.482,0.477l-0.55,0.557l-0.482-0.486C22.001,16.887,22.001,16.201,22.412,15.79z"/>
		<path d="M23.421,19.572l-0.976-0.914l1.75-1.771c0.822-0.822,2.056-0.822,2.879,0l0.3,0.299l-1.044,1.013l-0.353-0.352
			c-0.136-0.137-0.547-0.137-0.821,0L23.421,19.572z"/>
		<path d="M22.001,27.032c-0.685,0.686-1.645,0.686-2.33,0l-3.016-3.016c-0.686-0.685-0.686-1.645,0-2.33l3.016-3.016
			c0.685-0.685,1.645-0.685,2.33,0l3.016,3.016c0.685,0.686,0.685,1.645,0,2.33l-1.009,1.01l-0.773-0.758l1.098-1.074
			c0.136-0.137,0.136-0.549,0-0.686l-3.154-3.154c-0.138-0.137-0.549-0.137-0.686,0l-3.154,3.154c-0.136,0.137-0.136,0.548,0,0.686
			l3.154,3.153c0.137,0.137,0.547,0.137,0.686,0l0.618-0.618l0.746,0.761L22.001,27.032z"/>
		<path d="M31.049,23.741l-3.976,3.976c-0.822,0.685-2.056,0.685-2.879,0l-3.976-3.976c-0.822-0.822-0.822-2.056,0-2.879
			l1.022-1.022l0.937,0.983l-0.999,0.998c-0.274,0.274-0.274,0.686,0,0.822l3.976,3.976c0.273,0.274,0.685,0.274,0.821,0
			l3.977-3.976c0.273-0.137,0.273-0.548,0-0.822l-2.58-2.575l1.038-1.023l2.639,2.638C31.734,21.685,31.734,22.919,31.049,23.741z"
			/>
	</g>
</g>
</svg>
