<?xml version="1.0" encoding="utf-8"?>
<!-- Generator: Adobe Illustrator 17.0.0, SVG Export Plug-In . SVG Version: 6.00 Build 0)  -->
<!DOCTYPE svg PUBLIC "-//W3C//DTD SVG 1.1//EN" "http://www.w3.org/Graphics/SVG/1.1/DTD/svg11.dtd">
<svg version="1.1" id="Слой_1" xmlns="http://www.w3.org/2000/svg" xmlns:xlink="http://www.w3.org/1999/xlink" x="0px" y="0px"
	 width="100px" height="100px" viewBox="0 0 100 100" enable-background="new 0 0 100 100" xml:space="preserve">
<g>
	<path opacity="0.6" fill="#BF3A1C" d="M45.764,33.536l6.864-6.86c1.212-1.615,3.629-1.615,4.842,0l6.862,6.86
		c1.619,1.211,1.619,3.229,0,4.844l-6.862,6.863c-1.214,1.211-3.631,1.211-4.842,0l-1.616-1.615l1.509-1.555l1.719,1.555
		c0.405,0.404,1.21,0.404,1.616,0l6.859-6.861c0.404-0.402,0.404-1.211,0-1.614l-6.859-6.862c-0.407-0.404-1.212-0.404-1.616,0
		l-6.859,6.862c-0.405,0.404-0.405,1.212,0,1.614l1.42,1.405l-1.619,1.641l-1.418-1.432C44.552,36.766,44.552,34.747,45.764,33.536z
		"/>
	<path opacity="0.6" fill="#BF3A1C" d="M48.733,44.672l-2.874-2.692l5.152-5.215c2.421-2.42,6.054-2.42,8.475,0l0.882,0.879
		l-3.074,2.983l-1.039-1.036c-0.4-0.404-1.612-0.404-2.417,0L48.733,44.672z"/>
	<path opacity="0.6" fill="#BF3A1C" d="M44.552,66.635c-2.016,2.019-4.842,2.019-6.859,0l-8.88-8.88
		c-2.021-2.018-2.021-4.842,0-6.862l8.88-8.88c2.017-2.018,4.843-2.018,6.859,0l8.88,8.88c2.017,2.019,2.017,4.844,0,6.862
		l-2.97,2.973l-2.277-2.231l3.232-3.162c0.4-0.405,0.4-1.616,0-2.019l-9.285-9.285c-0.407-0.404-1.616-0.404-2.019,0l-9.285,9.285
		c-0.4,0.402-0.4,1.614,0,2.019l9.285,9.282c0.402,0.403,1.612,0.403,2.019,0l1.82-1.82l2.196,2.242L44.552,66.635z"/>
	<path opacity="0.6" fill="#BF3A1C" d="M71.193,56.948L59.486,68.654c-2.421,2.018-6.054,2.018-8.475,0L39.305,56.948
		c-2.419-2.421-2.419-6.054,0-8.477l3.01-3.008l2.759,2.895l-2.941,2.938c-0.807,0.808-0.807,2.019,0,2.421l11.706,11.706
		c0.805,0.807,2.016,0.807,2.417,0l11.709-11.706c0.805-0.402,0.805-1.613,0-2.421l-7.596-7.583l3.056-3.011l7.769,7.768
		C73.207,50.893,73.207,54.526,71.193,56.948z"/>
	<g opacity="0.6">
		<path fill-rule="evenodd" clip-rule="evenodd" d="M95.604,44.905c-0.145-1.29-1.649-2.261-2.95-2.261
			c-4.206,0-7.938-2.468-9.503-6.288c-1.597-3.912-0.567-8.473,2.566-11.347c0.987-0.902,1.107-2.413,0.28-3.462
			c-2.153-2.733-4.599-5.203-7.27-7.342c-1.045-0.838-2.581-0.722-3.489,0.282c-2.735,3.03-7.649,4.155-11.446,2.571
			c-3.95-1.662-6.443-5.666-6.198-9.964c0.08-1.351-0.907-2.525-2.253-2.681c-3.429-0.397-6.887-0.409-10.326-0.027
			c-1.329,0.147-2.316,1.293-2.271,2.627c0.148,4.256-2.373,8.189-6.285,9.791c-3.752,1.533-8.631,0.415-11.361-2.588
			c-0.902-0.989-2.411-1.111-3.463-0.29c-2.75,2.158-5.251,4.629-7.424,7.34c-0.847,1.054-0.722,2.581,0.274,3.487
			c3.195,2.893,4.225,7.494,2.566,11.451c-1.584,3.773-5.501,6.203-9.985,6.203c-1.456-0.047-2.491,0.931-2.651,2.254
			c-0.404,3.447-0.409,6.96-0.02,10.435c0.145,1.296,1.694,2.258,3.01,2.258c3.997-0.102,7.832,2.371,9.443,6.288
			c1.604,3.912,0.572,8.471-2.566,11.349c-0.982,0.902-1.107,2.409-0.278,3.457c2.131,2.716,4.579,5.188,7.259,7.345
			c1.052,0.847,2.581,0.729,3.493-0.277c2.747-3.036,7.659-4.16,11.441-2.573c3.962,1.658,6.453,5.661,6.21,9.96
			c-0.08,1.351,0.911,2.528,2.251,2.681c1.755,0.205,3.518,0.307,5.288,0.307c1.679,0,3.358-0.092,5.038-0.278
			c1.331-0.147,2.316-1.294,2.271-2.628c-0.153-4.254,2.373-8.187,6.28-9.787c3.777-1.542,8.635-0.413,11.366,2.585
			c0.907,0.987,2.406,1.107,3.463,0.29c2.745-2.153,5.241-4.622,7.424-7.34c0.847-1.052,0.727-2.581-0.274-3.489
			c-3.195-2.892-4.23-7.494-2.571-11.448c1.559-3.722,5.331-6.221,9.388-6.221l0.567,0.015c1.317,0.107,2.528-0.907,2.686-2.251
			C95.989,51.89,95.994,48.38,95.604,44.905L95.604,44.905z M50.072,76.848c-14.751,0-26.748-12-26.748-26.75
			c0-14.751,11.997-26.751,26.748-26.751c14.753,0,26.75,12,26.75,26.751C76.822,64.848,64.825,76.848,50.072,76.848L50.072,76.848z
			 M50.072,65.406"/>
	</g>
</g>
</svg>
