<?xml version="1.0" encoding="utf-8"?>
<!-- Generator: Adobe Illustrator 17.0.0, SVG Export Plug-In . SVG Version: 6.00 Build 0)  -->
<!DOCTYPE svg PUBLIC "-//W3C//DTD SVG 1.1//EN" "http://www.w3.org/Graphics/SVG/1.1/DTD/svg11.dtd">
<svg version="1.1" id="Слой_1" xmlns="http://www.w3.org/2000/svg" xmlns:xlink="http://www.w3.org/1999/xlink" x="0px" y="0px"
	 width="64px" height="64.187px" viewBox="0 0 64 64.187" enable-background="new 0 0 64 64.187" xml:space="preserve">
<g display="none" opacity="0.8">
	<path display="inline" fill="#009036" d="M26.537,43.99c0.625,0.626,1.444,0.94,2.263,0.94c0.819,0,1.638-0.314,2.263-0.94
		l16-16.047c1.25-1.253,1.25-3.285,0-4.539c-1.25-1.253-3.276-1.253-4.526,0L28.8,37.182l-7.337-7.358
		c-1.25-1.253-3.276-1.253-4.526,0c-1.25,1.253-1.25,3.285,0,4.539L26.537,43.99z"/>
	<path display="inline" d="M32,64.186c17.645,0,32-14.397,32-32.093S49.645,0,32,0S0,14.397,0,32.093S14.355,64.186,32,64.186z
		 M32,6.419c14.116,0,25.6,11.518,25.6,25.675S46.116,57.768,32,57.768S6.4,46.25,6.4,32.093S17.884,6.419,32,6.419z"/>
</g>
<g opacity="0.8">
	<path d="M32.123-0.498c-17.624,0-31.963,14.355-31.963,32s14.339,32,31.963,32s31.963-14.355,31.963-32S49.748-0.498,32.123-0.498z
		 M32.123,57.102c-14.1,0-25.57-11.484-25.57-25.6s11.471-25.6,25.57-25.6s25.57,11.484,25.57,25.6S46.223,57.102,32.123,57.102z"/>
	<path fill="#DC121F" d="M43.973,19.639c-1.248-1.249-3.272-1.249-4.521,0l-7.328,7.337l-7.329-7.337
		c-1.248-1.249-3.272-1.249-4.521,0c-1.248,1.25-1.248,3.276,0,4.526l7.329,7.337l-7.329,7.337c-1.248,1.25-1.248,3.276,0,4.526
		c0.624,0.625,1.442,0.937,2.26,0.937c0.818,0,1.636-0.313,2.26-0.937l7.329-7.337l7.329,7.337c0.624,0.625,1.442,0.937,2.26,0.937
		s1.636-0.313,2.26-0.937c1.248-1.25,1.248-3.276,0-4.526l-7.329-7.337l7.329-7.337C45.221,22.915,45.221,20.889,43.973,19.639z"/>
</g>
<g display="none" opacity="0.8">
	<path display="inline" d="M31.976-0.635c-17.624,0-31.963,14.355-31.963,32s14.339,32,31.963,32s31.963-14.355,31.963-32
		S49.601-0.635,31.976-0.635z M31.976,56.965c-14.1,0-25.57-11.484-25.57-25.6s11.471-25.6,25.57-25.6s25.57,11.484,25.57,25.6
		S46.076,56.965,31.976,56.965z"/>
	<g display="inline">
		<path fill="#F1B915" d="M39.787,14.783c-0.02-1.498-14.642-1.597-14.622-0.099l4.301,23.09c0.01,0.749,5.443,1.347,5.423-0.151
			L39.787,14.783z"/>
		<path fill="#F1B915" d="M35.972,46.245c0,2.209-1.717,4-3.835,4h-0.32c-2.118,0-3.835-1.791-3.835-4l0,0c0-2.209,1.717-4,3.835-4
			h0.32C34.254,42.245,35.972,44.036,35.972,46.245L35.972,46.245z"/>
	</g>
</g>
</svg>
