<?xml version="1.0" encoding="utf-8"?>
<!-- Generator: Adobe Illustrator 17.0.0, SVG Export Plug-In . SVG Version: 6.00 Build 0)  -->
<!DOCTYPE svg PUBLIC "-//W3C//DTD SVG 1.1//EN" "http://www.w3.org/Graphics/SVG/1.1/DTD/svg11.dtd">
<svg version="1.1" id="Слой_1" xmlns="http://www.w3.org/2000/svg" xmlns:xlink="http://www.w3.org/1999/xlink" x="0px" y="0px"
	 width="100px" height="100px" viewBox="0 0 100 100" enable-background="new 0 0 100 100" xml:space="preserve">
<g display="none" opacity="0.8">
	<path display="inline" fill="#009036" d="M41.851,67.474c0.918,0.92,2.121,1.381,3.323,1.381s2.406-0.461,3.323-1.381l23.5-23.569
		c1.835-1.841,1.835-4.825,0-6.667c-1.835-1.84-4.811-1.84-6.647,0L45.174,57.475L34.397,46.667c-1.835-1.84-4.811-1.84-6.647,0
		c-1.835,1.841-1.835,4.825,0,6.667L41.851,67.474z"/>
	<path display="inline" opacity="0.7" d="M49.874,97.137c25.916,0,47-21.145,47-47.137s-21.084-47.137-47-47.137
		s-47,21.145-47,47.137S23.958,97.137,49.874,97.137z M49.874,12.29c20.733,0,37.6,16.917,37.6,37.71s-16.867,37.71-37.6,37.71
		s-37.6-16.917-37.6-37.71S29.141,12.29,49.874,12.29z"/>
</g>
<g display="none" opacity="0.8">
	<path display="inline" opacity="0.7" d="M49.874,2.946c-25.916,0-47,21.108-47,47.054s21.084,47.054,47,47.054s47-21.108,47-47.054
		S75.79,2.946,49.874,2.946z M49.874,87.644c-20.733,0-37.6-16.887-37.6-37.644s16.867-37.644,37.6-37.644s37.6,16.887,37.6,37.644
		S70.607,87.644,49.874,87.644z"/>
	<path display="inline" fill="#DC121F" d="M67.297,32.556c-1.835-1.837-4.811-1.837-6.647,0L49.874,43.345L39.097,32.556
		c-1.835-1.837-4.811-1.837-6.647,0c-1.835,1.837-1.835,4.817,0,6.655L43.227,50L32.45,60.789c-1.835,1.837-1.835,4.817,0,6.655
		c0.918,0.918,2.121,1.378,3.323,1.378s2.406-0.46,3.323-1.378l10.777-10.789l10.777,10.789c0.918,0.918,2.121,1.378,3.323,1.378
		s2.406-0.46,3.323-1.378c1.835-1.837,1.835-4.817,0-6.655L56.521,50l10.777-10.789C69.133,37.373,69.133,34.394,67.297,32.556z"/>
</g>
<g display="none" opacity="0.8">
	<path display="inline" opacity="0.7" d="M49.874,2.946c-25.916,0-47,21.108-47,47.054s21.084,47.054,47,47.054s47-21.108,47-47.054
		S75.79,2.946,49.874,2.946z M49.874,87.644c-20.733,0-37.6-16.887-37.6-37.644s16.867-37.644,37.6-37.644s37.6,16.887,37.6,37.644
		S70.607,87.644,49.874,87.644z"/>
	<g display="inline">
		<path fill="#F1B915" d="M61.359,25.618c-0.03-2.202-21.531-2.349-21.501-0.146l6.324,33.953c0.015,1.101,8.003,1.981,7.974-0.222
			L61.359,25.618z"/>
		<path fill="#F1B915" d="M55.749,71.881c0,3.248-2.525,5.882-5.64,5.882h-0.47c-3.115,0-5.64-2.633-5.64-5.882l0,0
			c0-3.248,2.525-5.882,5.64-5.882h0.47C53.224,65.999,55.749,68.633,55.749,71.881L55.749,71.881z"/>
	</g>
</g>
<g>
	<g opacity="0.7">
		<path d="M49.874,97c25.916,0,47-21.145,47-47.137s-21.084-47.137-47-47.137s-47,21.145-47,47.137S23.958,97,49.874,97z
			 M49.874,12.153c20.733,0,37.6,16.917,37.6,37.71s-16.867,37.71-37.6,37.71s-37.6-16.917-37.6-37.71S29.141,12.153,49.874,12.153z
			"/>
	</g>
	<path fill="#214594" d="M49.874,19.807v30.056H19.906c0,16.573,13.444,30.056,29.968,30.056s29.968-13.483,29.968-30.056
		S66.398,19.807,49.874,19.807z"/>
</g>
</svg>
